{
.appVersion = "1264";
DisplayStrings = (
"fì Fì Pï P/imacron  Tä T/imacron  V/imacron  T/acircumflexgrave T/adblgrave T/ecircumflexgrave T/edblgrave T/idblgrave T/ocircumflexgrave T/odblgrave T/udblgrave  F/acircumflexgrave F/adblgrave F/ecircumflexgrave F/edblgrave F/idblgrave F/ocircumflexgrave F/odblgrave F/udblgrave  V/acircumflexgrave V/adblgrave V/ecircumflexgrave V/edblgrave V/idblgrave V/ocircumflexgrave V/odblgrave V/udblgrave  W/acircumflexgrave W/adblgrave W/ecircumflexgrave W/edblgrave W/idblgrave W/ocircumflexgrave W/odblgrave W/udblgrave  P/acircumflexgrave P/adblgrave P/ecircumflexgrave P/edblgrave P/idblgrave P/ocircumflexgrave P/odblgrave P/udblgrave VïWïFïTï"
);
copyright = "Copyright 2019 The Tomorrow Project Authors (https://github.com/MonicaRizzolli/Tomorrow)";
customParameters = (
{
name = vendorID;
value = JUST;
},
{
name = codePageRanges;
value = (
1252,
1250,
1257,
852
);
},
{
name = license;
value = "This Font Software is licensed under the SIL Open Font License, Version 1.1. This license is available with a FAQ at: http://scripts.sil.org/OFL";
},
{
name = licenseURL;
value = "http://scripts.sil.org/OFL";
},
{
name = fsType;
value = (
);
},
{
name = "Use Typo Metrics";
value = 1;
}
);
date = "2019-10-08 22:36:50 +0000";
designer = "Tony de Marco, Monica Rizzolli";
designerURL = "http://contrast.parts";
familyName = Tomorrow;
featurePrefixes = (
{
automatic = 1;
code = "languagesystem DFLT dflt;\012languagesystem latn dflt;\012languagesystem cyrl dflt;\012languagesystem latn CAT;\012languagesystem latn ROM;\012languagesystem latn MOL;\012languagesystem latn KAZ;\012languagesystem latn TRK;\012languagesystem latn CRT;\012languagesystem latn AZE;\012languagesystem cyrl TAT;\012";
name = Languagesystems;
}
);
features = (
{
automatic = 1;
code = "feature locl;\012feature ordn;\012feature sups;\012feature frac;\012";
name = aalt;
},
{
automatic = 1;

glyphs = (
{
glyphname = A;
lastChange = "2019-09-09 11:34:22 +0000";
layers = (
{
layerId = "2BED5241-FEE2-452B-8B42-4A46EDD0955E";
paths = (
{
closed = 1;
nodes = (
"309 0 LINE",
"326.271 109 LINE",
"513.729 109 LINE",
"531 0 LINE",
"829 0 LINE",
"667 737 LINE",
"174 737 LINE",
"11 0 LINE"
);
},
{
closed = 1;
nodes = (
"399 568 LINE",
"441 568 LINE",
"485.049 290 LINE",
"354.951 290 LINE"
);
}
);
width = 840;
}
);
leftKerningGroup = A;
rightKerningGroup = A;
unicode = 0041;
},
{
glyphname = Aacute;
lastChange = "2019-09-09 11:34:22 +0000";
layers = (
{
layerId = "2BED5241-FEE2-452B-8B42-4A46EDD0955E";
paths = (
{
closed = 1;
nodes = (
"309 0 LINE",
"326.271 109 LINE",
"513.729 109 LINE",
"531 0 LINE",
"829 0 LINE",
"667 737 LINE",
"174 737 LINE",
"11 0 LINE"
);
},
{
closed = 1;
nodes = (
"399 568 LINE",
"441 568 LINE",
"485.049 290 LINE",
"354.951 290 LINE"
);
},
{
closed = 1;
nodes = (
"505 789 LINE",
"667 952 LINE",
"442 952 LINE",
"333 789 LINE"
);
}
);
width = 840;
}
);
leftKerningGroup = A;
rightKerningGroup = A;
unicode = 00C1;
},
{
glyphname = Abreve;
lastChange = "2019-09-09 11:34:22 +0000";
layers = (
{
layerId = "2BED5241-FEE2-452B-8B42-4A46EDD0955E";
paths = (
{
closed = 1;
nodes = (
"309 0 LINE",
"326.271 109 LINE",
"513.729 109 LINE",
"531 0 LINE",
"829 0 LINE",
"667 737 LINE",
"174 737 LINE",
"11 0 LINE"
);
},
{
closed = 1;
nodes = (
"399 568 LINE",
"441 568 LINE",
"485.049 290 LINE",
"354.951 290 LINE"
);
},
{
closed = 1;
nodes = (
"560 789 LINE",
"663 877 LINE",
"663 952 LINE",
"472 952 LINE",
"472 900 LINE",
"370 900 LINE",
"370 952 LINE",
"179 952 LINE",
"179 877 LINE",
"282 789 LINE"
);
}
);
width = 840;
}
);
leftKerningGroup = A;
rightKerningGroup = A;
unicode = 0102;
},
{
glyphname = Abreveacute;
lastChange = "2019-09-09 11:34:22 +0000";
layers = (
{
layerId = "2BED5241-FEE2-452B-8B42-4A46EDD0955E";
paths = (
{
closed = 1;
nodes = (
"309 0 LINE",
"326.271 109 LINE",
"513.729 109 LINE",
"531 0 LINE",
"829 0 LINE",
"667 737 LINE",
"174 737 LINE",
"11 0 LINE"
);
},
{
closed = 1;
nodes = (
"399 568 LINE",
"441 568 LINE",
"485.049 290 LINE",
"354.951 290 LINE"
);
},
{
closed = 1;
nodes = (
"560 789 LINE",
"663 877 LINE",
"663 952 LINE",
"472 952 LINE",
"472 900 LINE",
"370 900 LINE",
"370 952 LINE",
"179 952 LINE",
"179 877 LINE",
"282 789 LINE"
);
},
{
closed = 1;
nodes = (
"511 985 LINE",
"673 1148 LINE",
"448 1148 LINE",
"339 985 LINE"
);
}
);
width = 840;
}
);
leftKerningGroup = A;
rightKerningGroup = A;
unicode = 1EAE;
},
{
glyphname = Abrevedotbelow;
lastChange = "2019-09-09 11:34:22 +0000";
layers = (
{
layerId = "2BED5241-FEE2-452B-8B42-4A46EDD0955E";
paths = (
{
closed = 1;
nodes = (
"309 0 LINE",
"326.271 109 LINE",
"513.729 109 LINE",
"531 0 LINE",
"829 0 LINE",
"667 737 LINE",
"174 737 LINE",
"11 0 LINE"
);
},
{
closed = 1;
nodes = (
"551.5 -209.013 LINE",
"551.5 -51.013 LINE",
"288.5 -51.013 LINE",
"288.5 -209.013 LINE"
);
},
{
closed = 1;
nodes = (
"399 568 LINE",
"441 568 LINE",
"485.049 290 LINE",
"354.951 290 LINE"
);
},
{
closed = 1;
nodes = (
"560 789 LINE",
"663 877 LINE",
"663 952 LINE",
"472 952 LINE",
"472 900 LINE",
"370 900 LINE",
"370 952 LINE",
"179 952 LINE",
"179 877 LINE",
"282 789 LINE"
);
}
);
width = 840;
}
);
leftKerningGroup = A;
rightKerningGroup = A;
unicode = 1EB6;
},
{
glyphname = Abrevegrave;
lastChange = "2019-09-09 11:34:22 +0000";
layers = (
{
layerId = "2BED5241-FEE2-452B-8B42-4A46EDD0955E";
paths = (
{
closed = 1;
nodes = (
"309 0 LINE",
"326.271 109 LINE",
"513.729 109 LINE",
"531 0 LINE",
"829 0 LINE",
"667 737 LINE",
"174 737 LINE",
"11 0 LINE"
);
},
{
closed = 1;
nodes = (
"399 568 LINE",
"441 568 LINE",
"485.049 290 LINE",
"354.951 290 LINE"
);
},
{
closed = 1;
nodes = (
"560 789 LINE",
"663 877 LINE",
"663 952 LINE",
"472 952 LINE",
"472 900 LINE",
"370 900 LINE",
"370 952 LINE",
"179 952 LINE",
"179 877 LINE",
"282 789 LINE"
);
},
{
closed = 1;
nodes = (
"503 985 LINE",
"394 1148 LINE",
"169 1148 LINE",
"331 985 LINE"
);
}
);
width = 840;
}
);
leftKerningGroup = A;
rightKerningGroup = A;
unicode = 1EB0;
},
{
glyphname = Abrevehookabove;
lastChange = "2019-09-09 11:34:22 +0000";
layers = (
{
layerId = "2BED5241-FEE2-452B-8B42-4A46EDD0955E";
paths = (
{
closed = 1;
nodes = (
"309 0 LINE",
"326.271 109 LINE",
"513.729 109 LINE",
"531 0 LINE",
"829 0 LINE",
"667 737 LINE",
"174 737 LINE",
"11 0 LINE"
);
},
{
closed = 1;
nodes = (
"399 568 LINE",
"441 568 LINE",
"485.049 290 LINE",
"354.951 290 LINE"
);
},
{
closed = 1;
nodes = (
"560 788.959 LINE",
"663 876.959 LINE",
"663 951.959 LINE",
"472 951.959 LINE",
"472 899.959 LINE",
"370 899.959 LINE",
"370 951.959 LINE",
"179 951.959 LINE",
"179 876.959 LINE",
"282 788.959 LINE"
);
},
{
closed = 1;
nodes = (
"495 984.987 LINE",
"495 1023.987 LINE",
"537 1023.987 LINE",
"585 1061.987 LINE",
"585 1180.987 LINE",
"536 1222.987 LINE",
"313 1222.987 LINE",
"258 1180.987 LINE",
"258 1115.987 LINE",
"403 1115.987 LINE",
"403 1156.987 LINE",
"435 1156.987 LINE",
"435 1090.987 LINE",
"376 1090.987 LINE",
"337 1061.987 LINE",
"337 984.987 LINE"
);
}
);
width = 840;
}
);
leftKerningGroup = A;
rightKerningGroup = A;
unicode = 1EB2;
},
{
glyphname = Abrevetilde;
lastChange = "2019-09-09 11:34:22 +0000";
layers = (
{
layerId = "2BED5241-FEE2-452B-8B42-4A46EDD0955E";
paths = (
{
closed = 1;
nodes = (
"309 0 LINE",
"326.271 109 LINE",
"513.729 109 LINE",
"531 0 LINE",
"829 0 LINE",
"667 737 LINE",
"174 737 LINE",
"11 0 LINE"
);
},
{
closed = 1;
nodes = (
"399 568 LINE",
"441 568 LINE",
"485.049 290 LINE",
"354.951 290 LINE"
);
},
{
closed = 1;
nodes = (
"560 789 LINE",
"663 877 LINE",
"663 952 LINE",
"472 952 LINE",
"472 900 LINE",
"370 900 LINE",
"370 952 LINE",
"179 952 LINE",
"179 877 LINE",
"282 789 LINE"
);
},
{
closed = 1;
nodes = (
"591 983 LINE",
"675 1055 LINE",
"675 1144 LINE",
"528 1144 LINE",
"528 1111 LINE",
"512 1096 LINE",
"494 1096 LINE",
"445 1151 LINE",
"252 1151 LINE",
"169 1077 LINE",
"169 989 LINE",
"316 989 LINE",
"316 1021 LINE",
"332 1037 LINE",
"349 1037 LINE",
"399 983 LINE"
);
}
);
width = 840;
}
);
leftKerningGroup = A;
rightKerningGroup = A;
unicode = 1EB4;
},
{
glyphname = Acircumflex;
lastChange = "2019-09-09 11:34:22 +0000";
layers = (
{
layerId = "2BED5241-FEE2-452B-8B42-4A46EDD0955E";
paths = (
{
closed = 1;
nodes = (
"309 0 LINE",
"326.271 109 LINE",
"513.729 109 LINE",
"531 0 LINE",
"829 0 LINE",
"667 737 LINE",
"174 737 LINE",
"11 0 LINE"
);
},
{
closed = 1;
nodes = (
"399 568 LINE",
"441 568 LINE",
"485.049 290 LINE",
"354.951 290 LINE"
);
},
{
closed = 1;
nodes = (
"345 789 LINE",
"421 865 LINE",
"497 789 LINE",
"684 789 LINE",
"561 952 LINE",
"281 952 LINE",
"158 789 LINE"
);
}
);
width = 840;
}
);
leftKerningGroup = A;
rightKerningGroup = A;
unicode = 00C2;
},
{
glyphname = Acircumflexacute;
lastChange = "2019-09-09 11:34:22 +0000";
layers = (
{
layerId = "2BED5241-FEE2-452B-8B42-4A46EDD0955E";
paths = (
{
closed = 1;
nodes = (
"309 0 LINE",
"326.271 109 LINE",
"513.729 109 LINE",
"531 0 LINE",
"829 0 LINE",
"667 737 LINE",
"174 737 LINE",
"11 0 LINE"
);
},
{
closed = 1;
nodes = (
"399 568 LINE",
"441 568 LINE",
"485.049 290 LINE",
"354.951 290 LINE"
);
},
{
closed = 1;
nodes = (
"345 789 LINE",
"421 865 LINE",
"497 789 LINE",
"684 789 LINE",
"561 952 LINE",
"281 952 LINE",
"158 789 LINE"
);
},
{
closed = 1;
nodes = (
"838 876.53 LINE",
"1000 1039.53 LINE",
"775 1039.53 LINE",
"666 876.53 LINE"
);
}
);
width = 839;
}
);
leftKerningGroup = A;
rightKerningGroup = A;
unicode = 1EA4;
},
{
glyphname = Acircumflexdotbelow;
lastChange = "2019-09-09 11:34:22 +0000";
layers = (
{
layerId = "2BED5241-FEE2-452B-8B42-4A46EDD0955E";
paths = (
{
closed = 1;
nodes = (
"309 0 LINE",
"326.271 109 LINE",
"513.729 109 LINE",
"531 0 LINE",
"829 0 LINE",
"667 737 LINE",
"174 737 LINE",
"11 0 LINE"
);
},
{
closed = 1;
nodes = (
"551.5 -209.013 LINE",
"551.5 -51.013 LINE",
"288.5 -51.013 LINE",
"288.5 -209.013 LINE"
);
},
{
closed = 1;
nodes = (
"399 568 LINE",
"441 568 LINE",
"485.049 290 LINE",
"354.951 290 LINE"
);
},
{
closed = 1;
nodes = (
"345 789 LINE",
"421 865 LINE",
"497 789 LINE",
"684 789 LINE",
"561 952 LINE",
"281 952 LINE",
"158 789 LINE"
);
}
);
width = 840;
}
);
leftKerningGroup = A;
rightKerningGroup = A;
unicode = 1EAC;
},
{
glyphname = Acircumflexgrave;
lastChange = "2019-09-09 11:34:22 +0000";
layers = (
{
layerId = "2BED5241-FEE2-452B-8B42-4A46EDD0955E";
paths = (
{
closed = 1;
nodes = (
"309 0 LINE",
"326.271 109 LINE",
"513.729 109 LINE",
"531 0 LINE",
"829 0 LINE",
"667 737 LINE",
"174 737 LINE",
"11 0 LINE"
);
},
{
closed = 1;
nodes = (
"399 568 LINE",
"441 568 LINE",
"485.049 290 LINE",
"354.951 290 LINE"
);
},
{
closed = 1;
nodes = (
"176 876.53 LINE",
"67 1039.53 LINE",
"-158 1039.53 LINE",
"4 876.53 LINE"
);
},
{
closed = 1;
nodes = (
"345 789 LINE",
"421 865 LINE",
"497 789 LINE",
"684 789 LINE",
"561 952 LINE",
"281 952 LINE",
"158 789 LINE"
);
}
);
width = 840;
}
);
leftKerningGroup = A;
rightKerningGroup = A;
unicode = 1EA6;
},
{
glyphname = Acircumflexhookabove;
lastChange = "2019-09-09 11:34:22 +0000";
layers = (
{
layerId = "2BED5241-FEE2-452B-8B42-4A46EDD0955E";
paths = (
{
closed = 1;
nodes = (
"309 0 LINE",
"326.271 109 LINE",
"513.729 109 LINE",
"531 0 LINE",
"829 0 LINE",
"667 737 LINE",
"174 737 LINE",
"11 0 LINE"
);
},
{
closed = 1;
nodes = (
"399 568 LINE",
"441 568 LINE",
"485.049 290 LINE",
"354.951 290 LINE"
);
},
{
closed = 1;
nodes = (
"345 789 LINE",
"421 865 LINE",
"497 789 LINE",
"684 789 LINE",
"561 952 LINE",
"281 952 LINE",
"158 789 LINE"
);
},
{
closed = 1;
nodes = (
"824 876.653 LINE",
"824 915.653 LINE",
"866 915.653 LINE",
"914 953.653 LINE",
"914 1072.653 LINE",
"865 1114.653 LINE",
"642 1114.653 LINE",
"587 1072.653 LINE",
"587 1007.653 LINE",
"732 1007.653 LINE",
"732 1048.653 LINE",
"764 1048.653 LINE",
"764 982.653 LINE",
"705 982.653 LINE",
"666 953.653 LINE",
"666 876.653 LINE"
);
}
);
width = 840;
}
);
leftKerningGroup = A;
rightKerningGroup = A;
unicode = 1EA8;
},
{
glyphname = Acircumflextilde;
lastChange = "2019-09-09 11:34:22 +0000";
layers = (
{
layerId = "2BED5241-FEE2-452B-8B42-4A46EDD0955E";
paths = (
{
closed = 1;
nodes = (
"309 0 LINE",
"326.271 109 LINE",
"513.729 109 LINE",
"531 0 LINE",
"829 0 LINE",
"667 737 LINE",
"174 737 LINE",
"11 0 LINE"
);
},
{
closed = 1;
nodes = (
"399 568 LINE",
"441 568 LINE",
"485.049 290 LINE",
"354.951 290 LINE"
);
},
{
closed = 1;
nodes = (
"345 789 LINE",
"421 865 LINE",
"497 789 LINE",
"684 789 LINE",
"561 952 LINE",
"281 952 LINE",
"158 789 LINE"
);
},
{
closed = 1;
nodes = (
"595 983 LINE",
"679 1055 LINE",
"679 1144 LINE",
"532 1144 LINE",
"532 1111 LINE",
"516 1096 LINE",
"498 1096 LINE",
"449 1151 LINE",
"256 1151 LINE",
"173 1077 LINE",
"173 989 LINE",
"320 989 LINE",
"320 1021 LINE",
"336 1037 LINE",
"353 1037 LINE",
"403 983 LINE"
);
}
);
width = 840;
}
);
leftKerningGroup = A;
rightKerningGroup = A;
unicode = 1EAA;
},
{
glyphname = Adblgrave;
lastChange = "2019-09-09 11:34:22 +0000";
layers = (
{
layerId = "2BED5241-FEE2-452B-8B42-4A46EDD0955E";
paths = (
{
closed = 1;
nodes = (
"309 0 LINE",
"326.271 109 LINE",
"513.729 109 LINE",
"531 0 LINE",
"829 0 LINE",
"667 737 LINE",
"174 737 LINE",
"11 0 LINE"
);
},
{
closed = 1;
nodes = (
"399 568 LINE",
"441 568 LINE",
"485.049 290 LINE",
"354.951 290 LINE"
);
},
{
closed = 1;
nodes = (
"355 789 LINE",
"247 952 LINE",
"32 952 LINE",
"195 789 LINE"
);
},
{
closed = 1;
nodes = (
"632 789 LINE",
"523 952 LINE",
"308 952 LINE",
"471 789 LINE"
);
}
);
width = 840;
}
);
leftKerningGroup = A;
rightKerningGroup = A;
unicode = 0200;
},
{
glyphname = Adieresis;
lastChange = "2019-09-09 11:34:22 +0000";
layers = (
{
layerId = "2BED5241-FEE2-452B-8B42-4A46EDD0955E";
paths = (
{
closed = 1;
nodes = (
"309 0 LINE",
"326.271 109 LINE",
"513.729 109 LINE",
"531 0 LINE",
"829 0 LINE",
"667 737 LINE",
"174 737 LINE",
"11 0 LINE"
);
},
{
closed = 1;
nodes = (
"399 568 LINE",
"441 568 LINE",
"485.049 290 LINE",
"354.951 290 LINE"
);
},
{
closed = 1;
nodes = (
"387 789 LINE",
"387 947 LINE",
"148 947 LINE",
"148 789 LINE"
);
},
{
closed = 1;
nodes = (
"694 789 LINE",
"694 947 LINE",
"455 947 LINE",
"455 789 LINE"
);
}
);
width = 840;
}
);
leftKerningGroup = A;
rightKerningGroup = A;
unicode = 00C4;
},
{
glyphname = Adotbelow;
lastChange = "2019-09-09 11:34:22 +0000";
layers = (
{
layerId = "2BED5241-FEE2-452B-8B42-4A46EDD0955E";
paths = (
{
closed = 1;
nodes = (
"309 0 LINE",
"326.271 109 LINE",
"513.729 109 LINE",
"531 0 LINE",
"829 0 LINE",
"667 737 LINE",
"174 737 LINE",
"11 0 LINE"
);
},
{
closed = 1;
nodes = (
"551.5 -209.013 LINE",
"551.5 -51.013 LINE",
"288.5 -51.013 LINE",
"288.5 -209.013 LINE"
);
},
{
closed = 1;
nodes = (
"399 568 LINE",
"441 568 LINE",
"485.049 290 LINE",
"354.951 290 LINE"
);
}
);
width = 840;
}
);
leftKerningGroup = A;
rightKerningGroup = A;
unicode = 1EA0;
},
{
glyphname = Agrave;
lastChange = "2019-09-09 11:34:22 +0000";
layers = (
{
layerId = "2BED5241-FEE2-452B-8B42-4A46EDD0955E";
paths = (
{
closed = 1;
nodes = (
"309 0 LINE",
"326.271 109 LINE",
"513.729 109 LINE",
"531 0 LINE",
"829 0 LINE",
"667 737 LINE",
"174 737 LINE",
"11 0 LINE"
);
},
{
closed = 1;
nodes = (
"399 568 LINE",
"441 568 LINE",
"485.049 290 LINE",
"354.951 290 LINE"
);
},
{
closed = 1;
nodes = (
"510 789 LINE",
"401 952 LINE",
"176 952 LINE",
"338 789 LINE"
);
}
);
width = 840;
}
);
leftKerningGroup = A;
rightKerningGroup = A;
unicode = 00C0;
},
{
glyphname = Ahookabove;
lastChange = "2019-09-09 11:34:22 +0000";
layers = (
{
layerId = "2BED5241-FEE2-452B-8B42-4A46EDD0955E";
paths = (
{
closed = 1;
nodes = (
"309 0 LINE",
"326.271 109 LINE",
"513.729 109 LINE",
"531 0 LINE",
"829 0 LINE",
"667 737 LINE",
"174 737 LINE",
"11 0 LINE"
);
},
{
closed = 1;
nodes = (
"399 568 LINE",
"441 568 LINE",
"485.049 290 LINE",
"354.951 290 LINE"
);
},
{
closed = 1;
nodes = (
"500 789 LINE",
"500 828 LINE",
"542 828 LINE",
"590 866 LINE",
"590 985 LINE",
"541 1027 LINE",
"318 1027 LINE",
"263 985 LINE",
"263 920 LINE",
"408 920 LINE",
"408 961 LINE",
"440 961 LINE",
"440 895 LINE",
"381 895 LINE",
"342 866 LINE",
"342 789 LINE"
);
}
);
width = 840;
}
);
leftKerningGroup = A;
rightKerningGroup = A;
unicode = 1EA2;
},
{
glyphname = Ainvertedbreve;
lastChange = "2019-09-09 11:34:22 +0000";
layers = (
{
layerId = "2BED5241-FEE2-452B-8B42-4A46EDD0955E";
paths = (
{
closed = 1;
nodes = (
"309 0 LINE",
"326.271 109 LINE",
"513.729 109 LINE",
"531 0 LINE",
"829 0 LINE",
"667 737 LINE",
"174 737 LINE",
"11 0 LINE"
);
},
{
closed = 1;
nodes = (
"399 568 LINE",
"441 568 LINE",
"485.049 290 LINE",
"354.951 290 LINE"
);
},
{
closed = 1;
nodes = (
"370 789 LINE",
"370 841 LINE",
"472 841 LINE",
"472 789 LINE",
"663 789 LINE",
"663 864 LINE",
"560 952 LINE",
"282 952 LINE",
"179 864 LINE",
"179 789 LINE"
);
}
);
width = 840;
}
);
leftKerningGroup = A;
rightKerningGroup = A;
unicode = 0202;
},
{
glyphname = Amacron;
lastChange = "2019-09-09 11:34:22 +0000";
layers = (
{
layerId = "2BED5241-FEE2-452B-8B42-4A46EDD0955E";
paths = (
{
closed = 1;
nodes = (
"309 0 LINE",
"326.271 109 LINE",
"513.729 109 LINE",
"531 0 LINE",
"829 0 LINE",
"667 737 LINE",
"174 737 LINE",
"11 0 LINE"
);
},
{
closed = 1;
nodes = (
"399 568 LINE",
"441 568 LINE",
"485.049 290 LINE",
"354.951 290 LINE"
);
},
{
closed = 1;
nodes = (
"694 789 LINE",
"694 938 LINE",
"148 938 LINE",
"148 789 LINE"
);
}
);
width = 840;
}
);
leftKerningGroup = A;
rightKerningGroup = A;
unicode = 0100;
},
{
glyphname = Aogonek;
lastChange = "2019-09-09 11:34:22 +0000";
layers = (
{
layerId = "2BED5241-FEE2-452B-8B42-4A46EDD0955E";
paths = (
{
closed = 1;
nodes = (
"660 -191 LINE",
"660 -64 LINE",
"637 -64 LINE",
"621 -50 LINE",
"621 -26 LINE",
"651 0 LINE",
"829 0 LINE",
"667 737 LINE",
"174 737 LINE",
"11 0 LINE",
"309 0 LINE",
"326.271 109 LINE",
"513.729 109 LINE",
"531 0 LINE",
"486 -33 LINE",
"486 -122 LINE",
"569 -191 LINE"
);
},
{
closed = 1;
nodes = (
"399 568 LINE",
"441 568 LINE",
"485.049 290 LINE",
"354.951 290 LINE"
);
}
);
width = 840;
}
);
leftKerningGroup = A;
leftMetricsKey = A;
rightKerningGroup = A;
rightMetricsKey = A;
unicode = 0104;
},
{
glyphname = Aring;
lastChange = "2019-09-09 11:34:22 +0000";
layers = (
{
layerId = "2BED5241-FEE2-452B-8B42-4A46EDD0955E";
paths = (
{
closed = 1;
nodes = (
"309 0 LINE",
"326.271 109 LINE",
"513.729 109 LINE",
"531 0 LINE",
"829 0 LINE",
"667 737 LINE",
"174 737 LINE",
"11 0 LINE"
);
},
{
closed = 1;
nodes = (
"399 568 LINE",
"441 568 LINE",
"485.049 290 LINE",
"354.951 290 LINE"
);
},
{
closed = 1;
nodes = (
"483.5 789 LINE",
"559.5 865 LINE",
"559.5 953 LINE",
"483.5 1029 LINE",
"358.5 1029 LINE",
"282.5 953 LINE",
"282.5 865 LINE",
"358.5 789 LINE"
);
},
{
closed = 1;
nodes = (
"398 900 LINE",
"398 917 LINE",
"412 932 LINE",
"429 932 LINE",
"444 917 LINE",
"444 900 LINE",
"429 886 LINE",
"412 886 LINE"
);
}
);
width = 840;
}
);
leftKerningGroup = A;
rightKerningGroup = A;
unicode = 00C5;
},
{
glyphname = Aringacute;
lastChange = "2019-09-09 11:34:22 +0000";
layers = (
{
layerId = "2BED5241-FEE2-452B-8B42-4A46EDD0955E";
paths = (
{
closed = 1;
nodes = (
"309 0 LINE",
"326.271 109 LINE",
"513.729 109 LINE",
"531 0 LINE",
"829 0 LINE",
"667 737 LINE",
"174 737 LINE",
"11 0 LINE"
);
},
{
closed = 1;
nodes = (
"399 568 LINE",
"441 568 LINE",
"485.049 290 LINE",
"354.951 290 LINE"
);
},
{
closed = 1;
nodes = (
"483.5 789 LINE",
"559.5 865 LINE",
"559.5 953 LINE",
"483.5 1029 LINE",
"358.5 1029 LINE",
"282.5 953 LINE",
"282.5 865 LINE",
"358.5 789 LINE"
);
},
{
closed = 1;
nodes = (
"398 900 LINE",
"398 917 LINE",
"412 932 LINE",
"429 932 LINE",
"444 917 LINE",
"444 900 LINE",
"429 886 LINE",
"412 886 LINE"
);
},
{
closed = 1;
nodes = (
"513.828 1061.062 LINE",
"675.828 1224.062 LINE",
"450.828 1224.062 LINE",
"341.828 1061.062 LINE"
);
}
);
width = 840;
}
);
leftKerningGroup = A;
rightKerningGroup = A;
unicode = 01FA;
},
{
glyphname = Atilde;
lastChange = "2019-09-09 11:34:22 +0000";
layers = (
{
layerId = "2BED5241-FEE2-452B-8B42-4A46EDD0955E";
paths = (
{
closed = 1;
nodes = (
"309 0 LINE",
"326.271 109 LINE",
"513.729 109 LINE",
"531 0 LINE",
"829 0 LINE",
"667 737 LINE",
"174 737 LINE",
"11 0 LINE"
);
},
{
closed = 1;
nodes = (
"399 568 LINE",
"441 568 LINE",
"485.049 290 LINE",
"354.951 290 LINE"
);
},
{
closed = 1;
nodes = (
"591 789 LINE",
"675 861 LINE",
"675 950 LINE",
"528 950 LINE",
"528 917 LINE",
"512 902 LINE",
"494 902 LINE",
"445 957 LINE",
"252 957 LINE",
"169 883 LINE",
"169 795 LINE",
"316 795 LINE",
"316 827 LINE",
"332 843 LINE",
"349 843 LINE",
"399 789 LINE"
);
}
);
width = 840;
}
);
leftKerningGroup = A;
rightKerningGroup = A;
unicode = 00C3;
},
{
glyphname = AE;
lastChange = "2019-09-09 11:34:22 +0000";
layers = (
{
layerId = "2BED5241-FEE2-452B-8B42-4A46EDD0955E";
paths = (
{
closed = 1;
nodes = (
"309 0 LINE",
"326.271 109 LINE",
"513.729 109 LINE",
"531 0 LINE",
"1128 0 LINE",
"1128 197 LINE",
"785.697 197 LINE",
"765.475 289 LINE",
"1085 289 LINE",
"1085 448 LINE",
"730.525 448 LINE",
"710.303 540 LINE",
"1128 540 LINE",
"1128 737 LINE",
"174 737 LINE",
"11 0 LINE"
);
},
{
closed = 1;
nodes = (
"399 568 LINE",
"441 568 LINE",
"485.049 290 LINE",
"354.951 290 LINE"
);
}
);
width = 1172;
}
);
leftKerningGroup = A;
leftMetricsKey = A;
rightKerningGroup = E;
rightMetricsKey = E;
unicode = 00C6;
},
{
glyphname = AEacute;
lastChange = "2019-09-09 11:34:22 +0000";
layers = (
{
guideLines = (
{
angle = 90;
position = "{513, 309}";
}
);
layerId = "2BED5241-FEE2-452B-8B42-4A46EDD0955E";
paths = (
{
closed = 1;
nodes = (
"309 0 LINE",
"326.271 109 LINE",
"513.729 109 LINE",
"531 0 LINE",
"1128 0 LINE",
"1128 197 LINE",
"785.697 197 LINE",
"765.475 289 LINE",
"1085 289 LINE",
"1085 448 LINE",
"730.525 448 LINE",
"710.303 540 LINE",
"1128 540 LINE",
"1128 737 LINE",
"174 737 LINE",
"11 0 LINE"
);
},
{
closed = 1;
nodes = (
"399 568 LINE",
"441 568 LINE",
"485.049 290 LINE",
"354.951 290 LINE"
);
},
{
closed = 1;
nodes = (
"535 789 LINE",
"697 952 LINE",
"472 952 LINE",
"363 789 LINE"
);
}
);
width = 1172;
}
);
leftKerningGroup = A;
rightKerningGroup = E;
unicode = 01FC;
},
{
glyphname = B;
lastChange = "2019-09-03 21:20:28 +0000";
layers = (
{
layerId = "2BED5241-FEE2-452B-8B42-4A46EDD0955E";
paths = (
{
closed = 1;
nodes = (
"659.5 0 LINE",
"770.5 95 LINE",
"770.5 331 LINE",
"691.5 397 LINE",
"747.5 444 LINE",
"747.5 642 LINE",
"636.5 737 LINE",
"50 737 LINE",
"50 0 LINE"
);
},
{
closed = 1;
nodes = (
"334.9 309 LINE",
"485.5 309 LINE",
"485.5 153 LINE",
"334.9 153 LINE"
);
},
{
closed = 1;
nodes = (
"334.9 584 LINE",
"478.5 584 LINE",
"478.5 462 LINE",
"334.9 462 LINE"
);
}
);
width = 809.5;
}
);
leftKerningGroup = H;
leftMetricsKey = H;
rightKerningGroup = B;
rightMetricsKey = O;
unicode = 0042;
},
{
glyphname = C;
lastChange = "2019-09-09 11:34:22 +0000";
layers = (
{
layerId = "2BED5241-FEE2-452B-8B42-4A46EDD0955E";
paths = (
{
closed = 1;
nodes = (
"639 0 LINE",
"750 95 LINE",
"750 312 LINE",
"457 312 LINE",
"457 153 LINE",
"324 153 LINE",
"324 584 LINE",
"455 584 LINE",
"455 428 LINE",
"747 428 LINE",
"747 642 LINE",
"636 737 LINE",
"150 737 LINE",
"39 642 LINE",
"39 95 LINE",
"150 0 LINE"
);
}
);
width = 789;
}
);
leftKerningGroup = O;
leftMetricsKey = O;
rightKerningGroup = C;
rightMetricsKey = O;
unicode = 0043;
},
{
glyphname = Cacute;
lastChange = "2019-09-09 11:34:22 +0000";
layers = (
{
layerId = "2BED5241-FEE2-452B-8B42-4A46EDD0955E";
paths = (
{
closed = 1;
nodes = (
"639 0 LINE",
"750 95 LINE",
"750 312 LINE",
"457 312 LINE",
"457 153 LINE",
"324 153 LINE",
"324 584 LINE",
"455 584 LINE",
"455 428 LINE",
"747 428 LINE",
"747 642 LINE",
"636 737 LINE",
"150 737 LINE",
"39 642 LINE",
"39 95 LINE",
"150 0 LINE"
);
},
{
closed = 1;
nodes = (
"478 789 LINE",
"640 952 LINE",
"415 952 LINE",
"306 789 LINE"
);
}
);
width = 789;
}
);
leftKerningGroup = O;
rightKerningGroup = C;
unicode = 0106;
},
{
glyphname = Ccaron;
lastChange = "2019-10-06 17:57:05 +0000";
layers = (
{
layerId = "2BED5241-FEE2-452B-8B42-4A46EDD0955E";
paths = (
{
closed = 1;
nodes = (
"639 0 LINE",
"750 95 LINE",
"750 312 LINE",
"457 312 LINE",
"457 153 LINE",
"324 153 LINE",
"324 584 LINE",
"455 584 LINE",
"455 428 LINE",
"747 428 LINE",
"747 642 LINE",
"636 737 LINE",
"150 737 LINE",
"39 642 LINE",
"39 95 LINE",
"150 0 LINE"
);
},
{
closed = 1;
nodes = (
"534 789 LINE",
"657 952 LINE",
"470 952 LINE",
"394 876 LINE",
"318 952 LINE",
"131 952 LINE",
"254 789 LINE"
);
}
);
width = 789;
}
);
leftKerningGroup = O;
rightKerningGroup = C;
unicode = 010C;
},
{
glyphname = Ccedilla;
lastChange = "2019-09-09 11:34:22 +0000";
layers = (
{
layerId = "2BED5241-FEE2-452B-8B42-4A46EDD0955E";
paths = (
{
closed = 1;
nodes = (
"432 -125 LINE",
"495 0 LINE",
"639 0 LINE",
"750 95 LINE",
"750 312 LINE",
"457 312 LINE",
"457 153 LINE",
"324 153 LINE",
"324 584 LINE",
"455 584 LINE",
"455 428 LINE",
"747 428 LINE",
"747 642 LINE",
"636 737 LINE",
"150 737 LINE",
"39 642 LINE",
"39 95 LINE",
"150 0 LINE",
"288 0 LINE",
"268 -125 LINE"
);
}
);
width = 789;
}
);
leftKerningGroup = O;
rightKerningGroup = C;
unicode = 00C7;
},
{
glyphname = Ccircumflex;
lastChange = "2019-09-09 11:34:22 +0000";
layers = (
{
layerId = "2BED5241-FEE2-452B-8B42-4A46EDD0955E";
paths = (
{
closed = 1;
nodes = (
"639 0 LINE",
"750 95 LINE",
"750 312 LINE",
"457 312 LINE",
"457 153 LINE",
"324 153 LINE",
"324 584 LINE",
"455 584 LINE",
"455 428 LINE",
"747 428 LINE",
"747 642 LINE",
"636 737 LINE",
"150 737 LINE",
"39 642 LINE",
"39 95 LINE",
"150 0 LINE"
);
},
{
closed = 1;
nodes = (
"318 789 LINE",
"394 865 LINE",
"470 789 LINE",
"657 789 LINE",
"534 952 LINE",
"254 952 LINE",
"131 789 LINE"
);
}
);
width = 789;
}
);
leftKerningGroup = O;
rightKerningGroup = C;
unicode = 0108;
},
{
glyphname = Cdotaccent;
lastChange = "2019-09-09 11:34:22 +0000";
layers = (
{
layerId = "2BED5241-FEE2-452B-8B42-4A46EDD0955E";
paths = (
{
closed = 1;
nodes = (
"639 0 LINE",
"750 95 LINE",
"750 312 LINE",
"457 312 LINE",
"457 153 LINE",
"324 153 LINE",
"324 584 LINE",
"455 584 LINE",
"455 428 LINE",
"747 428 LINE",
"747 642 LINE",
"636 737 LINE",
"150 737 LINE",
"39 642 LINE",
"39 95 LINE",
"150 0 LINE"
);
},
{
closed = 1;
nodes = (
"525.5 789 LINE",
"525.5 947 LINE",
"262.5 947 LINE",
"262.5 789 LINE"
);
}
);
width = 789;
}
);
leftKerningGroup = O;
rightKerningGroup = C;
unicode = 010A;
},
{
glyphname = D;
lastChange = "2019-09-09 11:34:22 +0000";
layers = (
{
layerId = "2BED5241-FEE2-452B-8B42-4A46EDD0955E";
paths = (
{
closed = 1;
nodes = (
"607.5 0 LINE",
"773.5 150 LINE",
"773.5 586 LINE",
"607.5 737 LINE",
"50 737 LINE",
"50 0 LINE"
);
},
{
closed = 1;
nodes = (
"334.9 584 LINE",
"488.5 584 LINE",
"488.5 153 LINE",
"334.9 153 LINE"
);
}
);
width = 812.5;
}
);
leftKerningGroup = H;
leftMetricsKey = H;
rightKerningGroup = D;
rightMetricsKey = O;
unicode = 0044;
},
{
glyphname = DZcaron;
lastChange = "2019-10-06 17:57:19 +0000";
layers = (
{
layerId = "2BED5241-FEE2-452B-8B42-4A46EDD0955E";
paths = (
{
closed = 1;
nodes = (
"607.5 0 LINE",
"773.5 150 LINE",
"773.5 586 LINE",
"607.5 737 LINE",
"50 737 LINE",
"50 0 LINE"
);
},
{
closed = 1;
nodes = (
"334.9 584 LINE",
"488.5 584 LINE",
"488.5 153 LINE",
"334.9 153 LINE"
);
},
{
closed = 1;
nodes = (
"1480.5 0 LINE",
"1480.5 197 LINE",
"1154.5 197 LINE",
"1480.5 529 LINE",
"1480.5 737 LINE",
"854.5 737 LINE",
"854.5 540 LINE",
"1168.5 540 LINE",
"839.5 208 LINE",
"839.5 0 LINE"
);
},
{
closed = 1;
nodes = (
"1316.5 789 LINE",
"1439.5 952 LINE",
"1252.5 952 LINE",
"1176.5 876 LINE",
"1100.5 952 LINE",
"913.5 952 LINE",
"1036.5 789 LINE"
);
}
);
width = 1513.5;
}
);
unicode = 01C4;
},
{
glyphname = Eth;
lastChange = "2019-09-09 11:34:22 +0000";
layers = (
{
layerId = "2BED5241-FEE2-452B-8B42-4A46EDD0955E";
paths = (
{
closed = 1;
nodes = (
"607.5 0 LINE",
"773.5 150 LINE",
"773.5 586 LINE",
"607.5 737 LINE",
"50 737 LINE",
"50 443 LINE",
"-4.5 443 LINE",
"-4.5 305 LINE",
"50 305 LINE",
"50 0 LINE"
);
},
{
closed = 1;
nodes = (
"334.9 305 LINE",
"414.5 305 LINE",
"414.5 443 LINE",
"334.9 443 LINE",
"334.9 584 LINE",
"488.5 584 LINE",
"488.5 153 LINE",
"334.9 153 LINE"
);
}
);
width = 811;
}
);
rightKerningGroup = D;
unicode = 00D0;
},
{
glyphname = Dcaron;
lastChange = "2019-10-06 17:57:24 +0000";
layers = (
{
layerId = "2BED5241-FEE2-452B-8B42-4A46EDD0955E";
paths = (
{
closed = 1;
nodes = (
"607.5 0 LINE",
"773.5 150 LINE",
"773.5 586 LINE",
"607.5 737 LINE",
"50 737 LINE",
"50 0 LINE"
);
},
{
closed = 1;
nodes = (
"334.9 584 LINE",
"488.5 584 LINE",
"488.5 153 LINE",
"334.9 153 LINE"
);
},
{
closed = 1;
nodes = (
"523.5 789 LINE",
"646.5 952 LINE",
"459.5 952 LINE",
"383.5 876 LINE",
"307.5 952 LINE",
"120.5 952 LINE",
"243.5 789 LINE"
);
}
);
width = 812.5;
}
);
rightKerningGroup = D;
unicode = 010E;
},
{
glyphname = Dcroat;
lastChange = "2019-09-09 11:34:22 +0000";
layers = (
{
layerId = "2BED5241-FEE2-452B-8B42-4A46EDD0955E";
paths = (
{
closed = 1;
nodes = (
"607.5 0 LINE",
"773.5 150 LINE",
"773.5 586 LINE",
"607.5 737 LINE",
"50 737 LINE",
"50 443 LINE",
"-4.5 443 LINE",
"-4.5 305 LINE",
"50 305 LINE",
"50 0 LINE"
);
},
{
closed = 1;
nodes = (
"334.9 305 LINE",
"414.5 305 LINE",
"414.5 443 LINE",
"334.9 443 LINE",
"334.9 584 LINE",
"488.5 584 LINE",
"488.5 153 LINE",
"334.9 153 LINE"
);
}
);
width = 811;
}
);
rightKerningGroup = D;
unicode = 0110;
},
{
glyphname = Dzcaron;
lastChange = "2019-10-06 17:57:30 +0000";
layers = (
{
layerId = "2BED5241-FEE2-452B-8B42-4A46EDD0955E";
paths = (
{
closed = 1;
nodes = (
"607.5 0 LINE",
"773.5 150 LINE",
"773.5 586 LINE",
"607.5 737 LINE",
"50 737 LINE",
"50 0 LINE"
);
},
{
closed = 1;
nodes = (
"334.9 584 LINE",
"488.5 584 LINE",
"488.5 153 LINE",
"334.9 153 LINE"
);
},
{
closed = 1;
nodes = (
"1408.5 0 LINE",
"1408.5 136 LINE",
"1155.373 136 LINE",
"1398.5 376 LINE",
"1398.5 523 LINE",
"869.5 523 LINE",
"869.5 386 LINE",
"1092.065 386 LINE",
"845.5 141 LINE",
"845.5 0 LINE"
);
},
{
closed = 1;
nodes = (
"1272.5 574 LINE",
"1395.5 737 LINE",
"1208.5 737 LINE",
"1132.5 661 LINE",
"1056.5 737 LINE",
"869.5 737 LINE",
"992.5 574 LINE"
);
}
);
width = 1441.5;
}
);
unicode = 01C5;
},
{
glyphname = E;
lastChange = "2019-09-09 11:34:22 +0000";
layers = (
{
layerId = "2BED5241-FEE2-452B-8B42-4A46EDD0955E";
paths = (
{
closed = 1;
nodes = (
"692.5 0 LINE",
"692.5 197 LINE",
"334.9 197 LINE",
"334.9 289 LINE",
"650.5 289 LINE",
"650.5 448 LINE",
"334.9 448 LINE",
"334.9 540 LINE",
"692.5 540 LINE",
"692.5 737 LINE",
"50 737 LINE",
"50 0 LINE"
);
}
);
width = 736.5;
}
);
leftKerningGroup = H;
leftMetricsKey = H;
rightKerningGroup = E;
unicode = 0045;
},
{
glyphname = Eacute;
lastChange = "2019-09-09 11:34:22 +0000";
layers = (
{
layerId = "2BED5241-FEE2-452B-8B42-4A46EDD0955E";
paths = (
{
closed = 1;
nodes = (
"692.5 0 LINE",
"692.5 197 LINE",
"334.9 197 LINE",
"334.9 289 LINE",
"650.5 289 LINE",
"650.5 448 LINE",
"334.9 448 LINE",
"334.9 540 LINE",
"692.5 540 LINE",
"692.5 737 LINE",
"50 737 LINE",
"50 0 LINE"
);
},
{
closed = 1;
nodes = (
"465.5 789 LINE",
"627.5 952 LINE",
"402.5 952 LINE",
"293.5 789 LINE"
);
}
);
width = 736.5;
}
);
leftKerningGroup = H;
rightKerningGroup = E;
unicode = 00C9;
},
{
glyphname = Ebreve;
lastChange = "2019-09-09 11:34:22 +0000";
layers = (
{
layerId = "2BED5241-FEE2-452B-8B42-4A46EDD0955E";
paths = (
{
closed = 1;
nodes = (
"692.5 0 LINE",
"692.5 197 LINE",
"334.9 197 LINE",
"334.9 289 LINE",
"650.5 289 LINE",
"650.5 448 LINE",
"334.9 448 LINE",
"334.9 540 LINE",
"692.5 540 LINE",
"692.5 737 LINE",
"50 737 LINE",
"50 0 LINE"
);
},
{
closed = 1;
nodes = (
"520.5 789 LINE",
"623.5 877 LINE",
"623.5 952 LINE",
"432.5 952 LINE",
"432.5 900 LINE",
"330.5 900 LINE",
"330.5 952 LINE",
"139.5 952 LINE",
"139.5 877 LINE",
"242.5 789 LINE"
);
}
);
width = 736.5;
}
);
leftKerningGroup = H;
rightKerningGroup = E;
unicode = 0114;
},
{
glyphname = Ecaron;
lastChange = "2019-10-06 17:57:56 +0000";
layers = (
{
layerId = "2BED5241-FEE2-452B-8B42-4A46EDD0955E";
paths = (
{
closed = 1;
nodes = (
"692.5 0 LINE",
"692.5 197 LINE",
"334.9 197 LINE",
"334.9 289 LINE",
"650.5 289 LINE",
"650.5 448 LINE",
"334.9 448 LINE",
"334.9 540 LINE",
"692.5 540 LINE",
"692.5 737 LINE",
"50 737 LINE",
"50 0 LINE"
);
},
{
closed = 1;
nodes = (
"521.5 789 LINE",
"644.5 952 LINE",
"457.5 952 LINE",
"381.5 876 LINE",
"305.5 952 LINE",
"118.5 952 LINE",
"241.5 789 LINE"
);
}
);
width = 736.5;
}
);
leftKerningGroup = H;
rightKerningGroup = E;
unicode = 011A;
},
{
glyphname = Ecircumflex;
lastChange = "2019-09-09 11:34:22 +0000";
layers = (
{
layerId = "2BED5241-FEE2-452B-8B42-4A46EDD0955E";
paths = (
{
closed = 1;
nodes = (
"692.5 0 LINE",
"692.5 197 LINE",
"334.9 197 LINE",
"334.9 289 LINE",
"650.5 289 LINE",
"650.5 448 LINE",
"334.9 448 LINE",
"334.9 540 LINE",
"692.5 540 LINE",
"692.5 737 LINE",
"50 737 LINE",
"50 0 LINE"
);
},
{
closed = 1;
nodes = (
"305.5 789 LINE",
"381.5 865 LINE",
"457.5 789 LINE",
"644.5 789 LINE",
"521.5 952 LINE",
"241.5 952 LINE",
"118.5 789 LINE"
);
}
);
width = 736.5;
}
);
leftKerningGroup = H;
rightKerningGroup = E;
unicode = 00CA;
},
{
glyphname = Ecircumflexacute;
lastChange = "2019-09-09 11:34:22 +0000";
layers = (
{
layerId = "2BED5241-FEE2-452B-8B42-4A46EDD0955E";
paths = (
{
closed = 1;
nodes = (
"692.5 0 LINE",
"692.5 197 LINE",
"334.9 197 LINE",
"334.9 289 LINE",
"650.5 289 LINE",
"650.5 448 LINE",
"334.9 448 LINE",
"334.9 540 LINE",
"692.5 540 LINE",
"692.5 737 LINE",
"50 737 LINE",
"50 0 LINE"
);
},
{
closed = 1;
nodes = (
"305.5 789 LINE",
"381.5 865 LINE",
"457.5 789 LINE",
"644.5 789 LINE",
"521.5 952 LINE",
"241.5 952 LINE",
"118.5 789 LINE"
);
},
{
closed = 1;
nodes = (
"798.5 876.53 LINE",
"960.5 1039.53 LINE",
"735.5 1039.53 LINE",
"626.5 876.53 LINE"
);
}
);
width = 736.5;
}
);
leftKerningGroup = H;
rightKerningGroup = E;
unicode = 1EBE;
},
{
glyphname = Ecircumflexdotbelow;
lastChange = "2019-09-09 11:34:22 +0000";
layers = (
{
layerId = "2BED5241-FEE2-452B-8B42-4A46EDD0955E";
paths = (
{
closed = 1;
nodes = (
"692.5 0 LINE",
"692.5 197 LINE",
"334.9 197 LINE",
"334.9 289 LINE",
"650.5 289 LINE",
"650.5 448 LINE",
"334.9 448 LINE",
"334.9 540 LINE",
"692.5 540 LINE",
"692.5 737 LINE",
"50 737 LINE",
"50 0 LINE"
);
},
{
closed = 1;
nodes = (
"497 -209.013 LINE",
"497 -51.013 LINE",
"234 -51.013 LINE",
"234 -209.013 LINE"
);
},
{
closed = 1;
nodes = (
"305.5 789 LINE",
"381.5 865 LINE",
"457.5 789 LINE",
"644.5 789 LINE",
"521.5 952 LINE",
"241.5 952 LINE",
"118.5 789 LINE"
);
}
);
width = 736.5;
}
);
leftKerningGroup = H;
rightKerningGroup = E;
unicode = 1EC6;
},
{
glyphname = Ecircumflexgrave;
lastChange = "2019-09-09 11:34:22 +0000";
layers = (
{
layerId = "2BED5241-FEE2-452B-8B42-4A46EDD0955E";
paths = (
{
closed = 1;
nodes = (
"692.5 0 LINE",
"692.5 197 LINE",
"334.9 197 LINE",
"334.9 289 LINE",
"650.5 289 LINE",
"650.5 448 LINE",
"334.9 448 LINE",
"334.9 540 LINE",
"692.5 540 LINE",
"692.5 737 LINE",
"50 737 LINE",
"50 0 LINE"
);
},
{
closed = 1;
nodes = (
"136 876.53 LINE",
"27 1039.53 LINE",
"-198 1039.53 LINE",
"-36 876.53 LINE"
);
},
{
closed = 1;
nodes = (
"305 789 LINE",
"381 865 LINE",
"457 789 LINE",
"644 789 LINE",
"521 952 LINE",
"241 952 LINE",
"118 789 LINE"
);
}
);
width = 736;
}
);
leftKerningGroup = H;
rightKerningGroup = E;
unicode = 1EC0;
},
{
glyphname = Ecircumflexhookabove;
lastChange = "2019-09-09 11:34:22 +0000";
layers = (
{
layerId = "2BED5241-FEE2-452B-8B42-4A46EDD0955E";
paths = (
{
closed = 1;
nodes = (
"692.5 0 LINE",
"692.5 197 LINE",
"334.9 197 LINE",
"334.9 289 LINE",
"650.5 289 LINE",
"650.5 448 LINE",
"334.9 448 LINE",
"334.9 540 LINE",
"692.5 540 LINE",
"692.5 737 LINE",
"50 737 LINE",
"50 0 LINE"
);
},
{
closed = 1;
nodes = (
"305.5 789 LINE",
"381.5 865 LINE",
"457.5 789 LINE",
"644.5 789 LINE",
"521.5 952 LINE",
"241.5 952 LINE",
"118.5 789 LINE"
);
},
{
closed = 1;
nodes = (
"784.5 876.653 LINE",
"784.5 915.653 LINE",
"826.5 915.653 LINE",
"874.5 953.653 LINE",
"874.5 1072.653 LINE",
"825.5 1114.653 LINE",
"602.5 1114.653 LINE",
"547.5 1072.653 LINE",
"547.5 1007.653 LINE",
"692.5 1007.653 LINE",
"692.5 1048.653 LINE",
"724.5 1048.653 LINE",
"724.5 982.653 LINE",
"665.5 982.653 LINE",
"626.5 953.653 LINE",
"626.5 876.653 LINE"
);
}
);
width = 736.5;
}
);
leftKerningGroup = H;
rightKerningGroup = E;
unicode = 1EC2;
},
{
glyphname = Ecircumflextilde;
lastChange = "2019-09-09 11:34:22 +0000";
layers = (
{
layerId = "2BED5241-FEE2-452B-8B42-4A46EDD0955E";
paths = (
{
closed = 1;
nodes = (
"692.5 0 LINE",
"692.5 197 LINE",
"334.9 197 LINE",
"334.9 289 LINE",
"650.5 289 LINE",
"650.5 448 LINE",
"334.9 448 LINE",
"334.9 540 LINE",
"692.5 540 LINE",
"692.5 737 LINE",
"50 737 LINE",
"50 0 LINE"
);
},
{
closed = 1;
nodes = (
"305.5 789 LINE",
"381.5 865 LINE",
"457.5 789 LINE",
"644.5 789 LINE",
"521.5 952 LINE",
"241.5 952 LINE",
"118.5 789 LINE"
);
},
{
closed = 1;
nodes = (
"555.5 983 LINE",
"639.5 1055 LINE",
"639.5 1144 LINE",
"492.5 1144 LINE",
"492.5 1111 LINE",
"476.5 1096 LINE",
"458.5 1096 LINE",
"409.5 1151 LINE",
"216.5 1151 LINE",
"133.5 1077 LINE",
"133.5 989 LINE",
"280.5 989 LINE",
"280.5 1021 LINE",
"296.5 1037 LINE",
"313.5 1037 LINE",
"363.5 983 LINE"
);
}
);
width = 736.5;
}
);
leftKerningGroup = H;
rightKerningGroup = E;
unicode = 1EC4;
},
{
glyphname = Edblgrave;
lastChange = "2019-09-09 11:34:22 +0000";
layers = (
{
layerId = "2BED5241-FEE2-452B-8B42-4A46EDD0955E";
paths = (
{
closed = 1;
nodes = (
"692 0 LINE",
"692 197 LINE",
"334.4 197 LINE",
"334.4 289 LINE",
"650 289 LINE",
"650 448 LINE",
"334.4 448 LINE",
"334.4 540 LINE",
"692 540 LINE",
"692 737 LINE",
"49.5 737 LINE",
"49.5 0 LINE"
);
},
{
closed = 1;
nodes = (
"315 789 LINE",
"207 952 LINE",
"-8 952 LINE",
"155 789 LINE"
);
},
{
closed = 1;
nodes = (
"592 789 LINE",
"483 952 LINE",
"268 952 LINE",
"431 789 LINE"
);
}
);
width = 736;
}
);
leftKerningGroup = H;
rightKerningGroup = E;
unicode = 0204;
},
{
glyphname = Edieresis;
lastChange = "2019-09-09 11:34:22 +0000";
layers = (
{
layerId = "2BED5241-FEE2-452B-8B42-4A46EDD0955E";
paths = (
{
closed = 1;
nodes = (
"692.5 0 LINE",
"692.5 197 LINE",
"334.9 197 LINE",
"334.9 289 LINE",
"650.5 289 LINE",
"650.5 448 LINE",
"334.9 448 LINE",
"334.9 540 LINE",
"692.5 540 LINE",
"692.5 737 LINE",
"50 737 LINE",
"50 0 LINE"
);
},
{
closed = 1;
nodes = (
"337.25 789 LINE",
"337.25 947 LINE",
"98.25 947 LINE",
"98.25 789 LINE"
);
},
{
closed = 1;
nodes = (
"644.25 789 LINE",
"644.25 947 LINE",
"405.25 947 LINE",
"405.25 789 LINE"
);
}
);
width = 736.5;
}
);
leftKerningGroup = H;
rightKerningGroup = E;
unicode = 00CB;
},
{
glyphname = Edotaccent;
lastChange = "2019-09-09 11:34:22 +0000";
layers = (
{
layerId = "2BED5241-FEE2-452B-8B42-4A46EDD0955E";
paths = (
{
closed = 1;
nodes = (
"692.5 0 LINE",
"692.5 197 LINE",
"334.9 197 LINE",
"334.9 289 LINE",
"650.5 289 LINE",
"650.5 448 LINE",
"334.9 448 LINE",
"334.9 540 LINE",
"692.5 540 LINE",
"692.5 737 LINE",
"50 737 LINE",
"50 0 LINE"
);
},
{
closed = 1;
nodes = (
"513 789 LINE",
"513 947 LINE",
"250 947 LINE",
"250 789 LINE"
);
}
);
width = 736.5;
}
);
leftKerningGroup = H;
rightKerningGroup = E;
unicode = 0116;
},
{
glyphname = Edotbelow;
lastChange = "2019-09-09 11:34:22 +0000";
layers = (
{
layerId = "2BED5241-FEE2-452B-8B42-4A46EDD0955E";
paths = (
{
closed = 1;
nodes = (
"692.5 0 LINE",
"692.5 197 LINE",
"334.9 197 LINE",
"334.9 289 LINE",
"650.5 289 LINE",
"650.5 448 LINE",
"334.9 448 LINE",
"334.9 540 LINE",
"692.5 540 LINE",
"692.5 737 LINE",
"50 737 LINE",
"50 0 LINE"
);
},
{
closed = 1;
nodes = (
"497 -209.013 LINE",
"497 -51.013 LINE",
"234 -51.013 LINE",
"234 -209.013 LINE"
);
}
);
width = 736.5;
}
);
leftKerningGroup = H;
rightKerningGroup = E;
unicode = 1EB8;
},
{
glyphname = Egrave;
lastChange = "2019-09-09 11:34:22 +0000";
layers = (
{
layerId = "2BED5241-FEE2-452B-8B42-4A46EDD0955E";
paths = (
{
closed = 1;
nodes = (
"692.5 0 LINE",
"692.5 197 LINE",
"334.9 197 LINE",
"334.9 289 LINE",
"650.5 289 LINE",
"650.5 448 LINE",
"334.9 448 LINE",
"334.9 540 LINE",
"692.5 540 LINE",
"692.5 737 LINE",
"50 737 LINE",
"50 0 LINE"
);
},
{
closed = 1;
nodes = (
"470.5 789 LINE",
"361.5 952 LINE",
"136.5 952 LINE",
"298.5 789 LINE"
);
}
);
width = 736.5;
}
);
leftKerningGroup = H;
rightKerningGroup = E;
unicode = 00C8;
},
{
glyphname = Ehookabove;
lastChange = "2019-09-09 11:34:22 +0000";
layers = (
{
layerId = "2BED5241-FEE2-452B-8B42-4A46EDD0955E";
paths = (
{
closed = 1;
nodes = (
"692.5 0 LINE",
"692.5 197 LINE",
"334.9 197 LINE",
"334.9 289 LINE",
"650.5 289 LINE",
"650.5 448 LINE",
"334.9 448 LINE",
"334.9 540 LINE",
"692.5 540 LINE",
"692.5 737 LINE",
"50 737 LINE",
"50 0 LINE"
);
},
{
closed = 1;
nodes = (
"460.5 789 LINE",
"460.5 828 LINE",
"502.5 828 LINE",
"550.5 866 LINE",
"550.5 985 LINE",
"501.5 1027 LINE",
"278.5 1027 LINE",
"223.5 985 LINE",
"223.5 920 LINE",
"368.5 920 LINE",
"368.5 961 LINE",
"400.5 961 LINE",
"400.5 895 LINE",
"341.5 895 LINE",
"302.5 866 LINE",
"302.5 789 LINE"
);
}
);
width = 736.5;
}
);
leftKerningGroup = H;
rightKerningGroup = E;
unicode = 1EBA;
},
{
glyphname = Einvertedbreve;
lastChange = "2019-09-09 11:34:22 +0000";
layers = (
{
layerId = "2BED5241-FEE2-452B-8B42-4A46EDD0955E";
paths = (
{
closed = 1;
nodes = (
"692.5 0 LINE",
"692.5 197 LINE",
"334.9 197 LINE",
"334.9 289 LINE",
"650.5 289 LINE",
"650.5 448 LINE",
"334.9 448 LINE",
"334.9 540 LINE",
"692.5 540 LINE",
"692.5 737 LINE",
"50 737 LINE",
"50 0 LINE"
);
},
{
closed = 1;
nodes = (
"320.25 789 LINE",
"320.25 841 LINE",
"422.25 841 LINE",
"422.25 789 LINE",
"613.25 789 LINE",
"613.25 864 LINE",
"510.25 952 LINE",
"232.25 952 LINE",
"129.25 864 LINE",
"129.25 789 LINE"
);
}
);
width = 736.5;
}
);
leftKerningGroup = H;
rightKerningGroup = E;
unicode = 0206;
},
{
glyphname = Emacron;
lastChange = "2019-09-09 11:34:22 +0000";
layers = (
{
layerId = "2BED5241-FEE2-452B-8B42-4A46EDD0955E";
paths = (
{
closed = 1;
nodes = (
"692.5 0 LINE",
"692.5 197 LINE",
"334.9 197 LINE",
"334.9 289 LINE",
"650.5 289 LINE",
"650.5 448 LINE",
"334.9 448 LINE",
"334.9 540 LINE",
"692.5 540 LINE",
"692.5 737 LINE",
"50 737 LINE",
"50 0 LINE"
);
},
{
closed = 1;
nodes = (
"644.25 789 LINE",
"644.25 938 LINE",
"98.25 938 LINE",
"98.25 789 LINE"
);
}
);
width = 736.5;
}
);
leftKerningGroup = H;
rightKerningGroup = E;
unicode = 0112;
},
{
glyphname = Eogonek;
lastChange = "2019-09-09 11:34:22 +0000";
layers = (
{
layerId = "2BED5241-FEE2-452B-8B42-4A46EDD0955E";
paths = (
{
closed = 1;
nodes = (
"701.5 -191 LINE",
"701.5 -64 LINE",
"678.5 -64 LINE",
"662.5 -50 LINE",
"662.5 -26 LINE",
"692.5 0 LINE",
"692.5 197 LINE",
"334.9 197 LINE",
"334.9 289 LINE",
"650.5 289 LINE",
"650.5 448 LINE",
"334.9 448 LINE",
"334.9 540 LINE",
"692.5 540 LINE",
"692.5 737 LINE",
"50 737 LINE",
"50 0 LINE",
"572.5 0 LINE",
"527.5 -33 LINE",
"527.5 -122 LINE",
"610.5 -191 LINE"
);
}
);
width = 736.5;
}
);
leftKerningGroup = H;
leftMetricsKey = E;
rightKerningGroup = E;
unicode = 0118;
},
{
glyphname = Etilde;
lastChange = "2019-09-09 11:34:22 +0000";
layers = (
{
layerId = "2BED5241-FEE2-452B-8B42-4A46EDD0955E";
paths = (
{
closed = 1;
nodes = (
"692.5 0 LINE",
"692.5 197 LINE",
"334.9 197 LINE",
"334.9 289 LINE",
"650.5 289 LINE",
"650.5 448 LINE",
"334.9 448 LINE",
"334.9 540 LINE",
"692.5 540 LINE",
"692.5 737 LINE",
"50 737 LINE",
"50 0 LINE"
);
},
{
closed = 1;
nodes = (
"551.5 789 LINE",
"635.5 861 LINE",
"635.5 950 LINE",
"488.5 950 LINE",
"488.5 917 LINE",
"472.5 902 LINE",
"454.5 902 LINE",
"405.5 957 LINE",
"212.5 957 LINE",
"129.5 883 LINE",
"129.5 795 LINE",
"276.5 795 LINE",
"276.5 827 LINE",
"292.5 843 LINE",
"309.5 843 LINE",
"359.5 789 LINE"
);
}
);
width = 736.5;
}
);
leftKerningGroup = H;
rightKerningGroup = E;
unicode = 1EBC;
},
{
glyphname = F;
lastChange = "2019-08-14 13:09:42 +0000";
layers = (
{
layerId = "2BED5241-FEE2-452B-8B42-4A46EDD0955E";
paths = (
{
closed = 1;
nodes = (
"335 0 LINE",
"335 259 LINE",
"632 259 LINE",
"632 435 LINE",
"335 435 LINE",
"335 540 LINE",
"680 540 LINE",
"680 737 LINE",
"50 737 LINE",
"50 0 LINE"
);
}
);
width = 713;
}
);
leftKerningGroup = H;
leftMetricsKey = H;
rightKerningGroup = F;
unicode = 0046;
},
{
glyphname = G;
lastChange = "2019-09-09 11:34:22 +0000";
layers = (
{
layerId = "2BED5241-FEE2-452B-8B42-4A46EDD0955E";
paths = (
{
closed = 1;
nodes = (
"468 0 LINE",
"541 61.298 LINE",
"541 0 LINE",
"762 0 LINE",
"762 404 LINE",
"443 404 LINE",
"443 251 LINE",
"539.896 251 LINE",
"424 153 LINE",
"324 153 LINE",
"324 584 LINE",
"469 584 LINE",
"469 476 LINE",
"762 475 LINE",
"762 642 LINE",
"651 737 LINE",
"150 737 LINE",
"39 642 LINE",
"39 95 LINE",
"150 0 LINE"
);
}
);
width = 812;
}
);
leftKerningGroup = O;
leftMetricsKey = O;
rightKerningGroup = G;
rightMetricsKey = H;
unicode = 0047;
},
{
glyphname = Gbreve;
lastChange = "2019-09-09 11:34:22 +0000";
layers = (
{
layerId = "2BED5241-FEE2-452B-8B42-4A46EDD0955E";
paths = (
{
closed = 1;
nodes = (
"536 789 LINE",
"639 877 LINE",
"639 952 LINE",
"448 952 LINE",
"448 900 LINE",
"346 900 LINE",
"346 952 LINE",
"155 952 LINE",
"155 877 LINE",
"258 789 LINE"
);
},
{
closed = 1;
nodes = (
"468 0 LINE",
"541 61.298 LINE",
"541 0 LINE",
"762 0 LINE",
"762 404 LINE",
"443 404 LINE",
"443 251 LINE",
"539.896 251 LINE",
"424 153 LINE",
"324 153 LINE",
"324 584 LINE",
"469 584 LINE",
"469 476 LINE",
"762 475 LINE",
"762 642 LINE",
"651 737 LINE",
"150 737 LINE",
"39 642 LINE",
"39 95 LINE",
"150 0 LINE"
);
}
);
width = 812;
}
);
leftKerningGroup = O;
rightKerningGroup = G;
unicode = 011E;
},
{
glyphname = Gcaron;
lastChange = "2019-10-06 17:57:58 +0000";
layers = (
{
layerId = "2BED5241-FEE2-452B-8B42-4A46EDD0955E";
paths = (
{
closed = 1;
nodes = (
"537 789 LINE",
"660 952 LINE",
"473 952 LINE",
"397 876 LINE",
"321 952 LINE",
"134 952 LINE",
"257 789 LINE"
);
},
{
closed = 1;
nodes = (
"468 0 LINE",
"541 61.298 LINE",
"541 0 LINE",
"762 0 LINE",
"762 404 LINE",
"443 404 LINE",
"443 251 LINE",
"539.896 251 LINE",
"424 153 LINE",
"324 153 LINE",
"324 584 LINE",
"469 584 LINE",
"469 476 LINE",
"762 475 LINE",
"762 642 LINE",
"651 737 LINE",
"150 737 LINE",
"39 642 LINE",
"39 95 LINE",
"150 0 LINE"
);
}
);
width = 812;
}
);
leftKerningGroup = O;
rightKerningGroup = G;
unicode = 01E6;
},
{
glyphname = Gcircumflex;
lastChange = "2019-09-09 11:34:22 +0000";
layers = (
{
layerId = "2BED5241-FEE2-452B-8B42-4A46EDD0955E";
paths = (
{
closed = 1;
nodes = (
"321 789 LINE",
"397 865 LINE",
"473 789 LINE",
"660 789 LINE",
"537 952 LINE",
"257 952 LINE",
"134 789 LINE"
);
},
{
closed = 1;
nodes = (
"468 0 LINE",
"541 61.298 LINE",
"541 0 LINE",
"762 0 LINE",
"762 404 LINE",
"443 404 LINE",
"443 251 LINE",
"539.896 251 LINE",
"424 153 LINE",
"324 153 LINE",
"324 584 LINE",
"469 584 LINE",
"469 476 LINE",
"762 475 LINE",
"762 642 LINE",
"651 737 LINE",
"150 737 LINE",
"39 642 LINE",
"39 95 LINE",
"150 0 LINE"
);
}
);
width = 812;
}
);
leftKerningGroup = O;
rightKerningGroup = G;
unicode = 011C;
},
{
glyphname = Gcommaaccent;
lastChange = "2019-09-09 11:34:22 +0000";
layers = (
{
layerId = "2BED5241-FEE2-452B-8B42-4A46EDD0955E";
paths = (
{
closed = 1;
nodes = (
"369 -234 LINE",
"502 -52 LINE",
"280 -52 LINE",
"229 -234 LINE"
);
},
{
closed = 1;
nodes = (
"468 0 LINE",
"541 61.298 LINE",
"541 0 LINE",
"762 0 LINE",
"762 404 LINE",
"443 404 LINE",
"443 251 LINE",
"539.896 251 LINE",
"424 153 LINE",
"324 153 LINE",
"324 584 LINE",
"469 584 LINE",
"469 476 LINE",
"762 475 LINE",
"762 642 LINE",
"651 737 LINE",
"150 737 LINE",
"39 642 LINE",
"39 95 LINE",
"150 0 LINE"
);
}
);
width = 812;
}
);
leftKerningGroup = O;
rightKerningGroup = G;
unicode = 0122;
},
{
glyphname = Gdotaccent;
lastChange = "2019-09-09 11:34:22 +0000";
layers = (
{
layerId = "2BED5241-FEE2-452B-8B42-4A46EDD0955E";
paths = (
{
closed = 1;
nodes = (
"528.5 789 LINE",
"528.5 947 LINE",
"265.5 947 LINE",
"265.5 789 LINE"
);
},
{
closed = 1;
nodes = (
"468 0 LINE",
"541 61.298 LINE",
"541 0 LINE",
"762 0 LINE",
"762 404 LINE",
"443 404 LINE",
"443 251 LINE",
"539.896 251 LINE",
"424 153 LINE",
"324 153 LINE",
"324 584 LINE",
"469 584 LINE",
"469 476 LINE",
"762 475 LINE",
"762 642 LINE",
"651 737 LINE",
"150 737 LINE",
"39 642 LINE",
"39 95 LINE",
"150 0 LINE"
);
}
);
width = 812;
}
);
leftKerningGroup = O;
rightKerningGroup = G;
unicode = 0120;
},
{
glyphname = H;
lastChange = "2019-09-09 11:34:22 +0000";
layers = (
{
layerId = "2BED5241-FEE2-452B-8B42-4A46EDD0955E";
paths = (
{
closed = 1;
nodes = (
"334.9 0 LINE",
"334.9 282 LINE",
"477 282 LINE",
"477 0 LINE",
"761.9 0 LINE",
"761.9 737 LINE",
"477 737 LINE",
"477 478 LINE",
"334.9 478 LINE",
"334.9 737 LINE",
"50 737 LINE",
"50 0 LINE"
);
}
);
width = 811.9;
}
);
leftKerningGroup = H;
rightKerningGroup = H;
unicode = 0048;
},
{
glyphname = Hbar;
lastChange = "2019-09-09 11:34:22 +0000";
layers = (
{
layerId = "2BED5241-FEE2-452B-8B42-4A46EDD0955E";
paths = (
{
closed = 1;
nodes = (
"334.45 0 LINE",
"334.45 282 LINE",
"476.55 282 LINE",
"476.55 0 LINE",
"761.45 0 LINE",
"761.45 547 LINE",
"811 547 LINE",
"811 665 LINE",
"761.45 665 LINE",
"761.45 737 LINE",
"476.55 737 LINE",
"476.55 665 LINE",
"334.45 665 LINE",
"334.45 737 LINE",
"49.55 737 LINE",
"49.55 665 LINE",
"0 665 LINE",
"0 547 LINE",
"49.55 547 LINE",
"49.55 0 LINE"
);
},
{
closed = 1;
nodes = (
"334.45 547 LINE",
"476.55 547 LINE",
"476.55 478 LINE",
"334.45 478 LINE"
);
}
);
width = 811;
}
);
unicode = 0126;
},
{
glyphname = Hcircumflex;
lastChange = "2019-09-09 11:34:22 +0000";
layers = (
{
layerId = "2BED5241-FEE2-452B-8B42-4A46EDD0955E";
paths = (
{
closed = 1;
nodes = (
"334.9 0 LINE",
"334.9 282 LINE",
"477 282 LINE",
"477 0 LINE",
"761.9 0 LINE",
"761.9 737 LINE",
"477 737 LINE",
"477 478 LINE",
"334.9 478 LINE",
"334.9 737 LINE",
"50 737 LINE",
"50 0 LINE"
);
},
{
closed = 1;
nodes = (
"330 789 LINE",
"406 865 LINE",
"482 789 LINE",
"669 789 LINE",
"546 952 LINE",
"266 952 LINE",
"143 789 LINE"
);
}
);
width = 811.9;
}
);
unicode = 0124;
},
{
glyphname = I;
lastChange = "2019-09-09 11:34:22 +0000";
layers = (
{
layerId = "2BED5241-FEE2-452B-8B42-4A46EDD0955E";
paths = (
{
closed = 1;
nodes = (
"502 0 LINE",
"502 197 LINE",
"402.827 197 LINE",
"402.827 540 LINE",
"502 540 LINE",
"502 737 LINE",
"33 737 LINE",
"33 540 LINE",
"132.172 540 LINE",
"132.172 197 LINE",
"33 197 LINE",
"33 0 LINE"
);
}
);
width = 535;
}
);
leftKerningGroup = H;
rightKerningGroup = H;
unicode = 0049;
},
{
glyphname = Iacute;
lastChange = "2019-09-09 11:34:22 +0000";
layers = (
{
layerId = "2BED5241-FEE2-452B-8B42-4A46EDD0955E";
paths = (
{
closed = 1;
nodes = (
"502 0 LINE",
"502 197 LINE",
"402.827 197 LINE",
"402.827 540 LINE",
"502 540 LINE",
"502 737 LINE",
"33 737 LINE",
"33 540 LINE",
"132.172 540 LINE",
"132.172 197 LINE",
"33 197 LINE",
"33 0 LINE"
);
},
{
closed = 1;
nodes = (
"351.5 789 LINE",
"513.5 952 LINE",
"288.5 952 LINE",
"179.5 789 LINE"
);
}
);
width = 535;
}
);
leftKerningGroup = H;
rightKerningGroup = H;
unicode = 00CD;
},
{
glyphname = Ibreve;
lastChange = "2019-09-09 11:34:22 +0000";
layers = (
{
layerId = "2BED5241-FEE2-452B-8B42-4A46EDD0955E";
paths = (
{
closed = 1;
nodes = (
"502 0 LINE",
"502 197 LINE",
"402.827 197 LINE",
"402.827 540 LINE",
"502 540 LINE",
"502 737 LINE",
"33 737 LINE",
"33 540 LINE",
"132.172 540 LINE",
"132.172 197 LINE",
"33 197 LINE",
"33 0 LINE"
);
},
{
closed = 1;
nodes = (
"406.5 789 LINE",
"509.5 877 LINE",
"509.5 952 LINE",
"318.5 952 LINE",
"318.5 900 LINE",
"216.5 900 LINE",
"216.5 952 LINE",
"25.5 952 LINE",
"25.5 877 LINE",
"128.5 789 LINE"
);
}
);
width = 535;
}
);
unicode = 012C;
},
{
glyphname = Icircumflex;
lastChange = "2019-09-09 11:34:22 +0000";
layers = (
{
layerId = "2BED5241-FEE2-452B-8B42-4A46EDD0955E";
paths = (
{
closed = 1;
nodes = (
"502 0 LINE",
"502 197 LINE",
"402.827 197 LINE",
"402.827 540 LINE",
"502 540 LINE",
"502 737 LINE",
"33 737 LINE",
"33 540 LINE",
"132.172 540 LINE",
"132.172 197 LINE",
"33 197 LINE",
"33 0 LINE"
);
},
{
closed = 1;
nodes = (
"191.5 789 LINE",
"267.5 865 LINE",
"343.5 789 LINE",
"530.5 789 LINE",
"407.5 952 LINE",
"127.5 952 LINE",
"4.5 789 LINE"
);
}
);
width = 535;
}
);
leftKerningGroup = H;
rightKerningGroup = H;
unicode = 00CE;
},
{
glyphname = Idblgrave;
lastChange = "2019-09-09 11:34:22 +0000";
layers = (
{
layerId = "2BED5241-FEE2-452B-8B42-4A46EDD0955E";
paths = (
{
closed = 1;
nodes = (
"502 0 LINE",
"502 197 LINE",
"402.827 197 LINE",
"402.827 540 LINE",
"502 540 LINE",
"502 737 LINE",
"33 737 LINE",
"33 540 LINE",
"132.172 540 LINE",
"132.172 197 LINE",
"33 197 LINE",
"33 0 LINE"
);
},
{
closed = 1;
nodes = (
"202 789 LINE",
"94 952 LINE",
"-121 952 LINE",
"42 789 LINE"
);
},
{
closed = 1;
nodes = (
"479 789 LINE",
"370 952 LINE",
"155 952 LINE",
"318 789 LINE"
);
}
);
width = 535;
}
);
unicode = 0208;
},
{
glyphname = Idieresis;
lastChange = "2019-09-09 11:34:22 +0000";
layers = (
{
layerId = "2BED5241-FEE2-452B-8B42-4A46EDD0955E";
paths = (
{
closed = 1;
nodes = (
"501.5 0 LINE",
"501.5 197 LINE",
"402.327 197 LINE",
"402.327 540 LINE",
"501.5 540 LINE",
"501.5 737 LINE",
"32.5 737 LINE",
"32.5 540 LINE",
"131.672 540 LINE",
"131.672 197 LINE",
"32.5 197 LINE",
"32.5 0 LINE"
);
},
{
closed = 1;
nodes = (
"233.5 789 LINE",
"233.5 947 LINE",
"-5.5 947 LINE",
"-5.5 789 LINE"
);
},
{
closed = 1;
nodes = (
"540.5 789 LINE",
"540.5 947 LINE",
"301.5 947 LINE",
"301.5 789 LINE"
);
}
);
width = 535;
}
);
leftKerningGroup = H;
rightKerningGroup = H;
unicode = 00CF;
},
{
glyphname = Idotaccent;
lastChange = "2019-09-09 11:34:22 +0000";
layers = (
{
layerId = "2BED5241-FEE2-452B-8B42-4A46EDD0955E";
paths = (
{
closed = 1;
nodes = (
"502 0 LINE",
"502 197 LINE",
"402.827 197 LINE",
"402.827 540 LINE",
"502 540 LINE",
"502 737 LINE",
"33 737 LINE",
"33 540 LINE",
"132.172 540 LINE",
"132.172 197 LINE",
"33 197 LINE",
"33 0 LINE"
);
},
{
closed = 1;
nodes = (
"399 789 LINE",
"399 947 LINE",
"136 947 LINE",
"136 789 LINE"
);
}
);
width = 535;
}
);
unicode = 0130;
},
{
glyphname = Idotbelow;
lastChange = "2019-09-09 11:34:22 +0000";
layers = (
{
layerId = "2BED5241-FEE2-452B-8B42-4A46EDD0955E";
paths = (
{
closed = 1;
nodes = (
"502 0 LINE",
"502 197 LINE",
"402.827 197 LINE",
"402.827 540 LINE",
"502 540 LINE",
"502 737 LINE",
"33 737 LINE",
"33 540 LINE",
"132.172 540 LINE",
"132.172 197 LINE",
"33 197 LINE",
"33 0 LINE"
);
},
{
closed = 1;
nodes = (
"399 -209.013 LINE",
"399 -51.013 LINE",
"136 -51.013 LINE",
"136 -209.013 LINE"
);
}
);
width = 535;
}
);
unicode = 1ECA;
},
{
glyphname = Igrave;
lastChange = "2019-09-09 11:34:22 +0000";
layers = (
{
layerId = "2BED5241-FEE2-452B-8B42-4A46EDD0955E";
paths = (
{
closed = 1;
nodes = (
"502 0 LINE",
"502 197 LINE",
"402.827 197 LINE",
"402.827 540 LINE",
"502 540 LINE",
"502 737 LINE",
"33 737 LINE",
"33 540 LINE",
"132.172 540 LINE",
"132.172 197 LINE",
"33 197 LINE",
"33 0 LINE"
);
},
{
closed = 1;
nodes = (
"357 789 LINE",
"248 952 LINE",
"23 952 LINE",
"185 789 LINE"
);
}
);
width = 535;
}
);
leftKerningGroup = H;
rightKerningGroup = H;
unicode = 00CC;
},
{
glyphname = Ihookabove;
lastChange = "2019-09-09 11:34:22 +0000";
layers = (
{
layerId = "2BED5241-FEE2-452B-8B42-4A46EDD0955E";
paths = (
{
closed = 1;
nodes = (
"502 0 LINE",
"502 197 LINE",
"402.827 197 LINE",
"402.827 540 LINE",
"502 540 LINE",
"502 737 LINE",
"33 737 LINE",
"33 540 LINE",
"132.172 540 LINE",
"132.172 197 LINE",
"33 197 LINE",
"33 0 LINE"
);
},
{
closed = 1;
nodes = (
"346.5 789 LINE",
"346.5 828 LINE",
"388.5 828 LINE",
"436.5 866 LINE",
"436.5 985 LINE",
"387.5 1027 LINE",
"164.5 1027 LINE",
"109.5 985 LINE",
"109.5 920 LINE",
"254.5 920 LINE",
"254.5 961 LINE",
"286.5 961 LINE",
"286.5 895 LINE",
"227.5 895 LINE",
"188.5 866 LINE",
"188.5 789 LINE"
);
}
);
width = 535;
}
);
unicode = 1EC8;
},
{
glyphname = Iinvertedbreve;
lastChange = "2019-09-09 11:34:22 +0000";
layers = (
{
layerId = "2BED5241-FEE2-452B-8B42-4A46EDD0955E";
paths = (
{
closed = 1;
nodes = (
"502 0 LINE",
"502 197 LINE",
"402.827 197 LINE",
"402.827 540 LINE",
"502 540 LINE",
"502 737 LINE",
"33 737 LINE",
"33 540 LINE",
"132.172 540 LINE",
"132.172 197 LINE",
"33 197 LINE",
"33 0 LINE"
);
},
{
closed = 1;
nodes = (
"217 789 LINE",
"217 841 LINE",
"319 841 LINE",
"319 789 LINE",
"510 789 LINE",
"510 864 LINE",
"407 952 LINE",
"129 952 LINE",
"26 864 LINE",
"26 789 LINE"
);
}
);
width = 535;
}
);
unicode = 020A;
},
{
glyphname = Imacron;
lastChange = "2019-09-09 11:34:22 +0000";
layers = (
{
layerId = "2BED5241-FEE2-452B-8B42-4A46EDD0955E";
paths = (
{
closed = 1;
nodes = (
"502 0 LINE",
"502 197 LINE",
"402.827 197 LINE",
"402.827 540 LINE",
"502 540 LINE",
"502 737 LINE",
"33 737 LINE",
"33 540 LINE",
"132.172 540 LINE",
"132.172 197 LINE",
"33 197 LINE",
"33 0 LINE"
);
},
{
closed = 1;
nodes = (
"540.5 789 LINE",
"540.5 938 LINE",
"-5.5 938 LINE",
"-5.5 789 LINE"
);
}
);
width = 535;
}
);
unicode = 012A;
},
{
glyphname = Iogonek;
lastChange = "2019-09-09 11:34:22 +0000";
layers = (
{
layerId = "2BED5241-FEE2-452B-8B42-4A46EDD0955E";
paths = (
{
closed = 1;
nodes = (
"511 -191 LINE",
"511 -64 LINE",
"488 -64 LINE",
"472 -50 LINE",
"472 -26 LINE",
"502 0 LINE",
"502 197 LINE",
"402.827 197 LINE",
"402.827 540 LINE",
"502 540 LINE",
"502 737 LINE",
"33 737 LINE",
"33 540 LINE",
"132.172 540 LINE",
"132.172 197 LINE",
"33 197 LINE",
"33 0 LINE",
"382 0 LINE",
"337 -33 LINE",
"337 -122 LINE",
"420 -191 LINE"
);
}
);
width = 535;
}
);
leftMetricsKey = I;
unicode = 012E;
},
{
glyphname = Itilde;
lastChange = "2019-09-09 11:34:22 +0000";
layers = (
{
layerId = "2BED5241-FEE2-452B-8B42-4A46EDD0955E";
paths = (
{
closed = 1;
nodes = (
"502 0 LINE",
"502 197 LINE",
"402.827 197 LINE",
"402.827 540 LINE",
"502 540 LINE",
"502 737 LINE",
"33 737 LINE",
"33 540 LINE",
"132.172 540 LINE",
"132.172 197 LINE",
"33 197 LINE",
"33 0 LINE"
);
},
{
closed = 1;
nodes = (
"436 789 LINE",
"520 861 LINE",
"520 950 LINE",
"373 950 LINE",
"373 917 LINE",
"357 902 LINE",
"339 902 LINE",
"290 957 LINE",
"97 957 LINE",
"14 883 LINE",
"14 795 LINE",
"161 795 LINE",
"161 827 LINE",
"177 843 LINE",
"194 843 LINE",
"244 789 LINE"
);
}
);
width = 535;
}
);
unicode = 0128;
},
{
glyphname = J;
lastChange = "2019-09-09 11:34:22 +0000";
layers = (
{
layerId = "2BED5241-FEE2-452B-8B42-4A46EDD0955E";
paths = (
{
closed = 1;
nodes = (
"603 0 LINE",
"714 95 LINE",
"714 737 LINE",
"430 737 LINE",
"430 153 LINE",
"313 153 LINE",
"313 354 LINE",
"28 354 LINE",
"28 95 LINE",
"139 0 LINE"
);
}
);
width = 764;
}
);
leftKerningGroup = J;
rightKerningGroup = J;
rightMetricsKey = H;
unicode = 004A;
},
{
glyphname = Jcircumflex;
lastChange = "2019-09-09 11:34:22 +0000";
layers = (
{
layerId = "2BED5241-FEE2-452B-8B42-4A46EDD0955E";
paths = (
{
closed = 1;
nodes = (
"603 0 LINE",
"714 95 LINE",
"714 737 LINE",
"430 737 LINE",
"430 153 LINE",
"313 153 LINE",
"313 354 LINE",
"28 354 LINE",
"28 95 LINE",
"139 0 LINE"
);
},
{
closed = 1;
nodes = (
"495 789 LINE",
"571 865 LINE",
"647 789 LINE",
"834 789 LINE",
"711 952 LINE",
"431 952 LINE",
"308 789 LINE"
);
}
);
width = 764;
}
);
leftKerningGroup = J;
rightKerningGroup = J;
unicode = 0134;
},
{
glyphname = K;
lastChange = "2019-09-10 13:23:59 +0000";
layers = (
{
layerId = "2BED5241-FEE2-452B-8B42-4A46EDD0955E";
paths = (
{
closed = 1;
nodes = (
"334.9 0 LINE",
"334.9 314.95 LINE",
"500.5 0 LINE",
"820.5 0 LINE",
"577.771 397.451 LINE",
"827.5 737 LINE",
"503.5 737 LINE",
"334.9 476.197 LINE",
"334.9 737 LINE",
"50 737 LINE",
"50 0 LINE"
);
}
);
width = 827.5;
}
);
leftKerningGroup = H;
leftMetricsKey = H;
rightKerningGroup = K;
unicode = 004B;
},
{
glyphname = Kcommaaccent;
lastChange = "2019-09-10 13:24:23 +0000";
layers = (
{
layerId = "2BED5241-FEE2-452B-8B42-4A46EDD0955E";
paths = (
{
closed = 1;
nodes = (
"383.5 -234 LINE",
"516.5 -52 LINE",
"294.5 -52 LINE",
"243.5 -234 LINE"
);
},
{
closed = 1;
nodes = (
"334.9 0 LINE",
"334.9 314.95 LINE",
"500.5 0 LINE",
"820.5 0 LINE",
"577.771 397.451 LINE",
"827.5 737 LINE",
"503.5 737 LINE",
"334.9 476.197 LINE",
"334.9 737 LINE",
"50 737 LINE",
"50 0 LINE"
);
}
);
width = 827.5;
}
);
leftKerningGroup = H;
leftMetricsKey = H;
rightKerningGroup = K;
rightMetricsKey = K;
unicode = 0136;
},
{
glyphname = L;
lastChange = "2019-09-09 11:34:22 +0000";
layers = (
{
layerId = "2BED5241-FEE2-452B-8B42-4A46EDD0955E";
paths = (
{
closed = 1;
nodes = (
"629.5 0 LINE",
"629.5 208 LINE",
"334.9 208 LINE",
"334.9 737 LINE",
"50 737 LINE",
"50 0 LINE"
);
}
);
width = 662.5;
}
);
leftKerningGroup = H;
leftMetricsKey = H;
rightKerningGroup = L;
unicode = 004C;
},
{
glyphname = LJ;
lastChange = "2019-09-09 11:34:22 +0000";
layers = (
{
layerId = "2BED5241-FEE2-452B-8B42-4A46EDD0955E";
paths = (
{
closed = 1;
nodes = (
"1265.5 0 LINE",
"1376.5 95 LINE",
"1376.5 737 LINE",
"1092.5 737 LINE",
"1092.5 153 LINE",
"975.5 153 LINE",
"975.5 354 LINE",
"690.5 354 LINE",
"690.5 95 LINE",
"801.5 0 LINE"
);
},
{
closed = 1;
nodes = (
"629.5 0 LINE",
"629.5 208 LINE",
"334.9 208 LINE",
"334.9 737 LINE",
"50 737 LINE",
"50 0 LINE"
);
}
);
width = 1426.5;
}
);
unicode = 01C7;
},
{
glyphname = Lacute;
lastChange = "2019-09-09 11:34:22 +0000";
layers = (
{
layerId = "2BED5241-FEE2-452B-8B42-4A46EDD0955E";
paths = (
{
closed = 1;
nodes = (
"629.5 0 LINE",
"629.5 208 LINE",
"334.9 208 LINE",
"334.9 737 LINE",
"50 737 LINE",
"50 0 LINE"
);
},
{
closed = 1;
nodes = (
"287.5 789 LINE",
"449.5 952 LINE",
"224.5 952 LINE",
"115.5 789 LINE"
);
}
);
width = 662.5;
}
);
leftKerningGroup = H;
rightKerningGroup = L;
unicode = 0139;
},
{
glyphname = Lcaron;
lastChange = "2019-09-09 11:34:22 +0000";
layers = (
{
layerId = "2BED5241-FEE2-452B-8B42-4A46EDD0955E";
paths = (
{
closed = 1;
nodes = (
"629.5 0 LINE",
"629.5 208 LINE",
"334.9 208 LINE",
"334.9 737 LINE",
"50 737 LINE",
"50 0 LINE"
);
},
{
closed = 1;
nodes = (
"508.5 555 LINE",
"641.5 737 LINE",
"419.5 737 LINE",
"368.5 555 LINE"
);
}
);
width = 662.5;
}
);
rightKerningGroup = L;
unicode = 013D;
},
{
glyphname = Lcommaaccent;
lastChange = "2019-09-09 11:34:22 +0000";
layers = (
{
layerId = "2BED5241-FEE2-452B-8B42-4A46EDD0955E";
paths = (
{
closed = 1;
nodes = (
"629.5 0 LINE",
"629.5 208 LINE",
"334.9 208 LINE",
"334.9 737 LINE",
"50 737 LINE",
"50 0 LINE"
);
},
{
closed = 1;
nodes = (
"329.5 -234 LINE",
"462.5 -52 LINE",
"240.5 -52 LINE",
"189.5 -234 LINE"
);
}
);
width = 662.5;
}
);
rightKerningGroup = L;
unicode = 013B;
},
{
glyphname = Ldot;
lastChange = "2019-09-09 11:34:22 +0000";
layers = (
{
guideLines = (
{
position = "{344.5, 331.125}";
}
);
layerId = "2BED5241-FEE2-452B-8B42-4A46EDD0955E";
paths = (
{
closed = 1;
nodes = (
"629.5 0 LINE",
"629.5 208 LINE",
"334.9 208 LINE",
"334.9 737 LINE",
"50 737 LINE",
"50 0 LINE"
);
},
{
closed = 1;
nodes = (
"620.5 331.125 LINE",
"620.5 518.125 LINE",
"402.5 518.125 LINE",
"402.5 331.125 LINE"
);
}
);
width = 662.5;
}
);
rightMetricsKey = L;
unicode = 013F;
},
{
glyphname = Lj;
lastChange = "2019-09-09 11:34:22 +0000";
layers = (
{
layerId = "2BED5241-FEE2-452B-8B42-4A46EDD0955E";
paths = (
{
closed = 1;
nodes = (
"629.5 0 LINE",
"629.5 208 LINE",
"334.9 208 LINE",
"334.9 737 LINE",
"50 737 LINE",
"50 0 LINE"
);
},
{
closed = 1;
nodes = (
"862 -187 LINE",
"973 -92 LINE",
"972 523 LINE",
"709 523 LINE",
"709 -67 LINE",
"619 -67 LINE",
"619 -187 LINE"
);
},
{
closed = 1;
nodes = (
"972.5 575 LINE",
"972.5 733 LINE",
"709.5 733 LINE",
"709.5 575 LINE"
);
}
);
width = 1017;
}
);
leftMetricsKey = L;
rightMetricsKey = j;
unicode = 01C8;
},
{
glyphname = Lslash;
lastChange = "2019-09-09 11:34:22 +0000";
layers = (
{
layerId = "2BED5241-FEE2-452B-8B42-4A46EDD0955E";
paths = (
{
closed = 1;
nodes = (
"629.5 0 LINE",
"629.5 208 LINE",
"334.9 208 LINE",
"334.9 350.086 LINE",
"490 418 LINE",
"490 575 LINE",
"334.9 507.086 LINE",
"334.9 737 LINE",
"50 737 LINE",
"50 382.337 LINE",
"-17 353 LINE",
"-17 196 LINE",
"50 225.337 LINE",
"50 0 LINE"
);
}
);
width = 662.5;
}
);
rightKerningGroup = L;
rightMetricsKey = L;
unicode = 0141;
},
{
glyphname = M;
lastChange = "2019-09-03 20:42:47 +0000";
layers = (
{
layerId = "2BED5241-FEE2-452B-8B42-4A46EDD0955E";
paths = (
{
closed = 1;
nodes = (
"306.41 0 LINE",
"306.41 382 LINE",
"409.55 46 LINE",
"518.55 46 LINE",
"621 380.206 LINE",
"621 0 LINE",
"877.41 0 LINE",
"877.41 737 LINE",
"601.55 737 LINE",
"463.55 378 LINE",
"325.55 737 LINE",
"50 737 LINE",
"50 0 LINE"
);
}
);
width = 927.41;
}
);
leftKerningGroup = M;
leftMetricsKey = H;
rightKerningGroup = M;
rightMetricsKey = H;
unicode = 004D;
},
{
glyphname = N;
lastChange = "2019-09-09 11:34:22 +0000";
layers = (
{
layerId = "2BED5241-FEE2-452B-8B42-4A46EDD0955E";
paths = (
{
closed = 1;
nodes = (
"306.41 0 LINE",
"306.55 376 LINE",
"468.55 0 LINE",
"725.41 0 LINE",
"725.41 737 LINE",
"469 737 LINE",
"469 377.226 LINE",
"307.55 737 LINE",
"50 737 LINE",
"50 0 LINE"
);
}
);
width = 775.41;
}
);
leftKerningGroup = H;
leftMetricsKey = H;
rightKerningGroup = H;
rightMetricsKey = H;
unicode = 004E;
},
{
glyphname = NJ;
lastChange = "2019-09-09 11:34:22 +0000";
layers = (
{
background = {
anchors = (
{
name = botton;
position = "{388.55, 0}";
},
{
name = top;
position = "{388.55, 737}";
}
);
paths = (
{
closed = 1;
nodes = (
"306.41 0 LINE",
"306.41 376 LINE",
"306.55 376 LINE",
"468.55 0 LINE",
"725.41 0 LINE",
"725.41 737 LINE",
"469 737 LINE",
"469 377.226 LINE",
"307.55 737 LINE",
"50 737 LINE",
"50 0 LINE"
);
},
{
closed = 1;
nodes = (
"913 0 LINE",
"1377 0 LINE",
"1488 95 LINE",
"1488 737 LINE",
"1204 737 LINE",
"1204 153 LINE",
"1087 153 LINE",
"1087 354 LINE",
"802 354 LINE",
"802 95 LINE"
);
}
);
};
layerId = "2BED5241-FEE2-452B-8B42-4A46EDD0955E";
paths = (
{
closed = 1;
nodes = (
"1377 0 LINE",
"1488 95 LINE",
"1488 737 LINE",
"1204 737 LINE",
"1204 153 LINE",
"1087 153 LINE",
"1087 354 LINE",
"802 354 LINE",
"802 95 LINE",
"913 0 LINE"
);
},
{
closed = 1;
nodes = (
"306.41 0 LINE",
"306.55 376 LINE",
"468.55 0 LINE",
"725.41 0 LINE",
"725.41 737 LINE",
"469 737 LINE",
"469 377.226 LINE",
"307.55 737 LINE",
"50 737 LINE",
"50 0 LINE"
);
}
);
width = 1538;
}
);
unicode = 01CA;
},
{
glyphname = Nacute;
lastChange = "2019-09-09 11:34:22 +0000";
layers = (
{
layerId = "2BED5241-FEE2-452B-8B42-4A46EDD0955E";
paths = (
{
closed = 1;
nodes = (
"306.41 0 LINE",
"306.55 376 LINE",
"468.55 0 LINE",
"725.41 0 LINE",
"725.41 737 LINE",
"469 737 LINE",
"469 377.226 LINE",
"307.55 737 LINE",
"50 737 LINE",
"50 0 LINE"
);
},
{
closed = 1;
nodes = (
"472.55 789 LINE",
"634.55 952 LINE",
"409.55 952 LINE",
"300.55 789 LINE"
);
}
);
width = 775.41;
}
);
unicode = 0143;
},
{
glyphname = Ncaron;
lastChange = "2019-10-06 17:58:01 +0000";
layers = (
{
layerId = "2BED5241-FEE2-452B-8B42-4A46EDD0955E";
paths = (
{
closed = 1;
nodes = (
"306.41 0 LINE",
"306.41 376 LINE",
"468.55 0 LINE",
"725.41 0 LINE",
"725.41 737 LINE",
"469 737 LINE",
"469 377.226 LINE",
"307.55 737 LINE",
"50 737 LINE",
"50 0 LINE"
);
},
{
closed = 1;
nodes = (
"528.55 789 LINE",
"651.55 952 LINE",
"464.55 952 LINE",
"388.55 876 LINE",
"312.55 952 LINE",
"125.55 952 LINE",
"248.55 789 LINE"
);
}
);
width = 775.41;
}
);
leftMetricsKey = N;
rightMetricsKey = N;
unicode = 0147;
},
{
glyphname = Ncommaaccent;
lastChange = "2019-09-09 11:34:22 +0000";
layers = (
{
layerId = "2BED5241-FEE2-452B-8B42-4A46EDD0955E";
paths = (
{
closed = 1;
nodes = (
"306.41 0 LINE",
"306.41 376 LINE",
"307.55 376 LINE",
"468.55 0 LINE",
"725.41 0 LINE",
"725.41 737 LINE",
"469 737 LINE",
"469 377.226 LINE",
"307.55 737 LINE",
"50 737 LINE",
"50 0 LINE"
);
},
{
closed = 1;
nodes = (
"367.55 -234 LINE",
"500.55 -52 LINE",
"278.55 -52 LINE",
"227.55 -234 LINE"
);
}
);
width = 775.41;
}
);
unicode = 0145;
},
{
glyphname = Eng;
lastChange = "2019-09-09 11:34:22 +0000";
layers = (
{
layerId = "2BED5241-FEE2-452B-8B42-4A46EDD0955E";
paths = (
{
closed = 1;
nodes = (
"614.41 -187 LINE",
"725.41 -92 LINE",
"725.41 737 LINE",
"469 737 LINE",
"469 377.226 LINE",
"307.55 737 LINE",
"50 737 LINE",
"50 0 LINE",
"306.41 0 LINE",
"306.41 376 LINE",
"307.55 376 LINE",
"468.55 0 LINE",
"469 -57 LINE",
"461 -67 LINE",
"379 -67 LINE",
"379 -187 LINE"
);
}
);
width = 775.41;
}
);
leftMetricsKey = N;
rightMetricsKey = N;
unicode = 014A;
},
{
glyphname = Nj;
lastChange = "2019-10-06 18:11:04 +0000";
layers = (
{
layerId = "2BED5241-FEE2-452B-8B42-4A46EDD0955E";
paths = (
{
closed = 1;
nodes = (
"306.41 0 LINE",
"306.41 376 LINE",
"468.55 0 LINE",
"725.41 0 LINE",
"725.41 737 LINE",
"469 737 LINE",
"469 377.226 LINE",
"307.55 737 LINE",
"50 737 LINE",
"50 0 LINE"
);
},
{
closed = 1;
nodes = (
"974.037 -187 LINE",
"1085.037 -92 LINE",
"1084.037 523 LINE",
"821.037 523 LINE",
"821.037 -67 LINE",
"731.037 -67 LINE",
"731.037 -187 LINE"
);
},
{
closed = 1;
nodes = (
"1084.537 575 LINE",
"1084.537 733 LINE",
"821.537 733 LINE",
"821.537 575 LINE"
);
}
);
width = 1129.04;
}
);
leftMetricsKey = N;
rightMetricsKey = j;
unicode = 01CB;
},
{
glyphname = Ntilde;
lastChange = "2019-10-06 18:11:08 +0000";
layers = (
{
layerId = "2BED5241-FEE2-452B-8B42-4A46EDD0955E";
paths = (
{
closed = 1;
nodes = (
"306.41 0 LINE",
"306.41 376 LINE",
"468.55 0 LINE",
"725.41 0 LINE",
"725.41 737 LINE",
"469 737 LINE",
"469 377.226 LINE",
"307.55 737 LINE",
"50 737 LINE",
"50 0 LINE"
);
},
{
closed = 1;
nodes = (
"558.55 789 LINE",
"642.55 861 LINE",
"642.55 950 LINE",
"495.55 950 LINE",
"495.55 917 LINE",
"479.55 902 LINE",
"461.55 902 LINE",
"412.55 957 LINE",
"219.55 957 LINE",
"136.55 883 LINE",
"136.55 795 LINE",
"283.55 795 LINE",
"283.55 827 LINE",
"299.55 843 LINE",
"316.55 843 LINE",
"366.55 789 LINE"
);
}
);
width = 775.41;
}
);
leftKerningGroup = H;
rightKerningGroup = H;
unicode = 00D1;
},
{
glyphname = O;
lastChange = "2019-09-09 11:34:22 +0000";
layers = (
{
layerId = "2BED5241-FEE2-452B-8B42-4A46EDD0955E";
paths = (
{
closed = 1;
nodes = (
"643 0 LINE",
"754 95 LINE",
"754 642 LINE",
"643 737 LINE",
"150 737 LINE",
"39 642 LINE",
"39 95 LINE",
"150 0 LINE"
);
},
{
closed = 1;
nodes = (
"324 584 LINE",
"469 584 LINE",
"469 153 LINE",
"324 153 LINE"
);
}
);
width = 793;
}
);
leftKerningGroup = O;
rightKerningGroup = O;
unicode = 004F;
},
{
glyphname = Oacute;
lastChange = "2019-09-09 11:34:22 +0000";
layers = (
{
layerId = "2BED5241-FEE2-452B-8B42-4A46EDD0955E";
paths = (
{
closed = 1;
nodes = (
"643 0 LINE",
"754 95 LINE",
"754 642 LINE",
"643 737 LINE",
"150 737 LINE",
"39 642 LINE",
"39 95 LINE",
"150 0 LINE"
);
},
{
closed = 1;
nodes = (
"324 584 LINE",
"469 584 LINE",
"469 153 LINE",
"324 153 LINE"
);
},
{
closed = 1;
nodes = (
"481 789 LINE",
"643 952 LINE",
"418 952 LINE",
"309 789 LINE"
);
}
);
width = 793;
}
);
leftKerningGroup = O;
rightKerningGroup = O;
unicode = 00D3;
},
{
glyphname = Obreve;
lastChange = "2019-09-09 11:34:22 +0000";
layers = (
{
layerId = "2BED5241-FEE2-452B-8B42-4A46EDD0955E";
paths = (
{
closed = 1;
nodes = (
"643 0 LINE",
"754 95 LINE",
"754 642 LINE",
"643 737 LINE",
"150 737 LINE",
"39 642 LINE",
"39 95 LINE",
"150 0 LINE"
);
},
{
closed = 1;
nodes = (
"324 584 LINE",
"469 584 LINE",
"469 153 LINE",
"324 153 LINE"
);
},
{
closed = 1;
nodes = (
"536 789 LINE",
"639 877 LINE",
"639 952 LINE",
"448 952 LINE",
"448 900 LINE",
"346 900 LINE",
"346 952 LINE",
"155 952 LINE",
"155 877 LINE",
"258 789 LINE"
);
}
);
width = 793;
}
);
unicode = 014E;
},
{
glyphname = Ocircumflex;
lastChange = "2019-09-09 11:34:22 +0000";
layers = (
{
layerId = "2BED5241-FEE2-452B-8B42-4A46EDD0955E";
paths = (
{
closed = 1;
nodes = (
"643 0 LINE",
"754 95 LINE",
"754 642 LINE",
"643 737 LINE",
"150 737 LINE",
"39 642 LINE",
"39 95 LINE",
"150 0 LINE"
);
},
{
closed = 1;
nodes = (
"324 584 LINE",
"469 584 LINE",
"469 153 LINE",
"324 153 LINE"
);
},
{
closed = 1;
nodes = (
"321 789 LINE",
"397 865 LINE",
"473 789 LINE",
"660 789 LINE",
"537 952 LINE",
"257 952 LINE",
"134 789 LINE"
);
}
);
width = 793;
}
);
leftKerningGroup = O;
rightKerningGroup = O;
unicode = 00D4;
},
{
glyphname = Ocircumflexacute;
lastChange = "2019-09-09 11:34:22 +0000";
layers = (
{
layerId = "2BED5241-FEE2-452B-8B42-4A46EDD0955E";
paths = (
{
closed = 1;
nodes = (
"643 0 LINE",
"754 95 LINE",
"754 642 LINE",
"643 737 LINE",
"150 737 LINE",
"39 642 LINE",
"39 95 LINE",
"150 0 LINE"
);
},
{
closed = 1;
nodes = (
"324 584 LINE",
"469 584 LINE",
"469 153 LINE",
"324 153 LINE"
);
},
{
closed = 1;
nodes = (
"321 789 LINE",
"397 865 LINE",
"473 789 LINE",
"660 789 LINE",
"537 952 LINE",
"257 952 LINE",
"134 789 LINE"
);
},
{
closed = 1;
nodes = (
"814 876.53 LINE",
"976 1039.53 LINE",
"751 1039.53 LINE",
"642 876.53 LINE"
);
}
);
width = 793;
}
);
unicode = 1ED0;
},
{
glyphname = Ocircumflexdotbelow;
lastChange = "2019-09-09 11:34:22 +0000";
layers = (
{
layerId = "2BED5241-FEE2-452B-8B42-4A46EDD0955E";
paths = (
{
closed = 1;
nodes = (
"643 0 LINE",
"754 95 LINE",
"754 642 LINE",
"643 737 LINE",
"150 737 LINE",
"39 642 LINE",
"39 95 LINE",
"150 0 LINE"
);
},
{
closed = 1;
nodes = (
"528.5 -209.013 LINE",
"528.5 -51.013 LINE",
"265.5 -51.013 LINE",
"265.5 -209.013 LINE"
);
},
{
closed = 1;
nodes = (
"324 584 LINE",
"469 584 LINE",
"469 153 LINE",
"324 153 LINE"
);
},
{
closed = 1;
nodes = (
"321 789 LINE",
"397 865 LINE",
"473 789 LINE",
"660 789 LINE",
"537 952 LINE",
"257 952 LINE",
"134 789 LINE"
);
}
);
width = 793;
}
);
unicode = 1ED8;
},
{
glyphname = Ocircumflexgrave;
lastChange = "2019-09-09 11:34:22 +0000";
layers = (
{
layerId = "2BED5241-FEE2-452B-8B42-4A46EDD0955E";
paths = (
{
closed = 1;
nodes = (
"643 0 LINE",
"754 95 LINE",
"754 642 LINE",
"643 737 LINE",
"150 737 LINE",
"39 642 LINE",
"39 95 LINE",
"150 0 LINE"
);
},
{
closed = 1;
nodes = (
"324 584 LINE",
"469 584 LINE",
"469 153 LINE",
"324 153 LINE"
);
},
{
closed = 1;
nodes = (
"151 876.53 LINE",
"42 1039.53 LINE",
"-183 1039.53 LINE",
"-21 876.53 LINE"
);
},
{
closed = 1;
nodes = (
"321 789 LINE",
"397 865 LINE",
"473 789 LINE",
"660 789 LINE",
"537 952 LINE",
"257 952 LINE",
"134 789 LINE"
);
}
);
width = 793;
}
);
unicode = 1ED2;
},
{
glyphname = Ocircumflexhookabove;
lastChange = "2019-09-09 11:34:22 +0000";
layers = (
{
layerId = "2BED5241-FEE2-452B-8B42-4A46EDD0955E";
paths = (
{
closed = 1;
nodes = (
"643 0 LINE",
"754 95 LINE",
"754 642 LINE",
"643 737 LINE",
"150 737 LINE",
"39 642 LINE",
"39 95 LINE",
"150 0 LINE"
);
},
{
closed = 1;
nodes = (
"324 584 LINE",
"469 584 LINE",
"469 153 LINE",
"324 153 LINE"
);
},
{
closed = 1;
nodes = (
"321 789 LINE",
"397 865 LINE",
"473 789 LINE",
"660 789 LINE",
"537 952 LINE",
"257 952 LINE",
"134 789 LINE"
);
},
{
closed = 1;
nodes = (
"800 876.653 LINE",
"800 915.653 LINE",
"842 915.653 LINE",
"890 953.653 LINE",
"890 1072.653 LINE",
"841 1114.653 LINE",
"618 1114.653 LINE",
"563 1072.653 LINE",
"563 1007.653 LINE",
"708 1007.653 LINE",
"708 1048.653 LINE",
"740 1048.653 LINE",
"740 982.653 LINE",
"681 982.653 LINE",
"642 953.653 LINE",
"642 876.653 LINE"
);
}
);
width = 793;
}
);
unicode = 1ED4;
},
{
glyphname = Ocircumflextilde;
lastChange = "2019-09-09 11:34:22 +0000";
layers = (
{
layerId = "2BED5241-FEE2-452B-8B42-4A46EDD0955E";
paths = (
{
closed = 1;
nodes = (
"643 0 LINE",
"754 95 LINE",
"754 642 LINE",
"643 737 LINE",
"150 737 LINE",
"39 642 LINE",
"39 95 LINE",
"150 0 LINE"
);
},
{
closed = 1;
nodes = (
"324 584 LINE",
"469 584 LINE",
"469 153 LINE",
"324 153 LINE"
);
},
{
closed = 1;
nodes = (
"321 789 LINE",
"397 865 LINE",
"473 789 LINE",
"660 789 LINE",
"537 952 LINE",
"257 952 LINE",
"134 789 LINE"
);
},
{
closed = 1;
nodes = (
"571 983 LINE",
"655 1055 LINE",
"655 1144 LINE",
"508 1144 LINE",
"508 1111 LINE",
"492 1096 LINE",
"474 1096 LINE",
"425 1151 LINE",
"232 1151 LINE",
"149 1077 LINE",
"149 989 LINE",
"296 989 LINE",
"296 1021 LINE",
"312 1037 LINE",
"329 1037 LINE",
"379 983 LINE"
);
}
);
width = 793;
}
);
unicode = 1ED6;
},
{
glyphname = Odblgrave;
lastChange = "2019-09-09 11:34:22 +0000";
layers = (
{
layerId = "2BED5241-FEE2-452B-8B42-4A46EDD0955E";
paths = (
{
closed = 1;
nodes = (
"643 0 LINE",
"754 95 LINE",
"754 642 LINE",
"643 737 LINE",
"150 737 LINE",
"39 642 LINE",
"39 95 LINE",
"150 0 LINE"
);
},
{
closed = 1;
nodes = (
"324 584 LINE",
"469 584 LINE",
"469 153 LINE",
"324 153 LINE"
);
},
{
closed = 1;
nodes = (
"330 789 LINE",
"222 952 LINE",
"7 952 LINE",
"170 789 LINE"
);
},
{
closed = 1;
nodes = (
"607 789 LINE",
"498 952 LINE",
"283 952 LINE",
"446 789 LINE"
);
}
);
width = 793;
}
);
unicode = 020C;
},
{
glyphname = Odieresis;
lastChange = "2019-09-09 11:34:22 +0000";
layers = (
{
layerId = "2BED5241-FEE2-452B-8B42-4A46EDD0955E";
paths = (
{
closed = 1;
nodes = (
"643 0 LINE",
"754 95 LINE",
"754 642 LINE",
"643 737 LINE",
"150 737 LINE",
"39 642 LINE",
"39 95 LINE",
"150 0 LINE"
);
},
{
closed = 1;
nodes = (
"324 584 LINE",
"469 584 LINE",
"469 153 LINE",
"324 153 LINE"
);
},
{
closed = 1;
nodes = (
"363 789 LINE",
"363 947 LINE",
"124 947 LINE",
"124 789 LINE"
);
},
{
closed = 1;
nodes = (
"670 789 LINE",
"670 947 LINE",
"431 947 LINE",
"431 789 LINE"
);
}
);
width = 793;
}
);
leftKerningGroup = O;
rightKerningGroup = O;
unicode = 00D6;
},
{
glyphname = Odieresismacron;
lastChange = "2019-09-09 11:34:22 +0000";
layers = (
{
layerId = "2BED5241-FEE2-452B-8B42-4A46EDD0955E";
paths = (
{
closed = 1;
nodes = (
"643 0 LINE",
"754 95 LINE",
"754 642 LINE",
"643 737 LINE",
"150 737 LINE",
"39 642 LINE",
"39 95 LINE",
"150 0 LINE"
);
},
{
closed = 1;
nodes = (
"324 584 LINE",
"469 584 LINE",
"469 153 LINE",
"324 153 LINE"
);
},
{
closed = 1;
nodes = (
"363 789 LINE",
"363 947 LINE",
"124 947 LINE",
"124 789 LINE"
);
},
{
closed = 1;
nodes = (
"670 789 LINE",
"670 947 LINE",
"431 947 LINE",
"431 789 LINE"
);
},
{
closed = 1;
nodes = (
"669.5 979.227 LINE",
"669.5 1128.227 LINE",
"123.5 1128.227 LINE",
"123.5 979.227 LINE"
);
}
);
width = 793;
}
);
unicode = 022A;
},
{
glyphname = Odotaccentmacron;
lastChange = "2019-09-09 11:34:22 +0000";
layers = (
{
layerId = "2BED5241-FEE2-452B-8B42-4A46EDD0955E";
paths = (
{
closed = 1;
nodes = (
"643 0 LINE",
"754 95 LINE",
"754 642 LINE",
"643 737 LINE",
"150 737 LINE",
"39 642 LINE",
"39 95 LINE",
"150 0 LINE"
);
},
{
closed = 1;
nodes = (
"324 584 LINE",
"469 584 LINE",
"469 153 LINE",
"324 153 LINE"
);
},
{
closed = 1;
nodes = (
"528.5 789 LINE",
"528.5 947 LINE",
"265.5 947 LINE",
"265.5 789 LINE"
);
},
{
closed = 1;
nodes = (
"669.5 979.191 LINE",
"669.5 1128.191 LINE",
"123.5 1128.191 LINE",
"123.5 979.191 LINE"
);
}
);
width = 793;
}
);
unicode = 0230;
},
{
glyphname = Odotbelow;
lastChange = "2019-09-09 11:34:22 +0000";
layers = (
{
layerId = "2BED5241-FEE2-452B-8B42-4A46EDD0955E";
paths = (
{
closed = 1;
nodes = (
"643 0 LINE",
"754 95 LINE",
"754 642 LINE",
"643 737 LINE",
"150 737 LINE",
"39 642 LINE",
"39 95 LINE",
"150 0 LINE"
);
},
{
closed = 1;
nodes = (
"528.5 -209.013 LINE",
"528.5 -51.013 LINE",
"265.5 -51.013 LINE",
"265.5 -209.013 LINE"
);
},
{
closed = 1;
nodes = (
"324 584 LINE",
"469 584 LINE",
"469 153 LINE",
"324 153 LINE"
);
}
);
width = 793;
}
);
unicode = 1ECC;
},
{
glyphname = Ograve;
lastChange = "2019-09-09 11:34:22 +0000";
layers = (
{
layerId = "2BED5241-FEE2-452B-8B42-4A46EDD0955E";
paths = (
{
closed = 1;
nodes = (
"643 0 LINE",
"754 95 LINE",
"754 642 LINE",
"643 737 LINE",
"150 737 LINE",
"39 642 LINE",
"39 95 LINE",
"150 0 LINE"
);
},
{
closed = 1;
nodes = (
"324 584 LINE",
"469 584 LINE",
"469 153 LINE",
"324 153 LINE"
);
},
{
closed = 1;
nodes = (
"486 789 LINE",
"377 952 LINE",
"152 952 LINE",
"314 789 LINE"
);
}
);
width = 793;
}
);
leftKerningGroup = O;
rightKerningGroup = O;
unicode = 00D2;
},
{
glyphname = Ohookabove;
lastChange = "2019-09-09 11:34:22 +0000";
layers = (
{
layerId = "2BED5241-FEE2-452B-8B42-4A46EDD0955E";
paths = (
{
closed = 1;
nodes = (
"643 0 LINE",
"754 95 LINE",
"754 642 LINE",
"643 737 LINE",
"150 737 LINE",
"39 642 LINE",
"39 95 LINE",
"150 0 LINE"
);
},
{
closed = 1;
nodes = (
"324 584 LINE",
"469 584 LINE",
"469 153 LINE",
"324 153 LINE"
);
},
{
closed = 1;
nodes = (
"476 789 LINE",
"476 828 LINE",
"518 828 LINE",
"566 866 LINE",
"566 985 LINE",
"517 1027 LINE",
"294 1027 LINE",
"239 985 LINE",
"239 920 LINE",
"384 920 LINE",
"384 961 LINE",
"416 961 LINE",
"416 895 LINE",
"357 895 LINE",
"318 866 LINE",
"318 789 LINE"
);
}
);
width = 793;
}
);
unicode = 1ECE;
},
{
glyphname = Ohorn;
lastChange = "2019-09-09 11:34:22 +0000";
layers = (
{
layerId = "2BED5241-FEE2-452B-8B42-4A46EDD0955E";
paths = (
{
closed = 1;
nodes = (
"643 0 LINE",
"754 95 LINE",
"754 595 LINE",
"847 595 LINE",
"1000 801 LINE",
"779 801 LINE",
"744 683 LINE",
"706.095 683 LINE",
"643 737 LINE",
"150 737 LINE",
"39 642 LINE",
"39 95 LINE",
"150 0 LINE"
);
},
{
closed = 1;
nodes = (
"324 584 LINE",
"469 584 LINE",
"469 153 LINE",
"324 153 LINE"
);
}
);
width = 793;
}
);
unicode = 01A0;
},
{
glyphname = Ohornacute;
lastChange = "2019-09-09 11:34:22 +0000";
layers = (
{
layerId = "2BED5241-FEE2-452B-8B42-4A46EDD0955E";
paths = (
{
closed = 1;
nodes = (
"643 0 LINE",
"754 95 LINE",
"754 595 LINE",
"847 595 LINE",
"1000 801 LINE",
"779 801 LINE",
"744 683 LINE",
"706.095 683 LINE",
"643 737 LINE",
"150 737 LINE",
"39 642 LINE",
"39 95 LINE",
"150 0 LINE"
);
},
{
closed = 1;
nodes = (
"324 584 LINE",
"469 584 LINE",
"469 153 LINE",
"324 153 LINE"
);
},
{
closed = 1;
nodes = (
"481 789 LINE",
"643 952 LINE",
"418 952 LINE",
"309 789 LINE"
);
}
);
width = 793;
}
);
unicode = 1EDA;
},
{
glyphname = Ohorndotbelow;
lastChange = "2019-09-09 11:34:22 +0000";
layers = (
{
layerId = "2BED5241-FEE2-452B-8B42-4A46EDD0955E";
paths = (
{
closed = 1;
nodes = (
"643 0 LINE",
"754 95 LINE",
"754 595 LINE",
"847 595 LINE",
"1000 801 LINE",
"779 801 LINE",
"744 683 LINE",
"706.095 683 LINE",
"643 737 LINE",
"150 737 LINE",
"39 642 LINE",
"39 95 LINE",
"150 0 LINE"
);
},
{
closed = 1;
nodes = (
"528.5 -209.013 LINE",
"528.5 -51.013 LINE",
"265.5 -51.013 LINE",
"265.5 -209.013 LINE"
);
},
{
closed = 1;
nodes = (
"324 584 LINE",
"469 584 LINE",
"469 153 LINE",
"324 153 LINE"
);
}
);
width = 793;
}
);
unicode = 1EE2;
},
{
glyphname = Ohorngrave;
lastChange = "2019-09-09 11:34:22 +0000";
layers = (
{
layerId = "2BED5241-FEE2-452B-8B42-4A46EDD0955E";
paths = (
{
closed = 1;
nodes = (
"643 0 LINE",
"754 95 LINE",
"754 595 LINE",
"847 595 LINE",
"1000 801 LINE",
"779 801 LINE",
"744 683 LINE",
"706.095 683 LINE",
"643 737 LINE",
"150 737 LINE",
"39 642 LINE",
"39 95 LINE",
"150 0 LINE"
);
},
{
closed = 1;
nodes = (
"324 584 LINE",
"469 584 LINE",
"469 153 LINE",
"324 153 LINE"
);
},
{
closed = 1;
nodes = (
"486 789 LINE",
"377 952 LINE",
"152 952 LINE",
"314 789 LINE"
);
}
);
width = 793;
}
);
unicode = 1EDC;
},
{
glyphname = Ohornhookabove;
lastChange = "2019-09-09 11:34:22 +0000";
layers = (
{
layerId = "2BED5241-FEE2-452B-8B42-4A46EDD0955E";
paths = (
{
closed = 1;
nodes = (
"643 0 LINE",
"754 95 LINE",
"754 595 LINE",
"847 595 LINE",
"1000 801 LINE",
"779 801 LINE",
"744 683 LINE",
"706.095 683 LINE",
"643 737 LINE",
"150 737 LINE",
"39 642 LINE",
"39 95 LINE",
"150 0 LINE"
);
},
{
closed = 1;
nodes = (
"324 584 LINE",
"469 584 LINE",
"469 153 LINE",
"324 153 LINE"
);
},
{
closed = 1;
nodes = (
"476 789 LINE",
"476 828 LINE",
"518 828 LINE",
"566 866 LINE",
"566 985 LINE",
"517 1027 LINE",
"294 1027 LINE",
"239 985 LINE",
"239 920 LINE",
"384 920 LINE",
"384 961 LINE",
"416 961 LINE",
"416 895 LINE",
"357 895 LINE",
"318 866 LINE",
"318 789 LINE"
);
}
);
width = 793;
}
);
unicode = 1EDE;
},
{
glyphname = Ohorntilde;
lastChange = "2019-09-09 11:34:22 +0000";
layers = (
{
layerId = "2BED5241-FEE2-452B-8B42-4A46EDD0955E";
paths = (
{
closed = 1;
nodes = (
"643 0 LINE",
"754 95 LINE",
"754 595 LINE",
"847 595 LINE",
"1000 801 LINE",
"779 801 LINE",
"744 683 LINE",
"706.095 683 LINE",
"643 737 LINE",
"150 737 LINE",
"39 642 LINE",
"39 95 LINE",
"150 0 LINE"
);
},
{
closed = 1;
nodes = (
"324 584 LINE",
"469 584 LINE",
"469 153 LINE",
"324 153 LINE"
);
},
{
closed = 1;
nodes = (
"567 789 LINE",
"651 861 LINE",
"651 950 LINE",
"504 950 LINE",
"504 917 LINE",
"488 902 LINE",
"470 902 LINE",
"421 957 LINE",
"228 957 LINE",
"145 883 LINE",
"145 795 LINE",
"292 795 LINE",
"292 827 LINE",
"308 843 LINE",
"325 843 LINE",
"375 789 LINE"
);
}
);
width = 793;
}
);
unicode = 1EE0;
},
{
glyphname = Ohungarumlaut;
lastChange = "2019-09-09 11:34:22 +0000";
layers = (
{
layerId = "2BED5241-FEE2-452B-8B42-4A46EDD0955E";
paths = (
{
closed = 1;
nodes = (
"643 0 LINE",
"754 95 LINE",
"754 642 LINE",
"643 737 LINE",
"150 737 LINE",
"39 642 LINE",
"39 95 LINE",
"150 0 LINE"
);
},
{
closed = 1;
nodes = (
"324 584 LINE",
"469 584 LINE",
"469 153 LINE",
"324 153 LINE"
);
},
{
closed = 1;
nodes = (
"360 789 LINE",
"524 954 LINE",
"284 954 LINE",
"187 789 LINE"
);
},
{
closed = 1;
nodes = (
"623 789 LINE",
"787 954 LINE",
"547 954 LINE",
"450 789 LINE"
);
}
);
width = 793;
}
);
leftKerningGroup = O;
rightKerningGroup = O;
unicode = 0150;
},
{
glyphname = Oinvertedbreve;
lastChange = "2019-09-09 11:34:22 +0000";
layers = (
{
layerId = "2BED5241-FEE2-452B-8B42-4A46EDD0955E";
paths = (
{
closed = 1;
nodes = (
"643 0 LINE",
"754 95 LINE",
"754 642 LINE",
"643 737 LINE",
"150 737 LINE",
"39 642 LINE",
"39 95 LINE",
"150 0 LINE"
);
},
{
closed = 1;
nodes = (
"324 584 LINE",
"469 584 LINE",
"469 153 LINE",
"324 153 LINE"
);
},
{
closed = 1;
nodes = (
"346 789 LINE",
"346 841 LINE",
"448 841 LINE",
"448 789 LINE",
"639 789 LINE",
"639 864 LINE",
"536 952 LINE",
"258 952 LINE",
"155 864 LINE",
"155 789 LINE"
);
}
);
width = 793;
}
);
unicode = 020E;
},
{
glyphname = Omacron;
lastChange = "2019-09-09 11:34:22 +0000";
layers = (
{
layerId = "2BED5241-FEE2-452B-8B42-4A46EDD0955E";
paths = (
{
closed = 1;
nodes = (
"643 0 LINE",
"754 95 LINE",
"754 642 LINE",
"643 737 LINE",
"150 737 LINE",
"39 642 LINE",
"39 95 LINE",
"150 0 LINE"
);
},
{
closed = 1;
nodes = (
"324 584 LINE",
"469 584 LINE",
"469 153 LINE",
"324 153 LINE"
);
},
{
closed = 1;
nodes = (
"670 789 LINE",
"670 938 LINE",
"124 938 LINE",
"124 789 LINE"
);
}
);
width = 793;
}
);
leftKerningGroup = O;
rightKerningGroup = O;
unicode = 014C;
},
{
glyphname = Oogonek;
lastChange = "2019-09-09 11:34:22 +0000";
layers = (
{
layerId = "2BED5241-FEE2-452B-8B42-4A46EDD0955E";
paths = (
{
closed = 1;
nodes = (
"652 -191 LINE",
"652 -64 LINE",
"629 -64 LINE",
"613 -50 LINE",
"613 -26 LINE",
"754 95 LINE",
"754 642 LINE",
"643 737 LINE",
"150 737 LINE",
"39 642 LINE",
"39 95 LINE",
"150 0 LINE",
"523 0 LINE",
"478 -33 LINE",
"478 -122 LINE",
"561 -191 LINE"
);
},
{
closed = 1;
nodes = (
"324 584 LINE",
"469 584 LINE",
"469 153 LINE",
"324 153 LINE"
);
}
);
width = 793;
}
);
unicode = 01EA;
},
{
glyphname = Oslash;
lastChange = "2019-09-09 11:34:22 +0000";
layers = (
{
layerId = "2BED5241-FEE2-452B-8B42-4A46EDD0955E";
paths = (
{
closed = 1;
nodes = (
"643 0 LINE",
"754 95 LINE",
"754 642 LINE",
"643 737 LINE",
"150 737 LINE",
"39 642 LINE",
"39 95 LINE",
"150 0 LINE"
);
},
{
closed = 1;
nodes = (
"469 374.571 LINE",
"469 153 LINE",
"330.547 153 LINE"
);
},
{
closed = 1;
nodes = (
"324 584 LINE",
"462.453 584 LINE",
"324 362.429 LINE"
);
}
);
width = 793;
}
);
leftKerningGroup = O;
leftMetricsKey = O;
rightKerningGroup = O;
rightMetricsKey = O;
unicode = 00D8;
},
{
glyphname = Oslashacute;
lastChange = "2019-09-09 11:34:22 +0000";
layers = (
{
layerId = "2BED5241-FEE2-452B-8B42-4A46EDD0955E";
paths = (
{
closed = 1;
nodes = (
"643 0 LINE",
"754 95 LINE",
"754 642 LINE",
"643 737 LINE",
"150 737 LINE",
"39 642 LINE",
"39 95 LINE",
"150 0 LINE"
);
},
{
closed = 1;
nodes = (
"469 374.571 LINE",
"469 153 LINE",
"330.547 153 LINE"
);
},
{
closed = 1;
nodes = (
"324 584 LINE",
"462.453 584 LINE",
"324 362.429 LINE"
);
},
{
closed = 1;
nodes = (
"481 789 LINE",
"643 952 LINE",
"418 952 LINE",
"309 789 LINE"
);
}
);
width = 793;
}
);
unicode = 01FE;
},
{
glyphname = Otilde;
lastChange = "2019-09-09 11:34:22 +0000";
layers = (
{
layerId = "2BED5241-FEE2-452B-8B42-4A46EDD0955E";
paths = (
{
closed = 1;
nodes = (
"643 0 LINE",
"754 95 LINE",
"754 642 LINE",
"643 737 LINE",
"150 737 LINE",
"39 642 LINE",
"39 95 LINE",
"150 0 LINE"
);
},
{
closed = 1;
nodes = (
"324 584 LINE",
"469 584 LINE",
"469 153 LINE",
"324 153 LINE"
);
},
{
closed = 1;
nodes = (
"567 789 LINE",
"651 861 LINE",
"651 950 LINE",
"504 950 LINE",
"504 917 LINE",
"488 902 LINE",
"470 902 LINE",
"421 957 LINE",
"228 957 LINE",
"145 883 LINE",
"145 795 LINE",
"292 795 LINE",
"292 827 LINE",
"308 843 LINE",
"325 843 LINE",
"375 789 LINE"
);
}
);
width = 793;
}
);
leftKerningGroup = O;
rightKerningGroup = O;
unicode = 00D5;
},
{
glyphname = Otildemacron;
lastChange = "2019-09-09 11:34:22 +0000";
layers = (
{
layerId = "2BED5241-FEE2-452B-8B42-4A46EDD0955E";
paths = (
{
closed = 1;
nodes = (
"643 0 LINE",
"754 95 LINE",
"754 642 LINE",
"643 737 LINE",
"150 737 LINE",
"39 642 LINE",
"39 95 LINE",
"150 0 LINE"
);
},
{
closed = 1;
nodes = (
"324 584 LINE",
"469 584 LINE",
"469 153 LINE",
"324 153 LINE"
);
},
{
closed = 1;
nodes = (
"567 789 LINE",
"651 861 LINE",
"651 950 LINE",
"504 950 LINE",
"504 917 LINE",
"488 902 LINE",
"470 902 LINE",
"421 957 LINE",
"228 957 LINE",
"145 883 LINE",
"145 795 LINE",
"292 795 LINE",
"292 827 LINE",
"308 843 LINE",
"325 843 LINE",
"375 789 LINE"
);
},
{
closed = 1;
nodes = (
"669.5 989.165 LINE",
"669.5 1138.165 LINE",
"123.5 1138.165 LINE",
"123.5 989.165 LINE"
);
}
);
width = 793;
}
);
unicode = 022C;
},
{
glyphname = OE;
lastChange = "2019-09-09 11:34:22 +0000";
layers = (
{
layerId = "2BED5241-FEE2-452B-8B42-4A46EDD0955E";
paths = (
{
closed = 1;
nodes = (
"1112 0 LINE",
"1112 208 LINE",
"754 208 LINE",
"754 288 LINE",
"1070 288 LINE",
"1070 447 LINE",
"754 447 LINE",
"754 529 LINE",
"1112 529 LINE",
"1112 737 LINE",
"150 737 LINE",
"39 642 LINE",
"39 95 LINE",
"150 0 LINE"
);
},
{
closed = 1;
nodes = (
"324 584 LINE",
"468.5 584 LINE",
"468.5 153 LINE",
"324 153 LINE"
);
}
);
width = 1156;
}
);
leftKerningGroup = O;
leftMetricsKey = O;
rightKerningGroup = E;
rightMetricsKey = E;
unicode = 0152;
},
{
glyphname = P;
lastChange = "2019-09-09 11:34:22 +0000";
layers = (
{
layerId = "2BED5241-FEE2-452B-8B42-4A46EDD0955E";
paths = (
{
closed = 1;
nodes = (
"334.9 0 LINE",
"334.9 205 LINE",
"638.5 205 LINE",
"749.5 299 LINE",
"749.5 642 LINE",
"638.5 737 LINE",
"50 737 LINE",
"50 0 LINE"
);
},
{
closed = 1;
nodes = (
"334.9 584 LINE",
"475.5 584 LINE",
"475.5 357 LINE",
"334.9 357 LINE"
);
}
);
width = 766.5;
}
);
leftKerningGroup = H;
leftMetricsKey = H;
unicode = 0050;
},
{
glyphname = Thorn;
lastChange = "2019-09-03 20:52:33 +0000";
layers = (
{
layerId = "2BED5241-FEE2-452B-8B42-4A46EDD0955E";
paths = (
{
closed = 1;
nodes = (
"334.9 0 LINE",
"334.9 113 LINE",
"638.5 113 LINE",
"749.5 208 LINE",
"749.5 552 LINE",
"638.5 647 LINE",
"334.9 647 LINE",
"334.9 737 LINE",
"50 737 LINE",
"50 0 LINE"
);
},
{
closed = 1;
nodes = (
"334.9 516 LINE",
"475.5 516 LINE",
"475.5 244 LINE",
"334.9 244 LINE"
);
}
);
width = 766.5;
}
);
leftMetricsKey = P;
rightMetricsKey = P;
unicode = 00DE;
},
{
glyphname = Q;
lastChange = "2019-09-09 11:34:22 +0000";
layers = (
{
layerId = "2BED5241-FEE2-452B-8B42-4A46EDD0955E";
paths = (
{
closed = 1;
nodes = (
"508 -106 LINE",
"508 0 LINE",
"643 0 LINE",
"754 95 LINE",
"754 642 LINE",
"643 737 LINE",
"150 737 LINE",
"39 642 LINE",
"39 95 LINE",
"150 0 LINE",
"285 0 LINE",
"285 -106 LINE"
);
},
{
closed = 1;
nodes = (
"324 584 LINE",
"469 584 LINE",
"469 153 LINE",
"324 153 LINE"
);
}
);
width = 793;
}
);
leftKerningGroup = O;
leftMetricsKey = O;
rightKerningGroup = O;
rightMetricsKey = O;
unicode = 0051;
},
{
glyphname = R;
lastChange = "2019-09-09 11:34:22 +0000";
layers = (
{
layerId = "2BED5241-FEE2-452B-8B42-4A46EDD0955E";
paths = (
{
closed = 1;
nodes = (
"334.9 0 LINE",
"334.9 228 LINE",
"430.634 228 LINE",
"505.5 0 LINE",
"785.5 0 LINE",
"688.708 267.978 LINE",
"752.5 322 LINE",
"752.5 642 LINE",
"641.5 737 LINE",
"50 737 LINE",
"50 0 LINE"
);
},
{
closed = 1;
nodes = (
"334.9 584 LINE",
"478.5 584 LINE",
"478.5 381 LINE",
"334.9 381 LINE"
);
}
);
width = 796.5;
}
);
leftKerningGroup = H;
leftMetricsKey = H;
rightKerningGroup = R;
unicode = 0052;
},
{
glyphname = Racute;
lastChange = "2019-09-09 11:34:22 +0000";
layers = (
{
layerId = "2BED5241-FEE2-452B-8B42-4A46EDD0955E";
paths = (
{
closed = 1;
nodes = (
"334.9 0 LINE",
"334.9 228 LINE",
"430.634 228 LINE",
"505.5 0 LINE",
"785.5 0 LINE",
"688.708 267.978 LINE",
"752.5 322 LINE",
"752.5 642 LINE",
"641.5 737 LINE",
"50 737 LINE",
"50 0 LINE"
);
},
{
closed = 1;
nodes = (
"334.9 584 LINE",
"478.5 584 LINE",
"478.5 381 LINE",
"334.9 381 LINE"
);
},
{
closed = 1;
nodes = (
"470.5 789 LINE",
"632.5 952 LINE",
"407.5 952 LINE",
"298.5 789 LINE"
);
}
);
width = 796.5;
}
);
rightKerningGroup = R;
unicode = 0154;
},
{
glyphname = Rcaron;
lastChange = "2019-10-06 17:58:03 +0000";
layers = (
{
layerId = "2BED5241-FEE2-452B-8B42-4A46EDD0955E";
paths = (
{
closed = 1;
nodes = (
"334.9 0 LINE",
"334.9 228 LINE",
"430.634 228 LINE",
"505.5 0 LINE",
"785.5 0 LINE",
"688.708 267.978 LINE",
"752.5 322 LINE",
"752.5 642 LINE",
"641.5 737 LINE",
"50 737 LINE",
"50 0 LINE"
);
},
{
closed = 1;
nodes = (
"334.9 584 LINE",
"478.5 584 LINE",
"478.5 381 LINE",
"334.9 381 LINE"
);
},
{
closed = 1;
nodes = (
"526.5 789 LINE",
"649.5 952 LINE",
"462.5 952 LINE",
"386.5 876 LINE",
"310.5 952 LINE",
"123.5 952 LINE",
"246.5 789 LINE"
);
}
);
width = 796.5;
}
);
rightKerningGroup = R;
unicode = 0158;
},
{
glyphname = Rcommaaccent;
lastChange = "2019-09-09 11:34:22 +0000";
layers = (
{
layerId = "2BED5241-FEE2-452B-8B42-4A46EDD0955E";
paths = (
{
closed = 1;
nodes = (
"334.9 0 LINE",
"334.9 228 LINE",
"430.634 228 LINE",
"505.5 0 LINE",
"785.5 0 LINE",
"688.708 267.978 LINE",
"752.5 322 LINE",
"752.5 642 LINE",
"641.5 737 LINE",
"50 737 LINE",
"50 0 LINE"
);
},
{
closed = 1;
nodes = (
"389.5 -234 LINE",
"522.5 -52 LINE",
"300.5 -52 LINE",
"249.5 -234 LINE"
);
},
{
closed = 1;
nodes = (
"334.9 584 LINE",
"478.5 584 LINE",
"478.5 381 LINE",
"334.9 381 LINE"
);
}
);
width = 796.5;
}
);
rightKerningGroup = R;
unicode = 0156;
},
{
glyphname = Rdblgrave;
lastChange = "2019-09-09 11:34:22 +0000";
layers = (
{
layerId = "2BED5241-FEE2-452B-8B42-4A46EDD0955E";
paths = (
{
closed = 1;
nodes = (
"334.9 0 LINE",
"334.9 228 LINE",
"430.634 228 LINE",
"505.5 0 LINE",
"785.5 0 LINE",
"688.708 267.978 LINE",
"752.5 322 LINE",
"752.5 642 LINE",
"641.5 737 LINE",
"50 737 LINE",
"50 0 LINE"
);
},
{
closed = 1;
nodes = (
"334.9 584 LINE",
"478.5 584 LINE",
"478.5 381 LINE",
"334.9 381 LINE"
);
},
{
closed = 1;
nodes = (
"327 789 LINE",
"219 952 LINE",
"4 952 LINE",
"167 789 LINE"
);
},
{
closed = 1;
nodes = (
"604 789 LINE",
"495 952 LINE",
"280 952 LINE",
"443 789 LINE"
);
}
);
width = 796.5;
}
);
unicode = 0210;
},
{
glyphname = Rinvertedbreve;
lastChange = "2019-09-09 11:34:22 +0000";
layers = (
{
layerId = "2BED5241-FEE2-452B-8B42-4A46EDD0955E";
paths = (
{
closed = 1;
nodes = (
"334.9 0 LINE",
"334.9 228 LINE",
"430.634 228 LINE",
"505.5 0 LINE",
"785.5 0 LINE",
"688.708 267.978 LINE",
"752.5 322 LINE",
"752.5 642 LINE",
"641.5 737 LINE",
"50 737 LINE",
"50 0 LINE"
);
},
{
closed = 1;
nodes = (
"334.9 584 LINE",
"478.5 584 LINE",
"478.5 381 LINE",
"334.9 381 LINE"
);
},
{
closed = 1;
nodes = (
"328.5 789 LINE",
"328.5 841 LINE",
"430.5 841 LINE",
"430.5 789 LINE",
"621.5 789 LINE",
"621.5 864 LINE",
"518.5 952 LINE",
"240.5 952 LINE",
"137.5 864 LINE",
"137.5 789 LINE"
);
}
);
width = 796.5;
}
);
unicode = 0212;
},
{
glyphname = S;
lastChange = "2019-09-09 11:34:22 +0000";
layers = (
{
layerId = "2BED5241-FEE2-452B-8B42-4A46EDD0955E";
paths = (
{
closed = 1;
nodes = (
"592 0 LINE",
"703 95 LINE",
"703 370 LINE",
"592 464 LINE",
"309 465 LINE",
"309 546 LINE",
"667 546 LINE",
"667 737 LINE",
"144 737 LINE",
"33 642 LINE",
"33 376 LINE",
"144 282 LINE",
"426 281 LINE",
"426 193 LINE",
"64 193 LINE",
"64 0 LINE"
);
}
);
width = 736;
}
);
leftKerningGroup = S;
rightKerningGroup = S;
unicode = 0053;
},
{
glyphname = Sacute;
lastChange = "2019-09-09 11:34:22 +0000";
layers = (
{
layerId = "2BED5241-FEE2-452B-8B42-4A46EDD0955E";
paths = (
{
closed = 1;
nodes = (
"592 0 LINE",
"703 95 LINE",
"703 370 LINE",
"592 464 LINE",
"309 465 LINE",
"309 546 LINE",
"667 546 LINE",
"667 737 LINE",
"144 737 LINE",
"33 642 LINE",
"33 376 LINE",
"144 282 LINE",
"426 281 LINE",
"426 193 LINE",
"64 193 LINE",
"64 0 LINE"
);
},
{
closed = 1;
nodes = (
"450 789 LINE",
"612 952 LINE",
"387 952 LINE",
"278 789 LINE"
);
}
);
width = 736;
}
);
leftKerningGroup = S;
rightKerningGroup = S;
unicode = 015A;
},
{
glyphname = Scaron;
lastChange = "2019-10-06 17:58:18 +0000";
layers = (
{
layerId = "2BED5241-FEE2-452B-8B42-4A46EDD0955E";
paths = (
{
closed = 1;
nodes = (
"592 0 LINE",
"703 95 LINE",
"703 370 LINE",
"592 464 LINE",
"309 465 LINE",
"309 546 LINE",
"667 546 LINE",
"667 737 LINE",
"144 737 LINE",
"33 642 LINE",
"33 376 LINE",
"144 282 LINE",
"426 281 LINE",
"426 193 LINE",
"64 193 LINE",
"64 0 LINE"
);
},
{
closed = 1;
nodes = (
"506 789 LINE",
"629 952 LINE",
"442 952 LINE",
"366 876 LINE",
"290 952 LINE",
"103 952 LINE",
"226 789 LINE"
);
}
);
width = 736;
}
);
leftKerningGroup = S;
rightKerningGroup = S;
unicode = 0160;
},
{
glyphname = Scedilla;
lastChange = "2019-09-09 11:34:22 +0000";
layers = (
{
layerId = "2BED5241-FEE2-452B-8B42-4A46EDD0955E";
paths = (
{
closed = 1;
nodes = (
"409 -125 LINE",
"472 0 LINE",
"592 0 LINE",
"703 95 LINE",
"703 370 LINE",
"592 464 LINE",
"309 465 LINE",
"309 546 LINE",
"667 546 LINE",
"667 737 LINE",
"144 737 LINE",
"33 642 LINE",
"33 376 LINE",
"144 282 LINE",
"426 281 LINE",
"426 193 LINE",
"64 193 LINE",
"64 0 LINE",
"265 0 LINE",
"245 -125 LINE"
);
}
);
width = 736;
}
);
leftKerningGroup = S;
rightKerningGroup = S;
unicode = 015E;
},
{
glyphname = Scircumflex;
lastChange = "2019-09-09 11:34:22 +0000";
layers = (
{
layerId = "2BED5241-FEE2-452B-8B42-4A46EDD0955E";
paths = (
{
closed = 1;
nodes = (
"592 0 LINE",
"703 95 LINE",
"703 370 LINE",
"592 464 LINE",
"309 465 LINE",
"309 546 LINE",
"667 546 LINE",
"667 737 LINE",
"144 737 LINE",
"33 642 LINE",
"33 376 LINE",
"144 282 LINE",
"426 281 LINE",
"426 193 LINE",
"64 193 LINE",
"64 0 LINE"
);
},
{
closed = 1;
nodes = (
"290 789 LINE",
"366 865 LINE",
"442 789 LINE",
"629 789 LINE",
"506 952 LINE",
"226 952 LINE",
"103 789 LINE"
);
}
);
width = 736;
}
);
leftKerningGroup = S;
rightKerningGroup = S;
unicode = 015C;
},
{
glyphname = Scommaaccent;
lastChange = "2019-09-09 11:34:22 +0000";
layers = (
{
layerId = "2BED5241-FEE2-452B-8B42-4A46EDD0955E";
paths = (
{
closed = 1;
nodes = (
"592 0 LINE",
"703 95 LINE",
"703 370 LINE",
"592 464 LINE",
"309 465 LINE",
"309 546 LINE",
"667 546 LINE",
"667 737 LINE",
"144 737 LINE",
"33 642 LINE",
"33 376 LINE",
"144 282 LINE",
"426 281 LINE",
"426 193 LINE",
"64 193 LINE",
"64 0 LINE"
);
},
{
closed = 1;
nodes = (
"347 -234 LINE",
"480 -52 LINE",
"258 -52 LINE",
"207 -234 LINE"
);
}
);
width = 736;
}
);
leftKerningGroup = S;
rightKerningGroup = S;
unicode = 0218;
},
{
glyphname = Germandbls;
lastChange = "2019-08-14 13:06:36 +0000";
layers = (
{
layerId = "2BED5241-FEE2-452B-8B42-4A46EDD0955E";
paths = (
{
closed = 1;
nodes = (
"348 0 LINE",
"348 606 LINE",
"447 606 LINE",
"447 559 LINE",
"384 442 LINE",
"384 311 LINE",
"459 311 LINE",
"460 131 LINE",
"384 131 LINE",
"384 0 LINE",
"656 0 LINE",
"767 95 LINE",
"767 289 LINE",
"634.698 401.457 LINE",
"705 528 LINE",
"705 642 LINE",
"593 737 LINE",
"161 737 LINE",
"50 642 LINE",
"50 0 LINE"
);
}
);
width = 806;
}
);
leftMetricsKey = H;
rightMetricsKey = B;
unicode = 1E9E;
},
{
glyphname = Schwa;
lastChange = "2019-09-03 21:20:28 +0000";
layers = (
{
layerId = "2BED5241-FEE2-452B-8B42-4A46EDD0955E";
paths = (
{
closed = 1;
nodes = (
"643 0 LINE",
"754 95 LINE",
"754 642 LINE",
"643 737 LINE",
"47 737 LINE",
"47 540 LINE",
"469 540 LINE",
"469 448 LINE",
"39 448 LINE",
"39 95 LINE",
"150 0 LINE"
);
},
{
closed = 1;
nodes = (
"324 289 LINE",
"469 289 LINE",
"469 153 LINE",
"324 153 LINE"
);
}
);
width = 793;
}
);
leftMetricsKey = O;
rightMetricsKey = O;
unicode = 018F;
},
{
glyphname = T;
lastChange = "2019-09-09 11:34:22 +0000";
layers = (
{
layerId = "2BED5241-FEE2-452B-8B42-4A46EDD0955E";
paths = (
{
closed = 1;
nodes = (
"496.95 0 LINE",
"496.95 540 LINE",
"692 540 LINE",
"692 737 LINE",
"17 737 LINE",
"17 540 LINE",
"212.05 540 LINE",
"212.05 0 LINE"
);
}
);
width = 709;
}
);
leftKerningGroup = T;
rightKerningGroup = T;
unicode = 0054;
},
{
glyphname = Tbar;
lastChange = "2019-09-09 11:34:22 +0000";
layers = (
{
layerId = "2BED5241-FEE2-452B-8B42-4A46EDD0955E";
paths = (
{
closed = 1;
nodes = (
"496.95 0 LINE",
"496.95 234 LINE",
"641.5 234 LINE",
"641.5 403 LINE",
"496.95 403 LINE",
"496.95 540 LINE",
"692 540 LINE",
"692 737 LINE",
"17 737 LINE",
"17 540 LINE",
"212.05 540 LINE",
"212.05 403 LINE",
"67.5 403 LINE",
"67.5 234 LINE",
"212.05 234 LINE",
"212.05 0 LINE"
);
}
);
width = 709;
}
);
leftKerningGroup = T;
leftMetricsKey = T;
rightKerningGroup = T;
rightMetricsKey = T;
unicode = 0166;
},
{
glyphname = Tcaron;
lastChange = "2019-10-06 17:58:20 +0000";
layers = (
{
layerId = "2BED5241-FEE2-452B-8B42-4A46EDD0955E";
paths = (
{
closed = 1;
nodes = (
"496.95 0 LINE",
"496.95 540 LINE",
"692 540 LINE",
"692 737 LINE",
"17 737 LINE",
"17 540 LINE",
"212.05 540 LINE",
"212.05 0 LINE"
);
},
{
closed = 1;
nodes = (
"494.5 789 LINE",
"617.5 952 LINE",
"430.5 952 LINE",
"354.5 876 LINE",
"278.5 952 LINE",
"91.5 952 LINE",
"214.5 789 LINE"
);
}
);
width = 709;
}
);
leftKerningGroup = T;
rightKerningGroup = T;
unicode = 0164;
},
{
glyphname = Tcedilla;
lastChange = "2019-09-09 11:34:22 +0000";
layers = (
{
layerId = "2BED5241-FEE2-452B-8B42-4A46EDD0955E";
paths = (
{
closed = 1;
nodes = (
"434 -125 LINE",
"497 0 LINE",
"497 540 LINE",
"692 540 LINE",
"692 737 LINE",
"17 737 LINE",
"17 540 LINE",
"212 540 LINE",
"212 0 LINE",
"290 0 LINE",
"270 -125 LINE"
);
}
);
width = 709;
}
);
leftKerningGroup = T;
rightKerningGroup = T;
unicode = 0162;
},
{
glyphname = Tcommaaccent;
lastChange = "2019-09-09 11:34:22 +0000";
layers = (
{
layerId = "2BED5241-FEE2-452B-8B42-4A46EDD0955E";
paths = (
{
closed = 1;
nodes = (
"496.95 0 LINE",
"496.95 540 LINE",
"692 540 LINE",
"692 737 LINE",
"17 737 LINE",
"17 540 LINE",
"212.05 540 LINE",
"212.05 0 LINE"
);
},
{
closed = 1;
nodes = (
"333.5 -234 LINE",
"466.5 -52 LINE",
"244.5 -52 LINE",
"193.5 -234 LINE"
);
}
);
width = 709;
}
);
leftKerningGroup = T;
leftMetricsKey = T;
rightKerningGroup = T;
rightMetricsKey = T;
unicode = 021A;
},
{
glyphname = U;
lastChange = "2019-09-09 11:34:22 +0000";
layers = (
{
layerId = "2BED5241-FEE2-452B-8B42-4A46EDD0955E";
paths = (
{
closed = 1;
nodes = (
"642 0 LINE",
"753 95 LINE",
"753 737 LINE",
"468 737 LINE",
"468 153 LINE",
"335 153 LINE",
"335 737 LINE",
"50 737 LINE",
"50 95 LINE",
"161 0 LINE"
);
}
);
width = 803;
}
);
leftKerningGroup = U;
rightKerningGroup = U;
unicode = 0055;
},
{
glyphname = Uacute;
lastChange = "2019-09-09 11:34:22 +0000";
layers = (
{
layerId = "2BED5241-FEE2-452B-8B42-4A46EDD0955E";
paths = (
{
closed = 1;
nodes = (
"642 0 LINE",
"753 95 LINE",
"753 737 LINE",
"468 737 LINE",
"468 153 LINE",
"335 153 LINE",
"335 737 LINE",
"50 737 LINE",
"50 95 LINE",
"161 0 LINE"
);
},
{
closed = 1;
nodes = (
"486 789 LINE",
"648 952 LINE",
"423 952 LINE",
"314 789 LINE"
);
}
);
width = 803;
}
);
leftKerningGroup = U;
rightKerningGroup = U;
unicode = 00DA;
},
{
glyphname = Ubreve;
lastChange = "2019-09-09 11:34:22 +0000";
layers = (
{
layerId = "2BED5241-FEE2-452B-8B42-4A46EDD0955E";
paths = (
{
closed = 1;
nodes = (
"642 0 LINE",
"753 95 LINE",
"753 737 LINE",
"468 737 LINE",
"468 153 LINE",
"335 153 LINE",
"335 737 LINE",
"50 737 LINE",
"50 95 LINE",
"161 0 LINE"
);
},
{
closed = 1;
nodes = (
"541 789 LINE",
"644 877 LINE",
"644 952 LINE",
"453 952 LINE",
"453 900 LINE",
"351 900 LINE",
"351 952 LINE",
"160 952 LINE",
"160 877 LINE",
"263 789 LINE"
);
}
);
width = 803;
}
);
unicode = 016C;
},
{
glyphname = Ucircumflex;
lastChange = "2019-09-09 11:34:22 +0000";
layers = (
{
layerId = "2BED5241-FEE2-452B-8B42-4A46EDD0955E";
paths = (
{
closed = 1;
nodes = (
"642 0 LINE",
"753 95 LINE",
"753 737 LINE",
"468 737 LINE",
"468 153 LINE",
"335 153 LINE",
"335 737 LINE",
"50 737 LINE",
"50 95 LINE",
"161 0 LINE"
);
},
{
closed = 1;
nodes = (
"326 789 LINE",
"402 865 LINE",
"478 789 LINE",
"665 789 LINE",
"542 952 LINE",
"262 952 LINE",
"139 789 LINE"
);
}
);
width = 803;
}
);
leftKerningGroup = U;
rightKerningGroup = U;
unicode = 00DB;
},
{
glyphname = Udblgrave;
lastChange = "2019-09-09 11:34:22 +0000";
layers = (
{
layerId = "2BED5241-FEE2-452B-8B42-4A46EDD0955E";
paths = (
{
closed = 1;
nodes = (
"642 0 LINE",
"753 95 LINE",
"753 737 LINE",
"468 737 LINE",
"468 153 LINE",
"335 153 LINE",
"335 737 LINE",
"50 737 LINE",
"50 95 LINE",
"161 0 LINE"
);
},
{
closed = 1;
nodes = (
"335 789 LINE",
"227 952 LINE",
"12 952 LINE",
"175 789 LINE"
);
},
{
closed = 1;
nodes = (
"612 789 LINE",
"503 952 LINE",
"288 952 LINE",
"451 789 LINE"
);
}
);
width = 803;
}
);
unicode = 0214;
},
{
glyphname = Udieresis;
lastChange = "2019-09-09 11:34:22 +0000";
layers = (
{
layerId = "2BED5241-FEE2-452B-8B42-4A46EDD0955E";
paths = (
{
closed = 1;
nodes = (
"642 0 LINE",
"753 95 LINE",
"753 737 LINE",
"468 737 LINE",
"468 153 LINE",
"335 153 LINE",
"335 737 LINE",
"50 737 LINE",
"50 95 LINE",
"161 0 LINE"
);
},
{
closed = 1;
nodes = (
"368 789 LINE",
"368 947 LINE",
"129 947 LINE",
"129 789 LINE"
);
},
{
closed = 1;
nodes = (
"675 789 LINE",
"675 947 LINE",
"436 947 LINE",
"436 789 LINE"
);
}
);
width = 803;
}
);
leftKerningGroup = U;
rightKerningGroup = U;
unicode = 00DC;
},
{
glyphname = Udotbelow;
lastChange = "2019-09-09 11:34:22 +0000";
layers = (
{
layerId = "2BED5241-FEE2-452B-8B42-4A46EDD0955E";
paths = (
{
closed = 1;
nodes = (
"642 0 LINE",
"753 95 LINE",
"753 737 LINE",
"468 737 LINE",
"468 153 LINE",
"335 153 LINE",
"335 737 LINE",
"50 737 LINE",
"50 95 LINE",
"161 0 LINE"
);
},
{
closed = 1;
nodes = (
"533.5 -209.013 LINE",
"533.5 -51.013 LINE",
"270.5 -51.013 LINE",
"270.5 -209.013 LINE"
);
}
);
width = 803;
}
);
unicode = 1EE4;
},
{
glyphname = Ugrave;
lastChange = "2019-09-09 11:34:22 +0000";
layers = (
{
layerId = "2BED5241-FEE2-452B-8B42-4A46EDD0955E";
paths = (
{
closed = 1;
nodes = (
"642 0 LINE",
"753 95 LINE",
"753 737 LINE",
"468 737 LINE",
"468 153 LINE",
"335 153 LINE",
"335 737 LINE",
"50 737 LINE",
"50 95 LINE",
"161 0 LINE"
);
},
{
closed = 1;
nodes = (
"491 789 LINE",
"382 952 LINE",
"157 952 LINE",
"319 789 LINE"
);
}
);
width = 803;
}
);
leftKerningGroup = U;
rightKerningGroup = U;
unicode = 00D9;
},
{
glyphname = Uhookabove;
lastChange = "2019-09-09 11:34:22 +0000";
layers = (
{
layerId = "2BED5241-FEE2-452B-8B42-4A46EDD0955E";
paths = (
{
closed = 1;
nodes = (
"642 0 LINE",
"753 95 LINE",
"753 737 LINE",
"468 737 LINE",
"468 153 LINE",
"335 153 LINE",
"335 737 LINE",
"50 737 LINE",
"50 95 LINE",
"161 0 LINE"
);
},
{
closed = 1;
nodes = (
"481 789 LINE",
"481 828 LINE",
"523 828 LINE",
"571 866 LINE",
"571 985 LINE",
"522 1027 LINE",
"299 1027 LINE",
"244 985 LINE",
"244 920 LINE",
"389 920 LINE",
"389 961 LINE",
"421 961 LINE",
"421 895 LINE",
"362 895 LINE",
"323 866 LINE",
"323 789 LINE"
);
}
);
width = 803;
}
);
unicode = 1EE6;
},
{
glyphname = Uhorn;
lastChange = "2019-09-09 11:34:22 +0000";
layers = (
{
layerId = "2BED5241-FEE2-452B-8B42-4A46EDD0955E";
paths = (
{
closed = 1;
nodes = (
"642 0 LINE",
"753 95 LINE",
"753 595 LINE",
"897 595 LINE",
"1050 801 LINE",
"829 801 LINE",
"794 683 LINE",
"753 683 LINE",
"753 737 LINE",
"468 737 LINE",
"468 153 LINE",
"335 153 LINE",
"335 737 LINE",
"50 737 LINE",
"50 95 LINE",
"161 0 LINE"
);
}
);
width = 803;
}
);
unicode = 01AF;
},
{
glyphname = Uhornacute;
lastChange = "2019-09-09 11:34:22 +0000";
layers = (
{
layerId = "2BED5241-FEE2-452B-8B42-4A46EDD0955E";
paths = (
{
closed = 1;
nodes = (
"642 0 LINE",
"753 95 LINE",
"753 595 LINE",
"897 595 LINE",
"1050 801 LINE",
"829 801 LINE",
"794 683 LINE",
"753 683 LINE",
"753 737 LINE",
"468 737 LINE",
"468 153 LINE",
"335 153 LINE",
"335 737 LINE",
"50 737 LINE",
"50 95 LINE",
"161 0 LINE"
);
},
{
closed = 1;
nodes = (
"486 789 LINE",
"648 952 LINE",
"423 952 LINE",
"314 789 LINE"
);
}
);
width = 803;
}
);
unicode = 1EE8;
},
{
glyphname = Uhorndotbelow;
lastChange = "2019-09-09 11:34:22 +0000";
layers = (
{
layerId = "2BED5241-FEE2-452B-8B42-4A46EDD0955E";
paths = (
{
closed = 1;
nodes = (
"642 0 LINE",
"753 95 LINE",
"753 595 LINE",
"897 595 LINE",
"1050 801 LINE",
"829 801 LINE",
"794 683 LINE",
"753 683 LINE",
"753 737 LINE",
"468 737 LINE",
"468 153 LINE",
"335 153 LINE",
"335 737 LINE",
"50 737 LINE",
"50 95 LINE",
"161 0 LINE"
);
},
{
closed = 1;
nodes = (
"533.5 -209.013 LINE",
"533.5 -51.013 LINE",
"270.5 -51.013 LINE",
"270.5 -209.013 LINE"
);
}
);
width = 803;
}
);
unicode = 1EF0;
},
{
glyphname = Uhorngrave;
lastChange = "2019-09-09 11:34:22 +0000";
layers = (
{
layerId = "2BED5241-FEE2-452B-8B42-4A46EDD0955E";
paths = (
{
closed = 1;
nodes = (
"642 0 LINE",
"753 95 LINE",
"753 595 LINE",
"897 595 LINE",
"1050 801 LINE",
"829 801 LINE",
"794 683 LINE",
"753 683 LINE",
"753 737 LINE",
"468 737 LINE",
"468 153 LINE",
"335 153 LINE",
"335 737 LINE",
"50 737 LINE",
"50 95 LINE",
"161 0 LINE"
);
},
{
closed = 1;
nodes = (
"491 789 LINE",
"382 952 LINE",
"157 952 LINE",
"319 789 LINE"
);
}
);
width = 803;
}
);
unicode = 1EEA;
},
{
glyphname = Uhornhookabove;
lastChange = "2019-09-09 11:34:22 +0000";
layers = (
{
layerId = "2BED5241-FEE2-452B-8B42-4A46EDD0955E";
paths = (
{
closed = 1;
nodes = (
"642 0 LINE",
"753 95 LINE",
"753 595 LINE",
"897 595 LINE",
"1050 801 LINE",
"829 801 LINE",
"794 683 LINE",
"753 683 LINE",
"753 737 LINE",
"468 737 LINE",
"468 153 LINE",
"335 153 LINE",
"335 737 LINE",
"50 737 LINE",
"50 95 LINE",
"161 0 LINE"
);
},
{
closed = 1;
nodes = (
"481 789 LINE",
"481 828 LINE",
"523 828 LINE",
"571 866 LINE",
"571 985 LINE",
"522 1027 LINE",
"299 1027 LINE",
"244 985 LINE",
"244 920 LINE",
"389 920 LINE",
"389 961 LINE",
"421 961 LINE",
"421 895 LINE",
"362 895 LINE",
"323 866 LINE",
"323 789 LINE"
);
}
);
width = 803;
}
);
unicode = 1EEC;
},
{
glyphname = Uhorntilde;
lastChange = "2019-09-09 11:34:22 +0000";
layers = (
{
layerId = "2BED5241-FEE2-452B-8B42-4A46EDD0955E";
paths = (
{
closed = 1;
nodes = (
"642 0 LINE",
"753 95 LINE",
"753 595 LINE",
"897 595 LINE",
"1050 801 LINE",
"829 801 LINE",
"794 683 LINE",
"753 683 LINE",
"753 737 LINE",
"468 737 LINE",
"468 153 LINE",
"335 153 LINE",
"335 737 LINE",
"50 737 LINE",
"50 95 LINE",
"161 0 LINE"
);
},
{
closed = 1;
nodes = (
"572 789 LINE",
"656 861 LINE",
"656 950 LINE",
"509 950 LINE",
"509 917 LINE",
"493 902 LINE",
"475 902 LINE",
"426 957 LINE",
"233 957 LINE",
"150 883 LINE",
"150 795 LINE",
"297 795 LINE",
"297 827 LINE",
"313 843 LINE",
"330 843 LINE",
"380 789 LINE"
);
}
);
width = 803;
}
);
unicode = 1EEE;
},
{
glyphname = Uhungarumlaut;
lastChange = "2019-09-09 11:34:22 +0000";
layers = (
{
layerId = "2BED5241-FEE2-452B-8B42-4A46EDD0955E";
paths = (
{
closed = 1;
nodes = (
"642 0 LINE",
"753 95 LINE",
"753 737 LINE",
"468 737 LINE",
"468 153 LINE",
"335 153 LINE",
"335 737 LINE",
"50 737 LINE",
"50 95 LINE",
"161 0 LINE"
);
},
{
closed = 1;
nodes = (
"365 789 LINE",
"529 954 LINE",
"289 954 LINE",
"192 789 LINE"
);
},
{
closed = 1;
nodes = (
"628 789 LINE",
"792 954 LINE",
"552 954 LINE",
"455 789 LINE"
);
}
);
width = 803;
}
);
leftKerningGroup = U;
rightKerningGroup = U;
unicode = 0170;
},
{
glyphname = Uinvertedbreve;
lastChange = "2019-09-09 11:34:22 +0000";
layers = (
{
layerId = "2BED5241-FEE2-452B-8B42-4A46EDD0955E";
paths = (
{
closed = 1;
nodes = (
"642 0 LINE",
"753 95 LINE",
"753 737 LINE",
"468 737 LINE",
"468 153 LINE",
"335 153 LINE",
"335 737 LINE",
"50 737 LINE",
"50 95 LINE",
"161 0 LINE"
);
},
{
closed = 1;
nodes = (
"351 789 LINE",
"351 841 LINE",
"453 841 LINE",
"453 789 LINE",
"644 789 LINE",
"644 864 LINE",
"541 952 LINE",
"263 952 LINE",
"160 864 LINE",
"160 789 LINE"
);
}
);
width = 803;
}
);
unicode = 0216;
},
{
glyphname = Umacron;
lastChange = "2019-09-09 11:34:22 +0000";
layers = (
{
layerId = "2BED5241-FEE2-452B-8B42-4A46EDD0955E";
paths = (
{
closed = 1;
nodes = (
"642 0 LINE",
"753 95 LINE",
"753 737 LINE",
"468 737 LINE",
"468 153 LINE",
"335 153 LINE",
"335 737 LINE",
"50 737 LINE",
"50 95 LINE",
"161 0 LINE"
);
},
{
closed = 1;
nodes = (
"675 789 LINE",
"675 938 LINE",
"129 938 LINE",
"129 789 LINE"
);
}
);
width = 803;
}
);
leftKerningGroup = U;
rightKerningGroup = U;
unicode = 016A;
},
{
glyphname = Uogonek;
lastChange = "2019-09-09 11:34:22 +0000";
layers = (
{
layerId = "2BED5241-FEE2-452B-8B42-4A46EDD0955E";
paths = (
{
closed = 1;
nodes = (
"487 -191 LINE",
"487 -64 LINE",
"464 -64 LINE",
"448 -50 LINE",
"448 -26 LINE",
"478 0 LINE",
"642 0 LINE",
"753 95 LINE",
"753 737 LINE",
"468 737 LINE",
"468 153 LINE",
"335 153 LINE",
"335 737 LINE",
"50 737 LINE",
"50 95 LINE",
"161 0 LINE",
"358 0 LINE",
"313 -33 LINE",
"313 -122 LINE",
"396 -191 LINE"
);
}
);
width = 803;
}
);
leftKerningGroup = U;
leftMetricsKey = U;
rightKerningGroup = U;
rightMetricsKey = U;
unicode = 0172;
},
{
glyphname = Uring;
lastChange = "2019-09-09 11:34:22 +0000";
layers = (
{
layerId = "2BED5241-FEE2-452B-8B42-4A46EDD0955E";
paths = (
{
closed = 1;
nodes = (
"642 0 LINE",
"753 95 LINE",
"753 737 LINE",
"468 737 LINE",
"468 153 LINE",
"335 153 LINE",
"335 737 LINE",
"50 737 LINE",
"50 95 LINE",
"161 0 LINE"
);
},
{
closed = 1;
nodes = (
"464.5 789 LINE",
"540.5 865 LINE",
"540.5 953 LINE",
"464.5 1029 LINE",
"339.5 1029 LINE",
"263.5 953 LINE",
"263.5 865 LINE",
"339.5 789 LINE"
);
},
{
closed = 1;
nodes = (
"379 900 LINE",
"379 917 LINE",
"393 932 LINE",
"410 932 LINE",
"425 917 LINE",
"425 900 LINE",
"410 886 LINE",
"393 886 LINE"
);
}
);
width = 803;
}
);
leftKerningGroup = U;
rightKerningGroup = U;
unicode = 016E;
},
{
glyphname = Utilde;
lastChange = "2019-09-09 11:34:22 +0000";
layers = (
{
layerId = "2BED5241-FEE2-452B-8B42-4A46EDD0955E";
paths = (
{
closed = 1;
nodes = (
"642 0 LINE",
"753 95 LINE",
"753 737 LINE",
"468 737 LINE",
"468 153 LINE",
"335 153 LINE",
"335 737 LINE",
"50 737 LINE",
"50 95 LINE",
"161 0 LINE"
);
},
{
closed = 1;
nodes = (
"572 789 LINE",
"656 861 LINE",
"656 950 LINE",
"509 950 LINE",
"509 917 LINE",
"493 902 LINE",
"475 902 LINE",
"426 957 LINE",
"233 957 LINE",
"150 883 LINE",
"150 795 LINE",
"297 795 LINE",
"297 827 LINE",
"313 843 LINE",
"330 843 LINE",
"380 789 LINE"
);
}
);
width = 803;
}
);
unicode = 0168;
},
{
glyphname = V;
lastChange = "2019-09-03 21:20:28 +0000";
layers = (
{
layerId = "2BED5241-FEE2-452B-8B42-4A46EDD0955E";
paths = (
{
closed = 1;
nodes = (
"589 0 LINE",
"765 496 LINE",
"765 737 LINE",
"490 737 LINE",
"423 186 LINE",
"381 186 LINE",
"315 737 LINE",
"39 737 LINE",
"39 496 LINE",
"216 0 LINE"
);
}
);
width = 803;
}
);
leftKerningGroup = V;
rightKerningGroup = V;
unicode = 0056;
},
{
glyphname = W;
lastChange = "2019-09-09 11:34:22 +0000";
layers = (
{
layerId = "2BED5241-FEE2-452B-8B42-4A46EDD0955E";
paths = (
{
closed = 1;
nodes = (
"505 0 LINE",
"574 171 LINE",
"641 0 LINE",
"947 0 LINE",
"1096 476 LINE",
"1096 737 LINE",
"810 737 LINE",
"771 186 LINE",
"729 186 LINE",
"690 737 LINE",
"456 737 LINE",
"417 186 LINE",
"376 186 LINE",
"337 737 LINE",
"50 737 LINE",
"50 476 LINE",
"200 0 LINE"
);
}
);
width = 1145;
}
);
leftKerningGroup = W;
rightKerningGroup = W;
unicode = 0057;
},
{
glyphname = Wacute;
lastChange = "2019-09-09 11:34:22 +0000";
layers = (
{
layerId = "2BED5241-FEE2-452B-8B42-4A46EDD0955E";
paths = (
{
closed = 1;
nodes = (
"505 0 LINE",
"574 171 LINE",
"641 0 LINE",
"947 0 LINE",
"1096 476 LINE",
"1096 737 LINE",
"810 737 LINE",
"771 186 LINE",
"729 186 LINE",
"690 737 LINE",
"456 737 LINE",
"417 186 LINE",
"376 186 LINE",
"337 737 LINE",
"50 737 LINE",
"50 476 LINE",
"200 0 LINE"
);
},
{
closed = 1;
nodes = (
"658 789 LINE",
"820 952 LINE",
"595 952 LINE",
"486 789 LINE"
);
}
);
width = 1145;
}
);
leftKerningGroup = W;
rightKerningGroup = W;
unicode = 1E82;
},
{
glyphname = Wcircumflex;
lastChange = "2019-09-09 11:34:22 +0000";
layers = (
{
layerId = "2BED5241-FEE2-452B-8B42-4A46EDD0955E";
paths = (
{
closed = 1;
nodes = (
"505 0 LINE",
"574 171 LINE",
"641 0 LINE",
"947 0 LINE",
"1096 476 LINE",
"1096 737 LINE",
"810 737 LINE",
"771 186 LINE",
"729 186 LINE",
"690 737 LINE",
"456 737 LINE",
"417 186 LINE",
"376 186 LINE",
"337 737 LINE",
"50 737 LINE",
"50 476 LINE",
"200 0 LINE"
);
},
{
closed = 1;
nodes = (
"498 789 LINE",
"574 865 LINE",
"650 789 LINE",
"837 789 LINE",
"714 952 LINE",
"434 952 LINE",
"311 789 LINE"
);
}
);
width = 1145;
}
);
leftKerningGroup = W;
rightKerningGroup = W;
unicode = 0174;
},
{
glyphname = Wdieresis;
lastChange = "2019-09-09 11:34:22 +0000";
layers = (
{
layerId = "2BED5241-FEE2-452B-8B42-4A46EDD0955E";
paths = (
{
closed = 1;
nodes = (
"505 0 LINE",
"574 171 LINE",
"641 0 LINE",
"947 0 LINE",
"1096 476 LINE",
"1096 737 LINE",
"810 737 LINE",
"771 186 LINE",
"729 186 LINE",
"690 737 LINE",
"456 737 LINE",
"417 186 LINE",
"376 186 LINE",
"337 737 LINE",
"50 737 LINE",
"50 476 LINE",
"200 0 LINE"
);
},
{
closed = 1;
nodes = (
"540 789 LINE",
"540 947 LINE",
"301 947 LINE",
"301 789 LINE"
);
},
{
closed = 1;
nodes = (
"847 789 LINE",
"847 947 LINE",
"608 947 LINE",
"608 789 LINE"
);
}
);
width = 1145;
}
);
leftKerningGroup = W;
rightKerningGroup = W;
unicode = 1E84;
},
{
glyphname = Wgrave;
lastChange = "2019-09-09 11:34:22 +0000";
layers = (
{
layerId = "2BED5241-FEE2-452B-8B42-4A46EDD0955E";
paths = (
{
closed = 1;
nodes = (
"505 0 LINE",
"574 171 LINE",
"641 0 LINE",
"947 0 LINE",
"1096 476 LINE",
"1096 737 LINE",
"810 737 LINE",
"771 186 LINE",
"729 186 LINE",
"690 737 LINE",
"456 737 LINE",
"417 186 LINE",
"376 186 LINE",
"337 737 LINE",
"50 737 LINE",
"50 476 LINE",
"200 0 LINE"
);
},
{
closed = 1;
nodes = (
"663 789 LINE",
"554 952 LINE",
"329 952 LINE",
"491 789 LINE"
);
}
);
width = 1145;
}
);
leftKerningGroup = W;
rightKerningGroup = W;
unicode = 1E80;
},
{
glyphname = X;
lastChange = "2019-08-14 13:09:42 +0000";
layers = (
{
layerId = "2BED5241-FEE2-452B-8B42-4A46EDD0955E";
paths = (
{
closed = 1;
nodes = (
"339 0 LINE",
"389 288 LINE",
"431 288 LINE",
"480 0 LINE",
"769 0 LINE",
"769 227 LINE",
"648 380 LINE",
"769 524 LINE",
"769 737 LINE",
"480 737 LINE",
"431 458 LINE",
"389 458 LINE",
"339 737 LINE",
"50 737 LINE",
"50 524 LINE",
"172 380 LINE",
"50 227 LINE",
"50 0 LINE"
);
}
);
width = 818;
}
);
leftKerningGroup = X;
rightKerningGroup = X;
unicode = 0058;
},
{
glyphname = Y;
lastChange = "2019-10-06 17:19:56 +0000";
layers = (
{
layerId = "2BED5241-FEE2-452B-8B42-4A46EDD0955E";
paths = (
{
closed = 1;
nodes = (
"516 0 LINE",
"516 220 LINE",
"676 359 LINE",
"736 737 LINE",
"447 737 LINE",
"398 367 LINE",
"356 367 LINE",
"306 737 LINE",
"17 737 LINE",
"78 359 LINE",
"237 220 LINE",
"237 0 LINE"
);
}
);
width = 753;
}
);
leftKerningGroup = Y;
rightKerningGroup = Y;
unicode = 0059;
},
{
glyphname = Yacute;
lastChange = "2019-10-06 18:12:16 +0000";
layers = (
{
layerId = "2BED5241-FEE2-452B-8B42-4A46EDD0955E";
paths = (
{
closed = 1;
nodes = (
"516 0 LINE",
"516 220 LINE",
"676 359 LINE",
"736 737 LINE",
"447 737 LINE",
"398 367 LINE",
"356 367 LINE",
"306 737 LINE",
"17 737 LINE",
"78 359 LINE",
"237 221 LINE",
"237 0 LINE"
);
},
{
closed = 1;
nodes = (
"460.5 789 LINE",
"622.5 952 LINE",
"397.5 952 LINE",
"288.5 789 LINE"
);
},
{
closed = 1;
nodes = (
"516 0 LINE",
"516 220 LINE",
"676 359 LINE",
"736 737 LINE",
"447 737 LINE",
"398 367 LINE",
"356 367 LINE",
"306 737 LINE",
"17 737 LINE",
"78 359 LINE",
"237 220 LINE",
"237 0 LINE"
);
}
);
width = 753;
}
);
leftKerningGroup = Y;
rightKerningGroup = Y;
unicode = 00DD;
},
{
glyphname = Ycircumflex;
lastChange = "2019-10-06 17:20:17 +0000";
layers = (
{
layerId = "2BED5241-FEE2-452B-8B42-4A46EDD0955E";
paths = (
{
closed = 1;
nodes = (
"300.5 789 LINE",
"376.5 865 LINE",
"452.5 789 LINE",
"639.5 789 LINE",
"516.5 952 LINE",
"236.5 952 LINE",
"113.5 789 LINE"
);
},
{
closed = 1;
nodes = (
"516 0 LINE",
"516 220 LINE",
"676 359 LINE",
"736 737 LINE",
"447 737 LINE",
"398 367 LINE",
"356 367 LINE",
"306 737 LINE",
"17 737 LINE",
"78 359 LINE",
"237 220 LINE",
"237 0 LINE"
);
}
);
width = 753;
}
);
leftKerningGroup = Y;
rightKerningGroup = Y;
unicode = 0176;
},
{
glyphname = Ydieresis;
lastChange = "2019-10-06 17:20:23 +0000";
layers = (
{
layerId = "2BED5241-FEE2-452B-8B42-4A46EDD0955E";
paths = (
{
closed = 1;
nodes = (
"342.5 789 LINE",
"342.5 947 LINE",
"103.5 947 LINE",
"103.5 789 LINE"
);
},
{
closed = 1;
nodes = (
"649.5 789 LINE",
"649.5 947 LINE",
"410.5 947 LINE",
"410.5 789 LINE"
);
},
{
closed = 1;
nodes = (
"516 0 LINE",
"516 220 LINE",
"676 359 LINE",
"736 737 LINE",
"447 737 LINE",
"398 367 LINE",
"356 367 LINE",
"306 737 LINE",
"17 737 LINE",
"78 359 LINE",
"237 220 LINE",
"237 0 LINE"
);
}
);
width = 753;
}
);
leftKerningGroup = Y;
rightKerningGroup = Y;
unicode = 0178;
},
{
glyphname = Ydotbelow;
lastChange = "2019-10-06 17:20:26 +0000";
layers = (
{
layerId = "2BED5241-FEE2-452B-8B42-4A46EDD0955E";
paths = (
{
closed = 1;
nodes = (
"508 -209.013 LINE",
"508 -51.013 LINE",
"245 -51.013 LINE",
"245 -209.013 LINE"
);
},
{
closed = 1;
nodes = (
"516 0 LINE",
"516 220 LINE",
"676 359 LINE",
"736 737 LINE",
"447 737 LINE",
"398 367 LINE",
"356 367 LINE",
"306 737 LINE",
"17 737 LINE",
"78 359 LINE",
"237 220 LINE",
"237 0 LINE"
);
}
);
width = 753;
}
);
leftKerningGroup = Y;
rightKerningGroup = Y;
unicode = 1EF4;
},
{
glyphname = Ygrave;
lastChange = "2019-10-06 17:20:29 +0000";
layers = (
{
layerId = "2BED5241-FEE2-452B-8B42-4A46EDD0955E";
paths = (
{
closed = 1;
nodes = (
"465.5 789 LINE",
"356.5 952 LINE",
"131.5 952 LINE",
"293.5 789 LINE"
);
},
{
closed = 1;
nodes = (
"516 0 LINE",
"516 220 LINE",
"676 359 LINE",
"736 737 LINE",
"447 737 LINE",
"398 367 LINE",
"356 367 LINE",
"306 737 LINE",
"17 737 LINE",
"78 359 LINE",
"237 220 LINE",
"237 0 LINE"
);
}
);
width = 753;
}
);
leftKerningGroup = Y;
rightKerningGroup = Y;
unicode = 1EF2;
},
{
glyphname = Yhookabove;
lastChange = "2019-10-06 17:20:32 +0000";
layers = (
{
layerId = "2BED5241-FEE2-452B-8B42-4A46EDD0955E";
paths = (
{
closed = 1;
nodes = (
"455.5 789 LINE",
"455.5 828 LINE",
"497.5 828 LINE",
"545.5 866 LINE",
"545.5 985 LINE",
"496.5 1027 LINE",
"273.5 1027 LINE",
"218.5 985 LINE",
"218.5 920 LINE",
"363.5 920 LINE",
"363.5 961 LINE",
"395.5 961 LINE",
"395.5 895 LINE",
"336.5 895 LINE",
"297.5 866 LINE",
"297.5 789 LINE"
);
},
{
closed = 1;
nodes = (
"516 0 LINE",
"516 220 LINE",
"676 359 LINE",
"736 737 LINE",
"447 737 LINE",
"398 367 LINE",
"356 367 LINE",
"306 737 LINE",
"17 737 LINE",
"78 359 LINE",
"237 220 LINE",
"237 0 LINE"
);
}
);
width = 753;
}
);
leftKerningGroup = Y;
rightKerningGroup = Y;
unicode = 1EF6;
},
{
glyphname = Ymacron;
lastChange = "2019-10-06 17:20:35 +0000";
layers = (
{
layerId = "2BED5241-FEE2-452B-8B42-4A46EDD0955E";
paths = (
{
closed = 1;
nodes = (
"649.5 789 LINE",
"649.5 938 LINE",
"103.5 938 LINE",
"103.5 789 LINE"
);
},
{
closed = 1;
nodes = (
"516 0 LINE",
"516 220 LINE",
"676 359 LINE",
"736 737 LINE",
"447 737 LINE",
"398 367 LINE",
"356 367 LINE",
"306 737 LINE",
"17 737 LINE",
"78 359 LINE",
"237 220 LINE",
"237 0 LINE"
);
}
);
width = 753;
}
);
leftKerningGroup = Y;
rightKerningGroup = Y;
unicode = 0232;
},
{
glyphname = Ytilde;
lastChange = "2019-10-06 17:20:38 +0000";
layers = (
{
layerId = "2BED5241-FEE2-452B-8B42-4A46EDD0955E";
paths = (
{
closed = 1;
nodes = (
"546.5 789 LINE",
"630.5 861 LINE",
"630.5 950 LINE",
"483.5 950 LINE",
"483.5 917 LINE",
"467.5 902 LINE",
"449.5 902 LINE",
"400.5 957 LINE",
"207.5 957 LINE",
"124.5 883 LINE",
"124.5 795 LINE",
"271.5 795 LINE",
"271.5 827 LINE",
"287.5 843 LINE",
"304.5 843 LINE",
"354.5 789 LINE"
);
},
{
closed = 1;
nodes = (
"516 0 LINE",
"516 220 LINE",
"676 359 LINE",
"736 737 LINE",
"447 737 LINE",
"398 367 LINE",
"356 367 LINE",
"306 737 LINE",
"17 737 LINE",
"78 359 LINE",
"237 220 LINE",
"237 0 LINE"
);
}
);
width = 753;
}
);
leftKerningGroup = Y;
rightKerningGroup = Y;
unicode = 1EF8;
},
{
glyphname = Z;
lastChange = "2019-09-09 11:34:22 +0000";
layers = (
{
layerId = "2BED5241-FEE2-452B-8B42-4A46EDD0955E";
paths = (
{
closed = 1;
nodes = (
"674 0 LINE",
"674 197 LINE",
"348 197 LINE",
"674 529 LINE",
"674 737 LINE",
"48 737 LINE",
"48 540 LINE",
"362 540 LINE",
"33 208 LINE",
"33 0 LINE"
);
}
);
width = 707;
}
);
leftKerningGroup = Z;
rightKerningGroup = Z;
unicode = 005A;
},
{
glyphname = Zacute;
lastChange = "2019-09-09 11:34:22 +0000";
layers = (
{
layerId = "2BED5241-FEE2-452B-8B42-4A46EDD0955E";
paths = (
{
closed = 1;
nodes = (
"674 0 LINE",
"674 197 LINE",
"348 197 LINE",
"674 529 LINE",
"674 737 LINE",
"48 737 LINE",
"48 540 LINE",
"362 540 LINE",
"33 208 LINE",
"33 0 LINE"
);
},
{
closed = 1;
nodes = (
"449 789 LINE",
"611 952 LINE",
"386 952 LINE",
"277 789 LINE"
);
}
);
width = 707;
}
);
leftKerningGroup = Z;
rightKerningGroup = Z;
unicode = 0179;
},
{
glyphname = Zcaron;
lastChange = "2019-10-06 17:58:22 +0000";
layers = (
{
layerId = "2BED5241-FEE2-452B-8B42-4A46EDD0955E";
paths = (
{
closed = 1;
nodes = (
"674 0 LINE",
"674 197 LINE",
"348 197 LINE",
"674 529 LINE",
"674 737 LINE",
"48 737 LINE",
"48 540 LINE",
"362 540 LINE",
"33 208 LINE",
"33 0 LINE"
);
},
{
closed = 1;
nodes = (
"505 789 LINE",
"628 952 LINE",
"441 952 LINE",
"365 876 LINE",
"289 952 LINE",
"102 952 LINE",
"225 789 LINE"
);
}
);
width = 707;
}
);
leftKerningGroup = Z;
rightKerningGroup = Z;
unicode = 017D;
},
{
glyphname = Zdotaccent;
lastChange = "2019-09-09 11:34:22 +0000";
layers = (
{
layerId = "2BED5241-FEE2-452B-8B42-4A46EDD0955E";
paths = (
{
closed = 1;
nodes = (
"674 0 LINE",
"674 197 LINE",
"348 197 LINE",
"674 529 LINE",
"674 737 LINE",
"48 737 LINE",
"48 540 LINE",
"362 540 LINE",
"33 208 LINE",
"33 0 LINE"
);
},
{
closed = 1;
nodes = (
"496.5 789 LINE",
"496.5 947 LINE",
"233.5 947 LINE",
"233.5 789 LINE"
);
}
);
width = 707;
}
);
leftKerningGroup = Z;
rightKerningGroup = Z;
unicode = 017B;
},
{
glyphname = a;
lastChange = "2019-10-08 13:13:46 +0000";
layers = (
{
layerId = "2BED5241-FEE2-452B-8B42-4A46EDD0955E";
paths = (
{
closed = 1;
nodes = (
"289 0 LINE",
"347 62.366 LINE",
"347 0 LINE",
"610 0 LINE",
"610 428 LINE",
"499 523 LINE",
"80 523 LINE",
"80 382 LINE",
"347 382 LINE",
"347 326 LINE",
"112 326 LINE",
"17 215 LINE",
"17 111 LINE",
"112 0 LINE"
);
},
{
closed = 1;
nodes = (
"255 242 LINE",
"347 242 LINE",
"347 167 LINE",
"287 107 LINE",
"255 107 LINE"
);
}
);
width = 654;
}
);
leftKerningGroup = a;
rightKerningGroup = n;
unicode = 0061;
},
{
glyphname = aacute;
lastChange = "2019-09-09 11:34:22 +0000";
layers = (
{
layerId = "2BED5241-FEE2-452B-8B42-4A46EDD0955E";
paths = (
{
closed = 1;
nodes = (
"289 0 LINE",
"347 62.366 LINE",
"347 0 LINE",
"610 0 LINE",
"610 428 LINE",
"499 523 LINE",
"80 523 LINE",
"80 382 LINE",
"347 382 LINE",
"347 326 LINE",
"112 326 LINE",
"17 215 LINE",
"17 111 LINE",
"112 0 LINE"
);
},
{
closed = 1;
nodes = (
"255 242 LINE",
"347 242 LINE",
"347 167 LINE",
"287 107 LINE",
"255 107 LINE"
);
},
{
closed = 1;
nodes = (
"415 575 LINE",
"577 738 LINE",
"352 738 LINE",
"243 575 LINE"
);
}
);
width = 654;
}
);
leftKerningGroup = a;
rightKerningGroup = n;
unicode = 00E1;
},
{
glyphname = abreve;
lastChange = "2019-09-09 11:34:22 +0000";
layers = (
{
layerId = "2BED5241-FEE2-452B-8B42-4A46EDD0955E";
paths = (
{
closed = 1;
nodes = (
"289 0 LINE",
"347 62.366 LINE",
"347 0 LINE",
"610 0 LINE",
"610 428 LINE",
"499 523 LINE",
"80 523 LINE",
"80 382 LINE",
"347 382 LINE",
"347 326 LINE",
"112 326 LINE",
"17 215 LINE",
"17 111 LINE",
"112 0 LINE"
);
},
{
closed = 1;
nodes = (
"255 242 LINE",
"347 242 LINE",
"347 167 LINE",
"287 107 LINE",
"255 107 LINE"
);
},
{
closed = 1;
nodes = (
"470 575 LINE",
"573 663 LINE",
"573 738 LINE",
"382 738 LINE",
"382 686 LINE",
"280 686 LINE",
"280 738 LINE",
"89 738 LINE",
"89 663 LINE",
"192 575 LINE"
);
}
);
width = 654;
}
);
leftKerningGroup = a;
rightKerningGroup = n;
unicode = 0103;
},
{
glyphname = abreveacute;
lastChange = "2019-09-09 11:34:22 +0000";
layers = (
{
layerId = "2BED5241-FEE2-452B-8B42-4A46EDD0955E";
paths = (
{
closed = 1;
nodes = (
"289 0 LINE",
"347 62.366 LINE",
"347 0 LINE",
"610 0 LINE",
"610 428 LINE",
"499 523 LINE",
"80 523 LINE",
"80 382 LINE",
"347 382 LINE",
"347 326 LINE",
"112 326 LINE",
"17 215 LINE",
"17 111 LINE",
"112 0 LINE"
);
},
{
closed = 1;
nodes = (
"255 242 LINE",
"347 242 LINE",
"347 167 LINE",
"287 107 LINE",
"255 107 LINE"
);
},
{
closed = 1;
nodes = (
"470 575 LINE",
"573 663 LINE",
"573 738 LINE",
"382 738 LINE",
"382 686 LINE",
"280 686 LINE",
"280 738 LINE",
"89 738 LINE",
"89 663 LINE",
"192 575 LINE"
);
},
{
closed = 1;
nodes = (
"421 771 LINE",
"583 934 LINE",
"358 934 LINE",
"249 771 LINE"
);
}
);
width = 654;
}
);
leftKerningGroup = a;
rightKerningGroup = n;
unicode = 1EAF;
},
{
glyphname = abrevedotbelow;
lastChange = "2019-09-09 11:34:22 +0000";
layers = (
{
layerId = "2BED5241-FEE2-452B-8B42-4A46EDD0955E";
paths = (
{
closed = 1;
nodes = (
"289 0 LINE",
"347 62.366 LINE",
"347 0 LINE",
"610 0 LINE",
"610 428 LINE",
"499 523 LINE",
"80 523 LINE",
"80 382 LINE",
"347 382 LINE",
"347 326 LINE",
"112 326 LINE",
"17 215 LINE",
"17 111 LINE",
"112 0 LINE"
);
},
{
closed = 1;
nodes = (
"465.5 -209.013 LINE",
"465.5 -51.013 LINE",
"202.5 -51.013 LINE",
"202.5 -209.013 LINE"
);
},
{
closed = 1;
nodes = (
"255 242 LINE",
"347 242 LINE",
"347 167 LINE",
"287 107 LINE",
"255 107 LINE"
);
},
{
closed = 1;
nodes = (
"470 575 LINE",
"573 663 LINE",
"573 738 LINE",
"382 738 LINE",
"382 686 LINE",
"280 686 LINE",
"280 738 LINE",
"89 738 LINE",
"89 663 LINE",
"192 575 LINE"
);
}
);
width = 654;
}
);
leftKerningGroup = a;
rightKerningGroup = n;
unicode = 1EB7;
},
{
glyphname = abrevegrave;
lastChange = "2019-09-09 11:34:22 +0000";
layers = (
{
layerId = "2BED5241-FEE2-452B-8B42-4A46EDD0955E";
paths = (
{
closed = 1;
nodes = (
"289 0 LINE",
"347 62.366 LINE",
"347 0 LINE",
"610 0 LINE",
"610 428 LINE",
"499 523 LINE",
"80 523 LINE",
"80 382 LINE",
"347 382 LINE",
"347 326 LINE",
"112 326 LINE",
"17 215 LINE",
"17 111 LINE",
"112 0 LINE"
);
},
{
closed = 1;
nodes = (
"255 242 LINE",
"347 242 LINE",
"347 167 LINE",
"287 107 LINE",
"255 107 LINE"
);
},
{
closed = 1;
nodes = (
"470 575 LINE",
"573 663 LINE",
"573 738 LINE",
"382 738 LINE",
"382 686 LINE",
"280 686 LINE",
"280 738 LINE",
"89 738 LINE",
"89 663 LINE",
"192 575 LINE"
);
},
{
closed = 1;
nodes = (
"413 771 LINE",
"304 934 LINE",
"79 934 LINE",
"241 771 LINE"
);
}
);
width = 654;
}
);
leftKerningGroup = a;
rightKerningGroup = n;
unicode = 1EB1;
},
{
glyphname = abrevehookabove;
lastChange = "2019-09-09 11:34:22 +0000";
layers = (
{
layerId = "2BED5241-FEE2-452B-8B42-4A46EDD0955E";
paths = (
{
closed = 1;
nodes = (
"289 0 LINE",
"347 62.366 LINE",
"347 0 LINE",
"610 0 LINE",
"610 428 LINE",
"499 523 LINE",
"80 523 LINE",
"80 382 LINE",
"347 382 LINE",
"347 326 LINE",
"112 326 LINE",
"17 215 LINE",
"17 111 LINE",
"112 0 LINE"
);
},
{
closed = 1;
nodes = (
"255 242 LINE",
"347 242 LINE",
"347 167 LINE",
"287 107 LINE",
"255 107 LINE"
);
},
{
closed = 1;
nodes = (
"470 574.959 LINE",
"573 662.959 LINE",
"573 737.959 LINE",
"382 737.959 LINE",
"382 685.959 LINE",
"280 685.959 LINE",
"280 737.959 LINE",
"89 737.959 LINE",
"89 662.959 LINE",
"192 574.959 LINE"
);
},
{
closed = 1;
nodes = (
"405 770.987 LINE",
"405 809.987 LINE",
"447 809.987 LINE",
"495 847.987 LINE",
"495 966.987 LINE",
"446 1008.987 LINE",
"223 1008.987 LINE",
"168 966.987 LINE",
"168 901.987 LINE",
"313 901.987 LINE",
"313 942.987 LINE",
"345 942.987 LINE",
"345 876.987 LINE",
"286 876.987 LINE",
"247 847.987 LINE",
"247 770.987 LINE"
);
}
);
width = 654;
}
);
leftKerningGroup = a;
rightKerningGroup = n;
unicode = 1EB3;
},
{
glyphname = abrevetilde;
lastChange = "2019-09-09 11:34:22 +0000";
layers = (
{
layerId = "2BED5241-FEE2-452B-8B42-4A46EDD0955E";
paths = (
{
closed = 1;
nodes = (
"289 0 LINE",
"347 62.366 LINE",
"347 0 LINE",
"610 0 LINE",
"610 428 LINE",
"499 523 LINE",
"80 523 LINE",
"80 382 LINE",
"347 382 LINE",
"347 326 LINE",
"112 326 LINE",
"17 215 LINE",
"17 111 LINE",
"112 0 LINE"
);
},
{
closed = 1;
nodes = (
"255 242 LINE",
"347 242 LINE",
"347 167 LINE",
"287 107 LINE",
"255 107 LINE"
);
},
{
closed = 1;
nodes = (
"470 575 LINE",
"573 663 LINE",
"573 738 LINE",
"382 738 LINE",
"382 686 LINE",
"280 686 LINE",
"280 738 LINE",
"89 738 LINE",
"89 663 LINE",
"192 575 LINE"
);
},
{
closed = 1;
nodes = (
"501 769 LINE",
"585 841 LINE",
"585 930 LINE",
"438 930 LINE",
"438 897 LINE",
"422 882 LINE",
"404 882 LINE",
"355 937 LINE",
"162 937 LINE",
"79 863 LINE",
"79 775 LINE",
"226 775 LINE",
"226 807 LINE",
"242 823 LINE",
"259 823 LINE",
"309 769 LINE"
);
}
);
width = 654;
}
);
leftKerningGroup = a;
rightKerningGroup = n;
unicode = 1EB5;
},
{
glyphname = acircumflex;
lastChange = "2019-09-09 11:34:22 +0000";
layers = (
{
layerId = "2BED5241-FEE2-452B-8B42-4A46EDD0955E";
paths = (
{
closed = 1;
nodes = (
"289 0 LINE",
"347 62.366 LINE",
"347 0 LINE",
"610 0 LINE",
"610 428 LINE",
"499 523 LINE",
"80 523 LINE",
"80 382 LINE",
"347 382 LINE",
"347 326 LINE",
"112 326 LINE",
"17 215 LINE",
"17 111 LINE",
"112 0 LINE"
);
},
{
closed = 1;
nodes = (
"255 242 LINE",
"347 242 LINE",
"347 167 LINE",
"287 107 LINE",
"255 107 LINE"
);
},
{
closed = 1;
nodes = (
"255 575 LINE",
"331 651 LINE",
"407 575 LINE",
"594 575 LINE",
"471 738 LINE",
"191 738 LINE",
"68 575 LINE"
);
}
);
width = 654;
}
);
leftKerningGroup = a;
rightKerningGroup = n;
unicode = 00E2;
},
{
glyphname = acircumflexacute;
lastChange = "2019-09-09 11:34:22 +0000";
layers = (
{
layerId = "2BED5241-FEE2-452B-8B42-4A46EDD0955E";
paths = (
{
closed = 1;
nodes = (
"289 0 LINE",
"347 62.366 LINE",
"347 0 LINE",
"610 0 LINE",
"610 428 LINE",
"499 523 LINE",
"80 523 LINE",
"80 382 LINE",
"347 382 LINE",
"347 326 LINE",
"112 326 LINE",
"17 215 LINE",
"17 111 LINE",
"112 0 LINE"
);
},
{
closed = 1;
nodes = (
"255 242 LINE",
"347 242 LINE",
"347 167 LINE",
"287 107 LINE",
"255 107 LINE"
);
},
{
closed = 1;
nodes = (
"255 575 LINE",
"331 651 LINE",
"407 575 LINE",
"594 575 LINE",
"471 738 LINE",
"191 738 LINE",
"68 575 LINE"
);
},
{
closed = 1;
nodes = (
"748 662.53 LINE",
"910 825.53 LINE",
"685 825.53 LINE",
"576 662.53 LINE"
);
}
);
width = 654;
}
);
leftKerningGroup = a;
rightKerningGroup = n;
unicode = 1EA5;
},
{
glyphname = acircumflexdotbelow;
lastChange = "2019-09-09 11:34:22 +0000";
layers = (
{
layerId = "2BED5241-FEE2-452B-8B42-4A46EDD0955E";
paths = (
{
closed = 1;
nodes = (
"289 0 LINE",
"347 62.366 LINE",
"347 0 LINE",
"610 0 LINE",
"610 428 LINE",
"499 523 LINE",
"80 523 LINE",
"80 382 LINE",
"347 382 LINE",
"347 326 LINE",
"112 326 LINE",
"17 215 LINE",
"17 111 LINE",
"112 0 LINE"
);
},
{
closed = 1;
nodes = (
"465.5 -209.013 LINE",
"465.5 -51.013 LINE",
"202.5 -51.013 LINE",
"202.5 -209.013 LINE"
);
},
{
closed = 1;
nodes = (
"255 242 LINE",
"347 242 LINE",
"347 167 LINE",
"287 107 LINE",
"255 107 LINE"
);
},
{
closed = 1;
nodes = (
"255 575 LINE",
"331 651 LINE",
"407 575 LINE",
"594 575 LINE",
"471 738 LINE",
"191 738 LINE",
"68 575 LINE"
);
}
);
width = 654;
}
);
leftKerningGroup = a;
rightKerningGroup = n;
unicode = 1EAD;
},
{
glyphname = acircumflexgrave;
lastChange = "2019-10-08 22:06:04 +0000";
layers = (
{
layerId = "2BED5241-FEE2-452B-8B42-4A46EDD0955E";
paths = (
{
closed = 1;
nodes = (
"289 0 LINE",
"347 62.366 LINE",
"347 0 LINE",
"610 0 LINE",
"610 428 LINE",
"499 523 LINE",
"80 523 LINE",
"80 382 LINE",
"347 382 LINE",
"347 326 LINE",
"112 326 LINE",
"17 215 LINE",
"17 111 LINE",
"112 0 LINE"
);
},
{
closed = 1;
nodes = (
"255 242 LINE",
"347 242 LINE",
"347 167 LINE",
"287 107 LINE",
"255 107 LINE"
);
},
{
closed = 1;
nodes = (
"87 662.53 LINE",
"-22 825.53 LINE",
"-247 825.53 LINE",
"-85 662.53 LINE"
);
},
{
closed = 1;
nodes = (
"255 575 LINE",
"331 651 LINE",
"407 575 LINE",
"594 575 LINE",
"471 738 LINE",
"191 738 LINE",
"68 575 LINE"
);
}
);
width = 654;
}
);
leftKerningGroup = a;
rightKerningGroup = n;
unicode = 1EA7;
},
{
glyphname = acircumflexhookabove;
lastChange = "2019-09-09 11:34:22 +0000";
layers = (
{
layerId = "2BED5241-FEE2-452B-8B42-4A46EDD0955E";
paths = (
{
closed = 1;
nodes = (
"289 0 LINE",
"347 62.366 LINE",
"347 0 LINE",
"610 0 LINE",
"610 428 LINE",
"499 523 LINE",
"80 523 LINE",
"80 382 LINE",
"347 382 LINE",
"347 326 LINE",
"112 326 LINE",
"17 215 LINE",
"17 111 LINE",
"112 0 LINE"
);
},
{
closed = 1;
nodes = (
"255 242 LINE",
"347 242 LINE",
"347 167 LINE",
"287 107 LINE",
"255 107 LINE"
);
},
{
closed = 1;
nodes = (
"255 575 LINE",
"331 651 LINE",
"407 575 LINE",
"594 575 LINE",
"471 738 LINE",
"191 738 LINE",
"68 575 LINE"
);
},
{
closed = 1;
nodes = (
"734 662.653 LINE",
"734 701.653 LINE",
"776 701.653 LINE",
"824 739.653 LINE",
"824 858.653 LINE",
"775 900.653 LINE",
"552 900.653 LINE",
"497 858.653 LINE",
"497 793.653 LINE",
"642 793.653 LINE",
"642 834.653 LINE",
"674 834.653 LINE",
"674 768.653 LINE",
"615 768.653 LINE",
"576 739.653 LINE",
"576 662.653 LINE"
);
}
);
width = 654;
}
);
leftKerningGroup = a;
rightKerningGroup = n;
unicode = 1EA9;
},
{
glyphname = acircumflextilde;
lastChange = "2019-09-09 11:34:22 +0000";
layers = (
{
layerId = "2BED5241-FEE2-452B-8B42-4A46EDD0955E";
paths = (
{
closed = 1;
nodes = (
"289 0 LINE",
"347 62.366 LINE",
"347 0 LINE",
"610 0 LINE",
"610 428 LINE",
"499 523 LINE",
"80 523 LINE",
"80 382 LINE",
"347 382 LINE",
"347 326 LINE",
"112 326 LINE",
"17 215 LINE",
"17 111 LINE",
"112 0 LINE"
);
},
{
closed = 1;
nodes = (
"255 242 LINE",
"347 242 LINE",
"347 167 LINE",
"287 107 LINE",
"255 107 LINE"
);
},
{
closed = 1;
nodes = (
"255 575 LINE",
"331 651 LINE",
"407 575 LINE",
"594 575 LINE",
"471 738 LINE",
"191 738 LINE",
"68 575 LINE"
);
},
{
closed = 1;
nodes = (
"505 769 LINE",
"589 841 LINE",
"589 930 LINE",
"442 930 LINE",
"442 897 LINE",
"426 882 LINE",
"408 882 LINE",
"359 937 LINE",
"166 937 LINE",
"83 863 LINE",
"83 775 LINE",
"230 775 LINE",
"230 807 LINE",
"246 823 LINE",
"263 823 LINE",
"313 769 LINE"
);
}
);
width = 654;
}
);
leftKerningGroup = a;
rightKerningGroup = n;
unicode = 1EAB;
},
{
glyphname = adblgrave;
lastChange = "2019-10-08 22:03:34 +0000";
layers = (
{
layerId = "2BED5241-FEE2-452B-8B42-4A46EDD0955E";
paths = (
{
closed = 1;
nodes = (
"289 0 LINE",
"347 62.366 LINE",
"347 0 LINE",
"610 0 LINE",
"610 428 LINE",
"499 523 LINE",
"80 523 LINE",
"80 382 LINE",
"347 382 LINE",
"347 326 LINE",
"112 326 LINE",
"17 215 LINE",
"17 111 LINE",
"112 0 LINE"
);
},
{
closed = 1;
nodes = (
"255 242 LINE",
"347 242 LINE",
"347 167 LINE",
"287 107 LINE",
"255 107 LINE"
);
},
{
closed = 1;
nodes = (
"246 575 LINE",
"138 738 LINE",
"-77 738 LINE",
"86 575 LINE"
);
},
{
closed = 1;
nodes = (
"523 575 LINE",
"414 738 LINE",
"199 738 LINE",
"362 575 LINE"
);
}
);
width = 654;
}
);
leftKerningGroup = a;
rightKerningGroup = n;
unicode = 0201;
},
{
glyphname = adieresis;
lastChange = "2019-09-09 11:34:22 +0000";
layers = (
{
layerId = "2BED5241-FEE2-452B-8B42-4A46EDD0955E";
paths = (
{
closed = 1;
nodes = (
"289 0 LINE",
"347 62.366 LINE",
"347 0 LINE",
"610 0 LINE",
"610 428 LINE",
"499 523 LINE",
"80 523 LINE",
"80 382 LINE",
"347 382 LINE",
"347 326 LINE",
"112 326 LINE",
"17 215 LINE",
"17 111 LINE",
"112 0 LINE"
);
},
{
closed = 1;
nodes = (
"255 242 LINE",
"347 242 LINE",
"347 167 LINE",
"287 107 LINE",
"255 107 LINE"
);
},
{
closed = 1;
nodes = (
"297 575 LINE",
"297 733 LINE",
"58 733 LINE",
"58 575 LINE"
);
},
{
closed = 1;
nodes = (
"604 575 LINE",
"604 733 LINE",
"365 733 LINE",
"365 575 LINE"
);
}
);
width = 654;
}
);
leftKerningGroup = a;
rightKerningGroup = n;
unicode = 00E4;
},
{
glyphname = adotbelow;
lastChange = "2019-09-09 11:34:22 +0000";
layers = (
{
layerId = "2BED5241-FEE2-452B-8B42-4A46EDD0955E";
paths = (
{
closed = 1;
nodes = (
"289 0 LINE",
"347 62.366 LINE",
"347 0 LINE",
"610 0 LINE",
"610 428 LINE",
"499 523 LINE",
"80 523 LINE",
"80 382 LINE",
"347 382 LINE",
"347 326 LINE",
"112 326 LINE",
"17 215 LINE",
"17 111 LINE",
"112 0 LINE"
);
},
{
closed = 1;
nodes = (
"465.5 -209.013 LINE",
"465.5 -51.013 LINE",
"202.5 -51.013 LINE",
"202.5 -209.013 LINE"
);
},
{
closed = 1;
nodes = (
"255 242 LINE",
"347 242 LINE",
"347 167 LINE",
"287 107 LINE",
"255 107 LINE"
);
}
);
width = 654;
}
);
leftKerningGroup = a;
rightKerningGroup = n;
unicode = 1EA1;
},
{
glyphname = agrave;
lastChange = "2019-09-09 11:34:22 +0000";
layers = (
{
layerId = "2BED5241-FEE2-452B-8B42-4A46EDD0955E";
paths = (
{
closed = 1;
nodes = (
"289 0 LINE",
"347 62.366 LINE",
"347 0 LINE",
"610 0 LINE",
"610 428 LINE",
"499 523 LINE",
"80 523 LINE",
"80 382 LINE",
"347 382 LINE",
"347 326 LINE",
"112 326 LINE",
"17 215 LINE",
"17 111 LINE",
"112 0 LINE"
);
},
{
closed = 1;
nodes = (
"255 242 LINE",
"347 242 LINE",
"347 167 LINE",
"287 107 LINE",
"255 107 LINE"
);
},
{
closed = 1;
nodes = (
"420 575 LINE",
"311 738 LINE",
"86 738 LINE",
"248 575 LINE"
);
}
);
width = 654;
}
);
leftKerningGroup = a;
rightKerningGroup = n;
unicode = 00E0;
},
{
glyphname = ahookabove;
lastChange = "2019-09-09 11:34:22 +0000";
layers = (
{
layerId = "2BED5241-FEE2-452B-8B42-4A46EDD0955E";
paths = (
{
closed = 1;
nodes = (
"289 0 LINE",
"347 62.366 LINE",
"347 0 LINE",
"610 0 LINE",
"610 428 LINE",
"499 523 LINE",
"80 523 LINE",
"80 382 LINE",
"347 382 LINE",
"347 326 LINE",
"112 326 LINE",
"17 215 LINE",
"17 111 LINE",
"112 0 LINE"
);
},
{
closed = 1;
nodes = (
"255 242 LINE",
"347 242 LINE",
"347 167 LINE",
"287 107 LINE",
"255 107 LINE"
);
},
{
closed = 1;
nodes = (
"410 575 LINE",
"410 614 LINE",
"452 614 LINE",
"500 652 LINE",
"500 771 LINE",
"451 813 LINE",
"228 813 LINE",
"173 771 LINE",
"173 706 LINE",
"318 706 LINE",
"318 747 LINE",
"350 747 LINE",
"350 681 LINE",
"291 681 LINE",
"252 652 LINE",
"252 575 LINE"
);
}
);
width = 654;
}
);
leftKerningGroup = a;
rightKerningGroup = n;
unicode = 1EA3;
},
{
glyphname = ainvertedbreve;
lastChange = "2019-09-09 11:34:22 +0000";
layers = (
{
layerId = "2BED5241-FEE2-452B-8B42-4A46EDD0955E";
paths = (
{
closed = 1;
nodes = (
"289 0 LINE",
"347 62.366 LINE",
"347 0 LINE",
"610 0 LINE",
"610 428 LINE",
"499 523 LINE",
"80 523 LINE",
"80 382 LINE",
"347 382 LINE",
"347 326 LINE",
"112 326 LINE",
"17 215 LINE",
"17 111 LINE",
"112 0 LINE"
);
},
{
closed = 1;
nodes = (
"255 242 LINE",
"347 242 LINE",
"347 167 LINE",
"287 107 LINE",
"255 107 LINE"
);
},
{
closed = 1;
nodes = (
"280 575 LINE",
"280 627 LINE",
"382 627 LINE",
"382 575 LINE",
"573 575 LINE",
"573 650 LINE",
"470 738 LINE",
"192 738 LINE",
"89 650 LINE",
"89 575 LINE"
);
}
);
width = 654;
}
);
leftKerningGroup = a;
rightKerningGroup = n;
unicode = 0203;
},
{
glyphname = amacron;
lastChange = "2019-09-09 11:34:22 +0000";
layers = (
{
layerId = "2BED5241-FEE2-452B-8B42-4A46EDD0955E";
paths = (
{
closed = 1;
nodes = (
"289 0 LINE",
"347 62.366 LINE",
"347 0 LINE",
"610 0 LINE",
"610 428 LINE",
"499 523 LINE",
"80 523 LINE",
"80 382 LINE",
"347 382 LINE",
"347 326 LINE",
"112 326 LINE",
"17 215 LINE",
"17 111 LINE",
"112 0 LINE"
);
},
{
closed = 1;
nodes = (
"255 242 LINE",
"347 242 LINE",
"347 167 LINE",
"287 107 LINE",
"255 107 LINE"
);
},
{
closed = 1;
nodes = (
"604 575 LINE",
"604 724 LINE",
"58 724 LINE",
"58 575 LINE"
);
}
);
width = 654;
}
);
leftKerningGroup = a;
rightKerningGroup = n;
unicode = 0101;
},
{
glyphname = aogonek;
lastChange = "2019-09-09 11:34:22 +0000";
layers = (
{
layerId = "2BED5241-FEE2-452B-8B42-4A46EDD0955E";
paths = (
{
closed = 1;
nodes = (
"476 -191 LINE",
"476 -64 LINE",
"453 -64 LINE",
"437 -50 LINE",
"437 -26 LINE",
"467 0 LINE",
"610 0 LINE",
"610 428 LINE",
"499 523 LINE",
"80 523 LINE",
"80 382 LINE",
"347 382 LINE",
"347 326 LINE",
"112 326 LINE",
"17 215 LINE",
"17 111 LINE",
"112 0 LINE",
"289 0 LINE",
"347 62.366 LINE",
"347 0 LINE",
"302 -33 LINE",
"302 -122 LINE",
"385 -191 LINE"
);
},
{
closed = 1;
nodes = (
"255 242 LINE",
"347 242 LINE",
"347 167 LINE",
"287 107 LINE",
"255 107 LINE"
);
}
);
width = 654;
}
);
leftKerningGroup = a;
leftMetricsKey = a;
rightKerningGroup = n;
rightMetricsKey = a;
unicode = 0105;
},
{
glyphname = aring;
lastChange = "2019-09-09 11:34:22 +0000";
layers = (
{
layerId = "2BED5241-FEE2-452B-8B42-4A46EDD0955E";
paths = (
{
closed = 1;
nodes = (
"289 0 LINE",
"347 62.366 LINE",
"347 0 LINE",
"610 0 LINE",
"610 428 LINE",
"499 523 LINE",
"80 523 LINE",
"80 382 LINE",
"347 382 LINE",
"347 326 LINE",
"112 326 LINE",
"17 215 LINE",
"17 111 LINE",
"112 0 LINE"
);
},
{
closed = 1;
nodes = (
"255 242 LINE",
"347 242 LINE",
"347 167 LINE",
"287 107 LINE",
"255 107 LINE"
);
},
{
closed = 1;
nodes = (
"393.5 575 LINE",
"469.5 651 LINE",
"469.5 739 LINE",
"393.5 815 LINE",
"268.5 815 LINE",
"192.5 739 LINE",
"192.5 651 LINE",
"268.5 575 LINE"
);
},
{
closed = 1;
nodes = (
"308 686 LINE",
"308 703 LINE",
"322 718 LINE",
"339 718 LINE",
"354 703 LINE",
"354 686 LINE",
"339 672 LINE",
"322 672 LINE"
);
}
);
width = 654;
}
);
leftKerningGroup = a;
rightKerningGroup = n;
unicode = 00E5;
},
{
glyphname = aringacute;
lastChange = "2019-09-09 11:34:22 +0000";
layers = (
{
layerId = "2BED5241-FEE2-452B-8B42-4A46EDD0955E";
paths = (
{
closed = 1;
nodes = (
"289 0 LINE",
"347 62.366 LINE",
"347 0 LINE",
"610 0 LINE",
"610 428 LINE",
"499 523 LINE",
"80 523 LINE",
"80 382 LINE",
"347 382 LINE",
"347 326 LINE",
"112 326 LINE",
"17 215 LINE",
"17 111 LINE",
"112 0 LINE"
);
},
{
closed = 1;
nodes = (
"255 242 LINE",
"347 242 LINE",
"347 167 LINE",
"287 107 LINE",
"255 107 LINE"
);
},
{
closed = 1;
nodes = (
"393.5 575 LINE",
"469.5 651 LINE",
"469.5 739 LINE",
"393.5 815 LINE",
"268.5 815 LINE",
"192.5 739 LINE",
"192.5 651 LINE",
"268.5 575 LINE"
);
},
{
closed = 1;
nodes = (
"308 686 LINE",
"308 703 LINE",
"322 718 LINE",
"339 718 LINE",
"354 703 LINE",
"354 686 LINE",
"339 672 LINE",
"322 672 LINE"
);
},
{
closed = 1;
nodes = (
"399.016 846.867 LINE",
"561.016 1009.867 LINE",
"336.016 1009.867 LINE",
"227.016 846.867 LINE"
);
}
);
width = 654;
}
);
leftKerningGroup = a;
rightKerningGroup = n;
unicode = 01FB;
},
{
glyphname = atilde;
lastChange = "2019-09-09 11:34:22 +0000";
layers = (
{
layerId = "2BED5241-FEE2-452B-8B42-4A46EDD0955E";
paths = (
{
closed = 1;
nodes = (
"289 0 LINE",
"347 62.366 LINE",
"347 0 LINE",
"610 0 LINE",
"610 428 LINE",
"499 523 LINE",
"80 523 LINE",
"80 382 LINE",
"347 382 LINE",
"347 326 LINE",
"112 326 LINE",
"17 215 LINE",
"17 111 LINE",
"112 0 LINE"
);
},
{
closed = 1;
nodes = (
"255 242 LINE",
"347 242 LINE",
"347 167 LINE",
"287 107 LINE",
"255 107 LINE"
);
},
{
closed = 1;
nodes = (
"501 575 LINE",
"585 647 LINE",
"585 736 LINE",
"438 736 LINE",
"438 703 LINE",
"422 688 LINE",
"404 688 LINE",
"355 743 LINE",
"162 743 LINE",
"79 669 LINE",
"79 581 LINE",
"226 581 LINE",
"226 613 LINE",
"242 629 LINE",
"259 629 LINE",
"309 575 LINE"
);
}
);
width = 654;
}
);
leftKerningGroup = a;
rightKerningGroup = n;
unicode = 00E3;
},
{
glyphname = ae;
lastChange = "2019-09-09 11:34:22 +0000";
layers = (
{
layerId = "2BED5241-FEE2-452B-8B42-4A46EDD0955E";
paths = (
{
closed = 1;
nodes = (
"371 0 LINE",
"445.899 80.537 LINE",
"540 0 LINE",
"929 0 LINE",
"929 147 LINE",
"611 147 LINE",
"611 215 LINE",
"934 215 LINE",
"934 428 LINE",
"823 523 LINE",
"80 523 LINE",
"80 382 LINE",
"347 382 LINE",
"347 320 LINE",
"112 320 LINE",
"17 209 LINE",
"17 111 LINE",
"112 0 LINE"
);
},
{
closed = 1;
nodes = (
"255 215 LINE",
"347 215 LINE",
"347 167 LINE",
"287 107 LINE",
"255 107 LINE"
);
},
{
closed = 1;
nodes = (
"611 429 LINE",
"703 429 LINE",
"703 320 LINE",
"611 320 LINE"
);
}
);
width = 973;
}
);
leftKerningGroup = a;
leftMetricsKey = a;
rightKerningGroup = e;
rightMetricsKey = e;
unicode = 00E6;
},
{
glyphname = aeacute;
lastChange = "2019-10-06 18:12:57 +0000";
layers = (
{
guideLines = (
{
angle = 90;
position = "{415, 520}";
}
);
layerId = "2BED5241-FEE2-452B-8B42-4A46EDD0955E";
paths = (
{
closed = 1;
nodes = (
"375 0 LINE",
"449.899 80.537 LINE",
"544 0 LINE",
"929 0 LINE",
"929 147 LINE",
"611 147 LINE",
"611 215 LINE",
"934 215 LINE",
"934 428 LINE",
"823 523 LINE",
"80 523 LINE",
"80 382 LINE",
"347 382 LINE",
"347 320 LINE",
"112 320 LINE",
"17 209 LINE",
"17 111 LINE",
"112 0 LINE"
);
},
{
closed = 1;
nodes = (
"255 215 LINE",
"347 215 LINE",
"347 167 LINE",
"287 107 LINE",
"255 107 LINE"
);
},
{
closed = 1;
nodes = (
"611 429 LINE",
"703 429 LINE",
"703 320 LINE",
"611 320 LINE"
);
},
{
closed = 1;
nodes = (
"540.693 575 LINE",
"702.693 738 LINE",
"477.693 738 LINE",
"368.693 575 LINE"
);
}
);
width = 973;
}
);
leftKerningGroup = a;
rightKerningGroup = e;
unicode = 01FD;
},
{
glyphname = b;
lastChange = "2019-09-03 21:20:28 +0000";
layers = (
{
layerId = "2BED5241-FEE2-452B-8B42-4A46EDD0955E";
paths = (
{
closed = 1;
nodes = (
"308 0 LINE",
"308 35.564 LINE",
"359.8 0 LINE",
"555.6 0 LINE",
"666.7 94.6 LINE",
"666.7 427.9 LINE",
"555.6 522.5 LINE",
"367.5 522.5 LINE",
"308 479.885 LINE",
"308 737 LINE",
"44 737 LINE",
"44 0 LINE"
);
},
{
closed = 1;
nodes = (
"308 128.423 LINE",
"308 381.477 LINE",
"367.5 425.7 LINE",
"403.8 425.7 LINE",
"403.8 89.1 LINE",
"371.9 89.1 LINE"
);
}
);
width = 705.7;
}
);
leftKerningGroup = _part.b;
leftMetricsKey = n;
rightKerningGroup = o;
rightMetricsKey = o;
unicode = 0062;
},
{
glyphname = c;
lastChange = "2019-09-09 11:34:22 +0000";
layers = (
{
layerId = "2BED5241-FEE2-452B-8B42-4A46EDD0955E";
paths = (
{
closed = 1;
nodes = (
"634 0 LINE",
"634 147 LINE",
"302 147 LINE",
"302 429 LINE",
"394 429 LINE",
"394 296 LINE",
"636 296 LINE",
"636 428 LINE",
"525 523 LINE",
"150 523 LINE",
"39 428 LINE",
"39 95 LINE",
"150 0 LINE"
);
}
);
width = 675;
}
);
leftKerningGroup = o;
leftMetricsKey = o;
rightKerningGroup = e;
rightMetricsKey = o;
unicode = 0063;
},
{
glyphname = cacute;
lastChange = "2019-09-09 11:34:22 +0000";
layers = (
{
layerId = "2BED5241-FEE2-452B-8B42-4A46EDD0955E";
paths = (
{
closed = 1;
nodes = (
"634 0 LINE",
"634 147 LINE",
"302 147 LINE",
"302 429 LINE",
"394 429 LINE",
"394 296 LINE",
"636 296 LINE",
"636 428 LINE",
"525 523 LINE",
"150 523 LINE",
"39 428 LINE",
"39 95 LINE",
"150 0 LINE"
);
},
{
closed = 1;
nodes = (
"431 575 LINE",
"593 738 LINE",
"368 738 LINE",
"259 575 LINE"
);
}
);
width = 675;
}
);
leftKerningGroup = o;
rightKerningGroup = e;
unicode = 0107;
},
{
glyphname = ccaron;
lastChange = "2019-10-06 17:58:23 +0000";
layers = (
{
layerId = "2BED5241-FEE2-452B-8B42-4A46EDD0955E";
paths = (
{
closed = 1;
nodes = (
"634 0 LINE",
"634 147 LINE",
"302 147 LINE",
"302 429 LINE",
"394 429 LINE",
"394 296 LINE",
"636 296 LINE",
"636 428 LINE",
"525 523 LINE",
"150 523 LINE",
"39 428 LINE",
"39 95 LINE",
"150 0 LINE"
);
},
{
closed = 1;
nodes = (
"487 575 LINE",
"610 738 LINE",
"423 738 LINE",
"347 662 LINE",
"271 738 LINE",
"84 738 LINE",
"207 575 LINE"
);
}
);
width = 675;
}
);
leftKerningGroup = o;
rightKerningGroup = e;
unicode = 010D;
},
{
glyphname = ccedilla;
lastChange = "2019-09-09 11:34:22 +0000";
layers = (
{
layerId = "2BED5241-FEE2-452B-8B42-4A46EDD0955E";
paths = (
{
closed = 1;
nodes = (
"400 -125 LINE",
"463 0 LINE",
"634 0 LINE",
"634 147 LINE",
"302 147 LINE",
"302 429 LINE",
"394 429 LINE",
"394 296 LINE",
"636 296 LINE",
"636 428 LINE",
"525 523 LINE",
"150 523 LINE",
"39 428 LINE",
"39 95 LINE",
"150 0 LINE",
"256 0 LINE",
"236 -125 LINE"
);
}
);
width = 675;
}
);
leftKerningGroup = o;
rightKerningGroup = e;
unicode = 00E7;
},
{
glyphname = ccircumflex;
lastChange = "2019-09-09 11:34:22 +0000";
layers = (
{
layerId = "2BED5241-FEE2-452B-8B42-4A46EDD0955E";
paths = (
{
closed = 1;
nodes = (
"634 0 LINE",
"634 147 LINE",
"302 147 LINE",
"302 429 LINE",
"394 429 LINE",
"394 296 LINE",
"636 296 LINE",
"636 428 LINE",
"525 523 LINE",
"150 523 LINE",
"39 428 LINE",
"39 95 LINE",
"150 0 LINE"
);
},
{
closed = 1;
nodes = (
"271 575 LINE",
"347 651 LINE",
"423 575 LINE",
"610 575 LINE",
"487 738 LINE",
"207 738 LINE",
"84 575 LINE"
);
}
);
width = 675;
}
);
leftKerningGroup = o;
rightKerningGroup = e;
unicode = 0109;
},
{
glyphname = cdotaccent;
lastChange = "2019-09-09 11:34:22 +0000";
layers = (
{
layerId = "2BED5241-FEE2-452B-8B42-4A46EDD0955E";
paths = (
{
closed = 1;
nodes = (
"634 0 LINE",
"634 147 LINE",
"302 147 LINE",
"302 429 LINE",
"394 429 LINE",
"394 296 LINE",
"636 296 LINE",
"636 428 LINE",
"525 523 LINE",
"150 523 LINE",
"39 428 LINE",
"39 95 LINE",
"150 0 LINE"
);
},
{
closed = 1;
nodes = (
"478.5 575 LINE",
"478.5 733 LINE",
"215.5 733 LINE",
"215.5 575 LINE"
);
}
);
width = 675;
}
);
leftKerningGroup = o;
rightKerningGroup = e;
unicode = 010B;
},
{
glyphname = d;
lastChange = "2019-09-09 11:34:22 +0000";
layers = (
{
layerId = "2BED5241-FEE2-452B-8B42-4A46EDD0955E";
paths = (
{
closed = 1;
nodes = (
"345.9 0 LINE",
"398.7 36.251 LINE",
"398.7 0 LINE",
"662.7 0 LINE",
"662.7 737 LINE",
"398.7 737 LINE",
"398.7 479.169 LINE",
"338.2 522.5 LINE",
"150.1 522.5 LINE",
"39 427.9 LINE",
"39 94.6 LINE",
"150.1 0 LINE"
);
},
{
closed = 1;
nodes = (
"301.9 425.7 LINE",
"338.2 425.7 LINE",
"398.7 380.734 LINE",
"398.7 129.038 LINE",
"333.8 89.1 LINE",
"301.9 89.1 LINE"
);
}
);
width = 706.7;
}
);
leftKerningGroup = o;
leftMetricsKey = o;
rightKerningGroup = l;
unicode = 0064;
},
{
glyphname = eth;
lastChange = "2019-09-09 11:34:22 +0000";
layers = (
{
layerId = "2BED5241-FEE2-452B-8B42-4A46EDD0955E";
paths = (
{
closed = 1;
nodes = (
"547 0 LINE",
"658 95 LINE",
"658 424 LINE",
"488.101 664.853 LINE",
"542 703 LINE",
"479 790 LINE",
"426.162 752.659 LINE",
"397 794 LINE",
"217 670 LINE",
"247.668 626.515 LINE",
"196 590 LINE",
"258 502 LINE",
"309.686 538.58 LINE",
"351 480 LINE",
"150 479 LINE",
"39 384 LINE",
"39 95 LINE",
"150 0 LINE"
);
},
{
closed = 1;
nodes = (
"303 385 LINE",
"395 385 LINE",
"395 94 LINE",
"303 94 LINE"
);
}
);
width = 697;
}
);
leftKerningGroup = o;
leftMetricsKey = o;
rightKerningGroup = o;
rightMetricsKey = o;
unicode = 00F0;
},
{
glyphname = dcaron;
lastChange = "2019-09-09 11:34:22 +0000";
layers = (
{
layerId = "2BED5241-FEE2-452B-8B42-4A46EDD0955E";
paths = (
{
closed = 1;
nodes = (
"345.9 0 LINE",
"398.7 36.251 LINE",
"398.7 0 LINE",
"662.7 0 LINE",
"662.7 737 LINE",
"398.7 737 LINE",
"398.7 479.169 LINE",
"338.2 522.5 LINE",
"150.1 522.5 LINE",
"39 427.9 LINE",
"39 94.6 LINE",
"150.1 0 LINE"
);
},
{
closed = 1;
nodes = (
"301.9 425.7 LINE",
"338.2 425.7 LINE",
"398.7 380.734 LINE",
"398.7 129.038 LINE",
"333.8 89.1 LINE",
"301.9 89.1 LINE"
);
},
{
closed = 1;
nodes = (
"835 555 LINE",
"968 737 LINE",
"746 737 LINE",
"695 555 LINE"
);
}
);
width = 706.70001;
}
);
leftKerningGroup = o;
rightKerningGroup = l;
unicode = 010F;
},
{
glyphname = dcroat;
lastChange = "2019-09-09 11:34:22 +0000";
layers = (
{
layerId = "2BED5241-FEE2-452B-8B42-4A46EDD0955E";
paths = (
{
closed = 1;
nodes = (
"345.9 0 LINE",
"398.7 36.251 LINE",
"398.7 0 LINE",
"662.7 0 LINE",
"662.7 548 LINE",
"719.8 548 LINE",
"719.8 686 LINE",
"662.7 686 LINE",
"662.7 737 LINE",
"398.7 737 LINE",
"398.7 686 LINE",
"300.8 686 LINE",
"300.8 548 LINE",
"398.7 548 LINE",
"398.7 479.169 LINE",
"338.2 522.5 LINE",
"150.1 522.5 LINE",
"39 427.9 LINE",
"39 94.6 LINE",
"150.1 0 LINE"
);
},
{
closed = 1;
nodes = (
"301.9 425.7 LINE",
"338.2 425.7 LINE",
"398.7 380.734 LINE",
"398.7 129.038 LINE",
"333.8 89.1 LINE",
"301.9 89.1 LINE"
);
}
);
width = 706.70001;
}
);
leftKerningGroup = o;
rightKerningGroup = l;
unicode = 0111;
},
{
glyphname = dzcaron;
lastChange = "2019-10-06 17:58:28 +0000";
layers = (
{
layerId = "2BED5241-FEE2-452B-8B42-4A46EDD0955E";
paths = (
{
closed = 1;
nodes = (
"345.9 0 LINE",
"398.7 36.251 LINE",
"398.7 0 LINE",
"662.7 0 LINE",
"662.7 737 LINE",
"398.7 737 LINE",
"398.7 479.169 LINE",
"338.2 522.5 LINE",
"150.1 522.5 LINE",
"39 427.9 LINE",
"39 94.6 LINE",
"150.1 0 LINE"
);
},
{
closed = 1;
nodes = (
"301.9 425.7 LINE",
"338.2 425.7 LINE",
"398.7 380.734 LINE",
"398.7 129.038 LINE",
"333.8 89.1 LINE",
"301.9 89.1 LINE"
);
},
{
closed = 1;
nodes = (
"1300.8 0 LINE",
"1300.8 136 LINE",
"1047.673 136 LINE",
"1290.8 376 LINE",
"1290.8 523 LINE",
"761.8 523 LINE",
"761.8 386 LINE",
"984.365 386 LINE",
"737.8 141 LINE",
"737.8 0 LINE"
);
},
{
closed = 1;
nodes = (
"1159.8 574 LINE",
"1282.8 737 LINE",
"1095.8 737 LINE",
"1019.8 661 LINE",
"943.8 737 LINE",
"756.8 737 LINE",
"879.8 574 LINE"
);
}
);
width = 1333.8;
}
);
leftKerningGroup = o;
unicode = 01C6;
},
{
glyphname = e;
lastChange = "2019-09-09 11:34:22 +0000";
layers = (
{
layerId = "2BED5241-FEE2-452B-8B42-4A46EDD0955E";
paths = (
{
closed = 1;
nodes = (
"621 0 LINE",
"621 147 LINE",
"303 147 LINE",
"303 210 LINE",
"626 210 LINE",
"626 428 LINE",
"515 523 LINE",
"150 523 LINE",
"39 428 LINE",
"39 95 LINE",
"150 0 LINE"
);
},
{
closed = 1;
nodes = (
"303 429 LINE",
"395 429 LINE",
"395 309 LINE",
"303 309 LINE"
);
}
);
width = 665;
}
);
leftKerningGroup = o;
leftMetricsKey = o;
rightKerningGroup = e;
unicode = 0065;
},
{
glyphname = eacute;
lastChange = "2019-09-09 11:34:22 +0000";
layers = (
{
layerId = "2BED5241-FEE2-452B-8B42-4A46EDD0955E";
paths = (
{
closed = 1;
nodes = (
"621 0 LINE",
"621 147 LINE",
"303 147 LINE",
"303 210 LINE",
"626 210 LINE",
"626 428 LINE",
"515 523 LINE",
"150 523 LINE",
"39 428 LINE",
"39 95 LINE",
"150 0 LINE"
);
},
{
closed = 1;
nodes = (
"303 429 LINE",
"395 429 LINE",
"395 309 LINE",
"303 309 LINE"
);
},
{
closed = 1;
nodes = (
"413 575 LINE",
"575 738 LINE",
"350 738 LINE",
"241 575 LINE"
);
}
);
width = 665;
}
);
leftKerningGroup = o;
rightKerningGroup = e;
unicode = 00E9;
},
{
glyphname = ebreve;
lastChange = "2019-09-09 11:34:22 +0000";
layers = (
{
layerId = "2BED5241-FEE2-452B-8B42-4A46EDD0955E";
paths = (
{
closed = 1;
nodes = (
"621 0 LINE",
"621 147 LINE",
"303 147 LINE",
"303 210 LINE",
"626 210 LINE",
"626 428 LINE",
"515 523 LINE",
"150 523 LINE",
"39 428 LINE",
"39 95 LINE",
"150 0 LINE"
);
},
{
closed = 1;
nodes = (
"303 429 LINE",
"395 429 LINE",
"395 309 LINE",
"303 309 LINE"
);
},
{
closed = 1;
nodes = (
"468 575 LINE",
"571 663 LINE",
"571 738 LINE",
"380 738 LINE",
"380 686 LINE",
"278 686 LINE",
"278 738 LINE",
"87 738 LINE",
"87 663 LINE",
"190 575 LINE"
);
}
);
width = 665;
}
);
leftKerningGroup = o;
rightKerningGroup = e;
unicode = 0115;
},
{
glyphname = ecaron;
lastChange = "2019-10-06 17:58:36 +0000";
layers = (
{
layerId = "2BED5241-FEE2-452B-8B42-4A46EDD0955E";
paths = (
{
closed = 1;
nodes = (
"621 0 LINE",
"621 147 LINE",
"303 147 LINE",
"303 210 LINE",
"626 210 LINE",
"626 428 LINE",
"515 523 LINE",
"150 523 LINE",
"39 428 LINE",
"39 95 LINE",
"150 0 LINE"
);
},
{
closed = 1;
nodes = (
"303 429 LINE",
"395 429 LINE",
"395 309 LINE",
"303 309 LINE"
);
},
{
closed = 1;
nodes = (
"469 575 LINE",
"592 738 LINE",
"405 738 LINE",
"329 662 LINE",
"253 738 LINE",
"66 738 LINE",
"189 575 LINE"
);
}
);
width = 665;
}
);
leftKerningGroup = o;
rightKerningGroup = e;
unicode = 011B;
},
{
glyphname = ecircumflex;
lastChange = "2019-09-09 11:34:22 +0000";
layers = (
{
layerId = "2BED5241-FEE2-452B-8B42-4A46EDD0955E";
paths = (
{
closed = 1;
nodes = (
"621 0 LINE",
"621 147 LINE",
"303 147 LINE",
"303 210 LINE",
"626 210 LINE",
"626 428 LINE",
"515 523 LINE",
"150 523 LINE",
"39 428 LINE",
"39 95 LINE",
"150 0 LINE"
);
},
{
closed = 1;
nodes = (
"303 429 LINE",
"395 429 LINE",
"395 309 LINE",
"303 309 LINE"
);
},
{
closed = 1;
nodes = (
"253 575 LINE",
"329 651 LINE",
"405 575 LINE",
"592 575 LINE",
"469 738 LINE",
"189 738 LINE",
"66 575 LINE"
);
}
);
width = 665;
}
);
leftKerningGroup = o;
rightKerningGroup = e;
unicode = 00EA;
},
{
glyphname = ecircumflexacute;
lastChange = "2019-09-09 11:34:22 +0000";
layers = (
{
layerId = "2BED5241-FEE2-452B-8B42-4A46EDD0955E";
paths = (
{
closed = 1;
nodes = (
"621 0 LINE",
"621 147 LINE",
"303 147 LINE",
"303 210 LINE",
"626 210 LINE",
"626 428 LINE",
"515 523 LINE",
"150 523 LINE",
"39 428 LINE",
"39 95 LINE",
"150 0 LINE"
);
},
{
closed = 1;
nodes = (
"303 429 LINE",
"395 429 LINE",
"395 309 LINE",
"303 309 LINE"
);
},
{
closed = 1;
nodes = (
"253 575 LINE",
"329 651 LINE",
"405 575 LINE",
"592 575 LINE",
"469 738 LINE",
"189 738 LINE",
"66 575 LINE"
);
},
{
closed = 1;
nodes = (
"746 662.53 LINE",
"908 825.53 LINE",
"683 825.53 LINE",
"574 662.53 LINE"
);
}
);
width = 665;
}
);
leftKerningGroup = o;
rightKerningGroup = e;
unicode = 1EBF;
},
{
glyphname = ecircumflexdotbelow;
lastChange = "2019-09-09 11:34:22 +0000";
layers = (
{
layerId = "2BED5241-FEE2-452B-8B42-4A46EDD0955E";
paths = (
{
closed = 1;
nodes = (
"621 0 LINE",
"621 147 LINE",
"303 147 LINE",
"303 210 LINE",
"626 210 LINE",
"626 428 LINE",
"515 523 LINE",
"150 523 LINE",
"39 428 LINE",
"39 95 LINE",
"150 0 LINE"
);
},
{
closed = 1;
nodes = (
"460.5 -209.013 LINE",
"460.5 -51.013 LINE",
"197.5 -51.013 LINE",
"197.5 -209.013 LINE"
);
},
{
closed = 1;
nodes = (
"303 429 LINE",
"395 429 LINE",
"395 309 LINE",
"303 309 LINE"
);
},
{
closed = 1;
nodes = (
"253 575 LINE",
"329 651 LINE",
"405 575 LINE",
"592 575 LINE",
"469 738 LINE",
"189 738 LINE",
"66 575 LINE"
);
}
);
width = 665;
}
);
leftKerningGroup = o;
rightKerningGroup = e;
unicode = 1EC7;
},
{
glyphname = ecircumflexgrave;
lastChange = "2019-10-08 22:06:16 +0000";
layers = (
{
layerId = "2BED5241-FEE2-452B-8B42-4A46EDD0955E";
paths = (
{
closed = 1;
nodes = (
"621 0 LINE",
"621 147 LINE",
"303 147 LINE",
"303 210 LINE",
"626 210 LINE",
"626 428 LINE",
"515 523 LINE",
"150 523 LINE",
"39 428 LINE",
"39 95 LINE",
"150 0 LINE"
);
},
{
closed = 1;
nodes = (
"83 662.53 LINE",
"-26 825.53 LINE",
"-251 825.53 LINE",
"-89 662.53 LINE"
);
},
{
closed = 1;
nodes = (
"303 429 LINE",
"395 429 LINE",
"395 309 LINE",
"303 309 LINE"
);
},
{
closed = 1;
nodes = (
"252 575 LINE",
"328 651 LINE",
"404 575 LINE",
"591 575 LINE",
"468 738 LINE",
"188 738 LINE",
"65 575 LINE"
);
}
);
width = 665;
}
);
leftKerningGroup = o;
rightKerningGroup = e;
unicode = 1EC1;
},
{
glyphname = ecircumflexhookabove;
lastChange = "2019-09-09 11:34:22 +0000";
layers = (
{
layerId = "2BED5241-FEE2-452B-8B42-4A46EDD0955E";
paths = (
{
closed = 1;
nodes = (
"621 0 LINE",
"621 147 LINE",
"303 147 LINE",
"303 210 LINE",
"626 210 LINE",
"626 428 LINE",
"515 523 LINE",
"150 523 LINE",
"39 428 LINE",
"39 95 LINE",
"150 0 LINE"
);
},
{
closed = 1;
nodes = (
"303 429 LINE",
"395 429 LINE",
"395 309 LINE",
"303 309 LINE"
);
},
{
closed = 1;
nodes = (
"253 575 LINE",
"329 651 LINE",
"405 575 LINE",
"592 575 LINE",
"469 738 LINE",
"189 738 LINE",
"66 575 LINE"
);
},
{
closed = 1;
nodes = (
"732 662.653 LINE",
"732 701.653 LINE",
"774 701.653 LINE",
"822 739.653 LINE",
"822 858.653 LINE",
"773 900.653 LINE",
"550 900.653 LINE",
"495 858.653 LINE",
"495 793.653 LINE",
"640 793.653 LINE",
"640 834.653 LINE",
"672 834.653 LINE",
"672 768.653 LINE",
"613 768.653 LINE",
"574 739.653 LINE",
"574 662.653 LINE"
);
}
);
width = 665;
}
);
leftKerningGroup = o;
rightKerningGroup = e;
unicode = 1EC3;
},
{
glyphname = ecircumflextilde;
lastChange = "2019-09-09 11:34:22 +0000";
layers = (
{
layerId = "2BED5241-FEE2-452B-8B42-4A46EDD0955E";
paths = (
{
closed = 1;
nodes = (
"621 0 LINE",
"621 147 LINE",
"303 147 LINE",
"303 210 LINE",
"626 210 LINE",
"626 428 LINE",
"515 523 LINE",
"150 523 LINE",
"39 428 LINE",
"39 95 LINE",
"150 0 LINE"
);
},
{
closed = 1;
nodes = (
"303 429 LINE",
"395 429 LINE",
"395 309 LINE",
"303 309 LINE"
);
},
{
closed = 1;
nodes = (
"253 575 LINE",
"329 651 LINE",
"405 575 LINE",
"592 575 LINE",
"469 738 LINE",
"189 738 LINE",
"66 575 LINE"
);
},
{
closed = 1;
nodes = (
"503 769 LINE",
"587 841 LINE",
"587 930 LINE",
"440 930 LINE",
"440 897 LINE",
"424 882 LINE",
"406 882 LINE",
"357 937 LINE",
"164 937 LINE",
"81 863 LINE",
"81 775 LINE",
"228 775 LINE",
"228 807 LINE",
"244 823 LINE",
"261 823 LINE",
"311 769 LINE"
);
}
);
width = 665;
}
);
leftKerningGroup = o;
rightKerningGroup = e;
unicode = 1EC5;
},
{
glyphname = edblgrave;
lastChange = "2019-10-08 22:04:04 +0000";
layers = (
{
layerId = "2BED5241-FEE2-452B-8B42-4A46EDD0955E";
paths = (
{
closed = 1;
nodes = (
"621 0 LINE",
"621 147 LINE",
"303 147 LINE",
"303 210 LINE",
"626 210 LINE",
"626 428 LINE",
"515 523 LINE",
"150 523 LINE",
"39 428 LINE",
"39 95 LINE",
"150 0 LINE"
);
},
{
closed = 1;
nodes = (
"303 429 LINE",
"395 429 LINE",
"395 309 LINE",
"303 309 LINE"
);
},
{
closed = 1;
nodes = (
"262 575 LINE",
"154 738 LINE",
"-61 738 LINE",
"102 575 LINE"
);
},
{
closed = 1;
nodes = (
"539 575 LINE",
"430 738 LINE",
"215 738 LINE",
"378 575 LINE"
);
}
);
width = 664;
}
);
leftKerningGroup = o;
rightKerningGroup = e;
unicode = 0205;
},
{
glyphname = edieresis;
lastChange = "2019-09-09 11:34:22 +0000";
layers = (
{
layerId = "2BED5241-FEE2-452B-8B42-4A46EDD0955E";
paths = (
{
closed = 1;
nodes = (
"621 0 LINE",
"621 147 LINE",
"303 147 LINE",
"303 210 LINE",
"626 210 LINE",
"626 428 LINE",
"515 523 LINE",
"150 523 LINE",
"39 428 LINE",
"39 95 LINE",
"150 0 LINE"
);
},
{
closed = 1;
nodes = (
"303 429 LINE",
"395 429 LINE",
"395 309 LINE",
"303 309 LINE"
);
},
{
closed = 1;
nodes = (
"295 575 LINE",
"295 733 LINE",
"56 733 LINE",
"56 575 LINE"
);
},
{
closed = 1;
nodes = (
"602 575 LINE",
"602 733 LINE",
"363 733 LINE",
"363 575 LINE"
);
}
);
width = 665;
}
);
leftKerningGroup = o;
rightKerningGroup = e;
unicode = 00EB;
},
{
glyphname = edotaccent;
lastChange = "2019-09-09 11:34:22 +0000";
layers = (
{
layerId = "2BED5241-FEE2-452B-8B42-4A46EDD0955E";
paths = (
{
closed = 1;
nodes = (
"621 0 LINE",
"621 147 LINE",
"303 147 LINE",
"303 210 LINE",
"626 210 LINE",
"626 428 LINE",
"515 523 LINE",
"150 523 LINE",
"39 428 LINE",
"39 95 LINE",
"150 0 LINE"
);
},
{
closed = 1;
nodes = (
"303 429 LINE",
"395 429 LINE",
"395 309 LINE",
"303 309 LINE"
);
},
{
closed = 1;
nodes = (
"460.5 575 LINE",
"460.5 733 LINE",
"197.5 733 LINE",
"197.5 575 LINE"
);
}
);
width = 665;
}
);
leftKerningGroup = o;
rightKerningGroup = e;
unicode = 0117;
},
{
glyphname = edotbelow;
lastChange = "2019-09-09 11:34:22 +0000";
layers = (
{
layerId = "2BED5241-FEE2-452B-8B42-4A46EDD0955E";
paths = (
{
closed = 1;
nodes = (
"621 0 LINE",
"621 147 LINE",
"303 147 LINE",
"303 210 LINE",
"626 210 LINE",
"626 428 LINE",
"515 523 LINE",
"150 523 LINE",
"39 428 LINE",
"39 95 LINE",
"150 0 LINE"
);
},
{
closed = 1;
nodes = (
"460.5 -209.013 LINE",
"460.5 -51.013 LINE",
"197.5 -51.013 LINE",
"197.5 -209.013 LINE"
);
},
{
closed = 1;
nodes = (
"303 429 LINE",
"395 429 LINE",
"395 309 LINE",
"303 309 LINE"
);
}
);
width = 665;
}
);
leftKerningGroup = o;
rightKerningGroup = e;
unicode = 1EB9;
},
{
glyphname = egrave;
lastChange = "2019-09-09 11:34:22 +0000";
layers = (
{
layerId = "2BED5241-FEE2-452B-8B42-4A46EDD0955E";
paths = (
{
closed = 1;
nodes = (
"621 0 LINE",
"621 147 LINE",
"303 147 LINE",
"303 210 LINE",
"626 210 LINE",
"626 428 LINE",
"515 523 LINE",
"150 523 LINE",
"39 428 LINE",
"39 95 LINE",
"150 0 LINE"
);
},
{
closed = 1;
nodes = (
"303 429 LINE",
"395 429 LINE",
"395 309 LINE",
"303 309 LINE"
);
},
{
closed = 1;
nodes = (
"418 575 LINE",
"309 738 LINE",
"84 738 LINE",
"246 575 LINE"
);
}
);
width = 665;
}
);
leftKerningGroup = o;
rightKerningGroup = e;
unicode = 00E8;
},
{
glyphname = ehookabove;
lastChange = "2019-09-09 11:34:22 +0000";
layers = (
{
layerId = "2BED5241-FEE2-452B-8B42-4A46EDD0955E";
paths = (
{
closed = 1;
nodes = (
"621 0 LINE",
"621 147 LINE",
"303 147 LINE",
"303 210 LINE",
"626 210 LINE",
"626 428 LINE",
"515 523 LINE",
"150 523 LINE",
"39 428 LINE",
"39 95 LINE",
"150 0 LINE"
);
},
{
closed = 1;
nodes = (
"303 429 LINE",
"395 429 LINE",
"395 309 LINE",
"303 309 LINE"
);
},
{
closed = 1;
nodes = (
"408 575 LINE",
"408 614 LINE",
"450 614 LINE",
"498 652 LINE",
"498 771 LINE",
"449 813 LINE",
"226 813 LINE",
"171 771 LINE",
"171 706 LINE",
"316 706 LINE",
"316 747 LINE",
"348 747 LINE",
"348 681 LINE",
"289 681 LINE",
"250 652 LINE",
"250 575 LINE"
);
}
);
width = 665;
}
);
leftKerningGroup = o;
rightKerningGroup = e;
unicode = 1EBB;
},
{
glyphname = einvertedbreve;
lastChange = "2019-09-09 11:34:22 +0000";
layers = (
{
layerId = "2BED5241-FEE2-452B-8B42-4A46EDD0955E";
paths = (
{
closed = 1;
nodes = (
"621 0 LINE",
"621 147 LINE",
"303 147 LINE",
"303 210 LINE",
"626 210 LINE",
"626 428 LINE",
"515 523 LINE",
"150 523 LINE",
"39 428 LINE",
"39 95 LINE",
"150 0 LINE"
);
},
{
closed = 1;
nodes = (
"303 429 LINE",
"395 429 LINE",
"395 309 LINE",
"303 309 LINE"
);
},
{
closed = 1;
nodes = (
"278 575 LINE",
"278 627 LINE",
"380 627 LINE",
"380 575 LINE",
"571 575 LINE",
"571 650 LINE",
"468 738 LINE",
"190 738 LINE",
"87 650 LINE",
"87 575 LINE"
);
}
);
width = 665;
}
);
leftKerningGroup = o;
rightKerningGroup = e;
unicode = 0207;
},
{
glyphname = emacron;
lastChange = "2019-09-09 11:34:22 +0000";
layers = (
{
layerId = "2BED5241-FEE2-452B-8B42-4A46EDD0955E";
paths = (
{
closed = 1;
nodes = (
"621 0 LINE",
"621 147 LINE",
"303 147 LINE",
"303 210 LINE",
"626 210 LINE",
"626 428 LINE",
"515 523 LINE",
"150 523 LINE",
"39 428 LINE",
"39 95 LINE",
"150 0 LINE"
);
},
{
closed = 1;
nodes = (
"303 429 LINE",
"395 429 LINE",
"395 309 LINE",
"303 309 LINE"
);
},
{
closed = 1;
nodes = (
"602 575 LINE",
"602 724 LINE",
"56 724 LINE",
"56 575 LINE"
);
}
);
width = 665;
}
);
leftKerningGroup = o;
rightKerningGroup = e;
unicode = 0113;
},
{
glyphname = eogonek;
lastChange = "2019-09-09 11:34:22 +0000";
layers = (
{
layerId = "2BED5241-FEE2-452B-8B42-4A46EDD0955E";
paths = (
{
closed = 1;
nodes = (
"621 -191 LINE",
"621 -64 LINE",
"607 -64 LINE",
"591 -49 LINE",
"591 -26 LINE",
"621 0 LINE",
"621 147 LINE",
"303 147 LINE",
"303 210 LINE",
"626 210 LINE",
"626 428 LINE",
"515 523 LINE",
"150 523 LINE",
"39 428 LINE",
"39 95 LINE",
"150 0 LINE",
"501 0 LINE",
"456 -33 LINE",
"456 -122 LINE",
"539 -191 LINE"
);
},
{
closed = 1;
nodes = (
"303 429 LINE",
"395 429 LINE",
"395 309 LINE",
"303 309 LINE"
);
}
);
width = 665;
}
);
leftKerningGroup = o;
leftMetricsKey = e;
rightKerningGroup = e;
rightMetricsKey = e;
unicode = 0119;
},
{
glyphname = etilde;
lastChange = "2019-09-09 11:34:22 +0000";
layers = (
{
layerId = "2BED5241-FEE2-452B-8B42-4A46EDD0955E";
paths = (
{
closed = 1;
nodes = (
"621 0 LINE",
"621 147 LINE",
"303 147 LINE",
"303 210 LINE",
"626 210 LINE",
"626 428 LINE",
"515 523 LINE",
"150 523 LINE",
"39 428 LINE",
"39 95 LINE",
"150 0 LINE"
);
},
{
closed = 1;
nodes = (
"303 429 LINE",
"395 429 LINE",
"395 309 LINE",
"303 309 LINE"
);
},
{
closed = 1;
nodes = (
"499 575 LINE",
"583 647 LINE",
"583 736 LINE",
"436 736 LINE",
"436 703 LINE",
"420 688 LINE",
"402 688 LINE",
"353 743 LINE",
"160 743 LINE",
"77 669 LINE",
"77 581 LINE",
"224 581 LINE",
"224 613 LINE",
"240 629 LINE",
"257 629 LINE",
"307 575 LINE"
);
}
);
width = 665;
}
);
leftKerningGroup = o;
rightKerningGroup = e;
unicode = 1EBD;
},
{
glyphname = schwa;
lastChange = "2019-09-09 11:34:22 +0000";
layers = (
{
layerId = "2BED5241-FEE2-452B-8B42-4A46EDD0955E";
paths = (
{
closed = 1;
nodes = (
"515 0 LINE",
"626 95 LINE",
"626 428 LINE",
"515 523 LINE",
"44 523 LINE",
"44 376 LINE",
"362 376 LINE",
"362 313 LINE",
"39 313 LINE",
"39 95 LINE",
"150 0 LINE"
);
},
{
closed = 1;
nodes = (
"270 214 LINE",
"362 214 LINE",
"362 94 LINE",
"270 94 LINE"
);
}
);
width = 665;
}
);
leftKerningGroup = o;
rightKerningGroup = e;
unicode = 0259;
},
{
glyphname = f;
lastChange = "2019-09-09 11:34:22 +0000";
layers = (
{
layerId = "2BED5241-FEE2-452B-8B42-4A46EDD0955E";
paths = (
{
closed = 1;
nodes = (
"312 0 LINE",
"312 404 LINE",
"403 404 LINE",
"403 523 LINE",
"312 523 LINE",
"312 617 LINE",
"427 617 LINE",
"427 737 LINE",
"160 737 LINE",
"49 642 LINE",
"49 523 LINE",
"6 523 LINE",
"6 404 LINE",
"49 404 LINE",
"49 0 LINE"
);
}
);
width = 427;
}
);
leftKerningGroup = f;
rightKerningGroup = f;
unicode = 0066;
},
{
glyphname = g;
lastChange = "2019-09-09 11:34:22 +0000";
layers = (
{
layerId = "2BED5241-FEE2-452B-8B42-4A46EDD0955E";
paths = (
{
closed = 1;
nodes = (
"511.8 -187 LINE",
"635.8 -56 LINE",
"635.8 522 LINE",
"397.8 522 LINE",
"397.8 479.814 LINE",
"338.2 522.5 LINE",
"150.1 522.5 LINE",
"39 427.9 LINE",
"39 94.6 LINE",
"150.1 0 LINE",
"345.9 0 LINE",
"397.8 35.633 LINE",
"397.8 -16 LINE",
"363.8 -53 LINE",
"71.8 -53 LINE",
"71.8 -187 LINE"
);
},
{
closed = 1;
nodes = (
"301.9 425.7 LINE",
"338.2 425.7 LINE",
"397.8 381.403 LINE",
"397.8 128.485 LINE",
"333.8 89.1 LINE",
"301.9 89.1 LINE"
);
}
);
width = 679.8;
}
);
leftKerningGroup = o;
leftMetricsKey = o;
rightKerningGroup = u;
rightMetricsKey = d;
unicode = 0067;
},
{
glyphname = gbreve;
lastChange = "2019-09-09 11:34:22 +0000";
layers = (
{
layerId = "2BED5241-FEE2-452B-8B42-4A46EDD0955E";
paths = (
{
closed = 1;
nodes = (
"511.8 -187 LINE",
"635.8 -56 LINE",
"635.8 522 LINE",
"397.8 522 LINE",
"397.8 479.814 LINE",
"338.2 522.5 LINE",
"150.1 522.5 LINE",
"39 427.9 LINE",
"39 94.6 LINE",
"150.1 0 LINE",
"345.9 0 LINE",
"397.8 35.633 LINE",
"397.8 -16 LINE",
"363.8 -53 LINE",
"71.8 -53 LINE",
"71.8 -187 LINE"
);
},
{
closed = 1;
nodes = (
"301.9 425.7 LINE",
"338.2 425.7 LINE",
"397.8 381.403 LINE",
"397.8 128.485 LINE",
"333.8 89.1 LINE",
"301.9 89.1 LINE"
);
},
{
closed = 1;
nodes = (
"475.8 574 LINE",
"578.8 662 LINE",
"578.8 737 LINE",
"387.8 737 LINE",
"387.8 685 LINE",
"285.8 685 LINE",
"285.8 737 LINE",
"94.8 737 LINE",
"94.8 662 LINE",
"197.8 574 LINE"
);
}
);
width = 679.8;
}
);
leftKerningGroup = o;
rightKerningGroup = u;
unicode = 011F;
},
{
glyphname = gcaron;
lastChange = "2019-10-06 17:58:38 +0000";
layers = (
{
layerId = "2BED5241-FEE2-452B-8B42-4A46EDD0955E";
paths = (
{
closed = 1;
nodes = (
"511.8 -187 LINE",
"635.8 -56 LINE",
"635.8 522 LINE",
"397.8 522 LINE",
"397.8 479.814 LINE",
"338.2 522.5 LINE",
"150.1 522.5 LINE",
"39 427.9 LINE",
"39 94.6 LINE",
"150.1 0 LINE",
"345.9 0 LINE",
"397.8 35.633 LINE",
"397.8 -16 LINE",
"363.8 -53 LINE",
"71.8 -53 LINE",
"71.8 -187 LINE"
);
},
{
closed = 1;
nodes = (
"301.9 425.7 LINE",
"338.2 425.7 LINE",
"397.8 381.403 LINE",
"397.8 128.485 LINE",
"333.8 89.1 LINE",
"301.9 89.1 LINE"
);
},
{
closed = 1;
nodes = (
"476.8 574 LINE",
"599.8 737 LINE",
"412.8 737 LINE",
"336.8 661 LINE",
"260.8 737 LINE",
"73.8 737 LINE",
"196.8 574 LINE"
);
}
);
width = 679.8;
}
);
leftKerningGroup = o;
rightKerningGroup = u;
unicode = 01E7;
},
{
glyphname = gcircumflex;
lastChange = "2019-09-09 11:34:22 +0000";
layers = (
{
layerId = "2BED5241-FEE2-452B-8B42-4A46EDD0955E";
paths = (
{
closed = 1;
nodes = (
"511.8 -187 LINE",
"635.8 -56 LINE",
"635.8 522 LINE",
"397.8 522 LINE",
"397.8 479.814 LINE",
"338.2 522.5 LINE",
"150.1 522.5 LINE",
"39 427.9 LINE",
"39 94.6 LINE",
"150.1 0 LINE",
"345.9 0 LINE",
"397.8 35.633 LINE",
"397.8 -16 LINE",
"363.8 -53 LINE",
"71.8 -53 LINE",
"71.8 -187 LINE"
);
},
{
closed = 1;
nodes = (
"301.9 425.7 LINE",
"338.2 425.7 LINE",
"397.8 381.403 LINE",
"397.8 128.485 LINE",
"333.8 89.1 LINE",
"301.9 89.1 LINE"
);
},
{
closed = 1;
nodes = (
"260.8 574 LINE",
"336.8 650 LINE",
"412.8 574 LINE",
"599.8 574 LINE",
"476.8 737 LINE",
"196.8 737 LINE",
"73.8 574 LINE"
);
}
);
width = 679.8;
}
);
leftKerningGroup = o;
rightKerningGroup = u;
unicode = 011D;
},
{
glyphname = gcommaaccent;
lastChange = "2019-09-09 11:34:22 +0000";
layers = (
{
layerId = "2BED5241-FEE2-452B-8B42-4A46EDD0955E";
paths = (
{
closed = 1;
nodes = (
"511.8 -187 LINE",
"635.8 -56 LINE",
"635.8 522 LINE",
"397.8 522 LINE",
"397.8 479.814 LINE",
"338.2 522.5 LINE",
"150.1 522.5 LINE",
"39 427.9 LINE",
"39 94.6 LINE",
"150.1 0 LINE",
"345.9 0 LINE",
"397.8 35.633 LINE",
"397.8 -16 LINE",
"363.8 -53 LINE",
"71.8 -53 LINE",
"71.8 -187 LINE"
);
},
{
closed = 1;
nodes = (
"301.9 425.7 LINE",
"338.2 425.7 LINE",
"397.8 381.403 LINE",
"397.8 128.485 LINE",
"333.8 89.1 LINE",
"301.9 89.1 LINE"
);
},
{
closed = 1;
nodes = (
"452.8 573.652 LINE",
"503.8 755.652 LINE",
"363.8 755.652 LINE",
"230.8 573.652 LINE"
);
}
);
width = 679.8;
}
);
leftKerningGroup = o;
rightKerningGroup = u;
unicode = 0123;
},
{
glyphname = gdotaccent;
lastChange = "2019-09-09 11:34:22 +0000";
layers = (
{
layerId = "2BED5241-FEE2-452B-8B42-4A46EDD0955E";
paths = (
{
closed = 1;
nodes = (
"511.8 -187 LINE",
"635.8 -56 LINE",
"635.8 522 LINE",
"397.8 522 LINE",
"397.8 479.814 LINE",
"338.2 522.5 LINE",
"150.1 522.5 LINE",
"39 427.9 LINE",
"39 94.6 LINE",
"150.1 0 LINE",
"345.9 0 LINE",
"397.8 35.633 LINE",
"397.8 -16 LINE",
"363.8 -53 LINE",
"71.8 -53 LINE",
"71.8 -187 LINE"
);
},
{
closed = 1;
nodes = (
"301.9 425.7 LINE",
"338.2 425.7 LINE",
"397.8 381.403 LINE",
"397.8 128.485 LINE",
"333.8 89.1 LINE",
"301.9 89.1 LINE"
);
},
{
closed = 1;
nodes = (
"468.3 574 LINE",
"468.3 732 LINE",
"205.3 732 LINE",
"205.3 574 LINE"
);
}
);
width = 679.8;
}
);
leftKerningGroup = o;
rightKerningGroup = u;
unicode = 0121;
},
{
glyphname = h;
lastChange = "2019-09-09 11:34:22 +0000";
layers = (
{
layerId = "2BED5241-FEE2-452B-8B42-4A46EDD0955E";
paths = (
{
closed = 1;
nodes = (
"308 0 LINE",
"308 381.333 LINE",
"370.6 425.7 LINE",
"402.5 425.7 LINE",
"402.5 0 LINE",
"665.4 0 LINE",
"665.4 427.9 LINE",
"554.3 522.5 LINE",
"368.4 522.5 LINE",
"308 480.639 LINE",
"308 737 LINE",
"44 737 LINE",
"44 0 LINE"
);
}
);
width = 704.4;
}
);
leftKerningGroup = _part.l;
leftMetricsKey = n;
rightKerningGroup = n;
rightMetricsKey = n;
unicode = 0068;
},
{
glyphname = hbar;
lastChange = "2019-09-09 11:34:22 +0000";
layers = (
{
layerId = "2BED5241-FEE2-452B-8B42-4A46EDD0955E";
paths = (
{
closed = 1;
nodes = (
"308 0 LINE",
"308 381.333 LINE",
"370.6 425.7 LINE",
"402.5 425.7 LINE",
"402.5 0 LINE",
"665.4 0 LINE",
"665.4 427.9 LINE",
"554.3 522.5 LINE",
"368.4 522.5 LINE",
"308 480.639 LINE",
"308 551 LINE",
"419 551 LINE",
"419 689 LINE",
"308 689 LINE",
"308 737 LINE",
"44 737 LINE",
"44 689 LINE",
"0 689 LINE",
"0 551 LINE",
"44 551 LINE",
"44 0 LINE"
);
}
);
width = 704.4;
}
);
leftKerningGroup = _part.l;
rightKerningGroup = n;
unicode = 0127;
},
{
glyphname = hcircumflex;
lastChange = "2019-09-09 11:34:22 +0000";
layers = (
{
guideLines = (
{
angle = 90;
position = "{283.9, 527}";
},
{
angle = 90;
position = "{44.9, 485}";
}
);
layerId = "2BED5241-FEE2-452B-8B42-4A46EDD0955E";
paths = (
{
closed = 1;
nodes = (
"308 0 LINE",
"308 381.333 LINE",
"370.6 425.7 LINE",
"402.5 425.7 LINE",
"402.5 0 LINE",
"665.4 0 LINE",
"665.4 427.9 LINE",
"554.3 522.5 LINE",
"368.4 522.5 LINE",
"308 480.639 LINE",
"308 737 LINE",
"44 737 LINE",
"44 0 LINE"
);
},
{
closed = 1;
nodes = (
"233.9 789 LINE",
"309.9 865 LINE",
"385.9 789 LINE",
"572.9 789 LINE",
"449.9 952 LINE",
"169.9 952 LINE",
"46.9 789 LINE"
);
}
);
width = 704.4;
}
);
leftKerningGroup = _part.l;
rightKerningGroup = n;
unicode = 0125;
},
{
glyphname = i;
lastChange = "2019-10-06 17:18:10 +0000";
layers = (
{
layerId = "2BED5241-FEE2-452B-8B42-4A46EDD0955E";
paths = (
{
closed = 1;
nodes = (
"307 0 LINE",
"307 522.5 LINE",
"44 522.5 LINE",
"44 0 LINE"
);
},
{
closed = 1;
nodes = (
"307 574.5 LINE",
"307 732.5 LINE",
"44 732.5 LINE",
"44 574.5 LINE"
);
}
);
width = 351;
}
);
leftKerningGroup = i;
leftMetricsKey = n;
rightKerningGroup = i;
rightMetricsKey = d;
unicode = 0069;
},
{
glyphname = idotless;
lastChange = "2019-09-09 11:34:22 +0000";
layers = (
{
layerId = "2BED5241-FEE2-452B-8B42-4A46EDD0955E";
paths = (
{
closed = 1;
nodes = (
"306.9 0 LINE",
"306.9 522.5 LINE",
"44 522.5 LINE",
"44 0 LINE"
);
}
);
width = 350.9;
}
);
leftKerningGroup = i;
leftMetricsKey = n;
rightKerningGroup = i;
rightMetricsKey = d;
unicode = 0131;
},
{
glyphname = iacute;
lastChange = "2019-09-09 11:34:22 +0000";
layers = (
{
layerId = "2BED5241-FEE2-452B-8B42-4A46EDD0955E";
paths = (
{
closed = 1;
nodes = (
"306.9 0 LINE",
"306.9 522.5 LINE",
"44 522.5 LINE",
"44 0 LINE"
);
},
{
closed = 1;
nodes = (
"259.9 575 LINE",
"421.9 738 LINE",
"196.9 738 LINE",
"87.9 575 LINE"
);
}
);
width = 350.9;
}
);
leftKerningGroup = i;
rightKerningGroup = i;
unicode = 00ED;
},
{
glyphname = ibreve;
lastChange = "2019-09-09 11:34:22 +0000";
layers = (
{
layerId = "2BED5241-FEE2-452B-8B42-4A46EDD0955E";
paths = (
{
closed = 1;
nodes = (
"307 0 LINE",
"307 522.5 LINE",
"44.1 522.5 LINE",
"44.1 0 LINE"
);
},
{
closed = 1;
nodes = (
"315 575 LINE",
"418 663 LINE",
"418 738 LINE",
"227 738 LINE",
"227 686 LINE",
"125 686 LINE",
"125 738 LINE",
"-66 738 LINE",
"-66 663 LINE",
"37 575 LINE"
);
}
);
width = 351;
}
);
leftKerningGroup = i;
rightKerningGroup = i;
unicode = 012D;
},
{
glyphname = icircumflex;
lastChange = "2019-09-09 11:34:22 +0000";
layers = (
{
layerId = "2BED5241-FEE2-452B-8B42-4A46EDD0955E";
paths = (
{
closed = 1;
nodes = (
"307 0 LINE",
"307 522.5 LINE",
"44.1 522.5 LINE",
"44.1 0 LINE"
);
},
{
closed = 1;
nodes = (
"100 575 LINE",
"176 651 LINE",
"252 575 LINE",
"439 575 LINE",
"316 738 LINE",
"36 738 LINE",
"-87 575 LINE"
);
}
);
width = 351;
}
);
leftKerningGroup = i;
rightKerningGroup = i;
unicode = 00EE;
},
{
glyphname = idblgrave;
lastChange = "2019-10-08 22:06:36 +0000";
layers = (
{
layerId = "2BED5241-FEE2-452B-8B42-4A46EDD0955E";
paths = (
{
closed = 1;
nodes = (
"307 0 LINE",
"307 522.5 LINE",
"44.1 522.5 LINE",
"44.1 0 LINE"
);
},
{
closed = 1;
nodes = (
"110 575 LINE",
"2 738 LINE",
"-213 738 LINE",
"-50 575 LINE"
);
},
{
closed = 1;
nodes = (
"387 575 LINE",
"278 738 LINE",
"63 738 LINE",
"226 575 LINE"
);
}
);
width = 351;
}
);
leftKerningGroup = i;
rightKerningGroup = i;
unicode = 0209;
},
{
glyphname = idieresis;
lastChange = "2019-10-08 22:08:56 +0000";
layers = (
{
layerId = "2BED5241-FEE2-452B-8B42-4A46EDD0955E";
paths = (
{
closed = 1;
nodes = (
"307 0 LINE",
"307 522.5 LINE",
"44.1 522.5 LINE",
"44.1 0 LINE"
);
},
{
closed = 1;
nodes = (
"142 575 LINE",
"142 733 LINE",
"-97 733 LINE",
"-97 575 LINE"
);
},
{
closed = 1;
nodes = (
"449 575 LINE",
"449 733 LINE",
"210 733 LINE",
"210 575 LINE"
);
}
);
width = 351;
}
);
leftKerningGroup = i;
rightKerningGroup = i;
unicode = 00EF;
},
{
glyphname = idotaccent;
lastChange = "2019-09-09 11:34:22 +0000";
layers = (
{
layerId = "2BED5241-FEE2-452B-8B42-4A46EDD0955E";
paths = (
{
closed = 1;
nodes = (
"306.9 0 LINE",
"306.9 522.5 LINE",
"44 522.5 LINE",
"44 0 LINE"
);
},
{
closed = 1;
nodes = (
"307.4 575 LINE",
"307.4 733 LINE",
"44.4 733 LINE",
"44.4 575 LINE"
);
}
);
width = 351;
}
);
leftKerningGroup = i;
rightKerningGroup = i;
},
{
glyphname = idotbelow;
lastChange = "2019-10-06 17:18:57 +0000";
layers = (
{
layerId = "2BED5241-FEE2-452B-8B42-4A46EDD0955E";
paths = (
{
closed = 1;
nodes = (
"306.95 0 LINE",
"306.95 522.5 LINE",
"44.05 522.5 LINE",
"44.05 0 LINE"
);
},
{
closed = 1;
nodes = (
"307 -209.013 LINE",
"307 -51.013 LINE",
"44 -51.013 LINE",
"44 -209.013 LINE"
);
},
{
closed = 1;
nodes = (
"307 574.5 LINE",
"307 732.5 LINE",
"44 732.5 LINE",
"44 574.5 LINE"
);
}
);
width = 351;
}
);
leftKerningGroup = i;
rightKerningGroup = i;
unicode = 1ECB;
},
{
glyphname = igrave;
lastChange = "2019-09-09 11:34:22 +0000";
layers = (
{
layerId = "2BED5241-FEE2-452B-8B42-4A46EDD0955E";
paths = (
{
closed = 1;
nodes = (
"307 0 LINE",
"307 522.5 LINE",
"44.1 522.5 LINE",
"44.1 0 LINE"
);
},
{
closed = 1;
nodes = (
"265 575 LINE",
"156 738 LINE",
"-69 738 LINE",
"93 575 LINE"
);
}
);
width = 351;
}
);
leftKerningGroup = i;
rightKerningGroup = i;
unicode = 00EC;
},
{
glyphname = ihookabove;
lastChange = "2019-09-09 11:34:22 +0000";
layers = (
{
layerId = "2BED5241-FEE2-452B-8B42-4A46EDD0955E";
paths = (
{
closed = 1;
nodes = (
"307 0 LINE",
"307 522.5 LINE",
"44.1 522.5 LINE",
"44.1 0 LINE"
);
},
{
closed = 1;
nodes = (
"255 575 LINE",
"255 614 LINE",
"297 614 LINE",
"345 652 LINE",
"345 771 LINE",
"296 813 LINE",
"73 813 LINE",
"18 771 LINE",
"18 706 LINE",
"163 706 LINE",
"163 747 LINE",
"195 747 LINE",
"195 681 LINE",
"136 681 LINE",
"97 652 LINE",
"97 575 LINE"
);
}
);
width = 351;
}
);
leftKerningGroup = i;
rightKerningGroup = i;
unicode = 1EC9;
},
{
glyphname = iinvertedbreve;
lastChange = "2019-09-09 11:34:22 +0000";
layers = (
{
layerId = "2BED5241-FEE2-452B-8B42-4A46EDD0955E";
paths = (
{
closed = 1;
nodes = (
"307 0 LINE",
"307 522.5 LINE",
"44.1 522.5 LINE",
"44.1 0 LINE"
);
},
{
closed = 1;
nodes = (
"125 575 LINE",
"125 627 LINE",
"227 627 LINE",
"227 575 LINE",
"418 575 LINE",
"418 650 LINE",
"315 738 LINE",
"37 738 LINE",
"-66 650 LINE",
"-66 575 LINE"
);
}
);
width = 351;
}
);
leftKerningGroup = i;
rightKerningGroup = i;
unicode = 020B;
},
{
glyphname = imacron;
lastChange = "2019-10-08 21:52:37 +0000";
layers = (
{
layerId = "2BED5241-FEE2-452B-8B42-4A46EDD0955E";
paths = (
{
closed = 1;
nodes = (
"307 0 LINE",
"307 522.5 LINE",
"44.1 522.5 LINE",
"44.1 0 LINE"
);
},
{
closed = 1;
nodes = (
"449 575 LINE",
"449 724 LINE",
"-97 724 LINE",
"-97 575 LINE"
);
}
);
width = 351;
}
);
leftKerningGroup = i;
rightKerningGroup = i;
unicode = 012B;
},
{
glyphname = iogonek;
lastChange = "2019-09-09 11:34:22 +0000";
layers = (
{
layerId = "2BED5241-FEE2-452B-8B42-4A46EDD0955E";
paths = (
{
closed = 1;
nodes = (
"307 -191 LINE",
"307 -64 LINE",
"293 -64 LINE",
"277 -49 LINE",
"277 -26 LINE",
"306.9 0 LINE",
"306.9 522.5 LINE",
"44 522.5 LINE",
"44 0 LINE",
"187 0 LINE",
"142 -33 LINE",
"142 -122 LINE",
"224 -191 LINE"
);
},
{
closed = 1;
nodes = (
"307 575 LINE",
"307 733 LINE",
"44 733 LINE",
"44 575 LINE"
);
}
);
width = 351;
}
);
leftKerningGroup = i;
leftMetricsKey = i;
rightKerningGroup = i;
rightMetricsKey = i;
unicode = 012F;
},
{
glyphname = itilde;
lastChange = "2019-09-09 11:34:22 +0000";
layers = (
{
layerId = "2BED5241-FEE2-452B-8B42-4A46EDD0955E";
paths = (
{
closed = 1;
nodes = (
"307 0 LINE",
"307 522.5 LINE",
"44.1 522.5 LINE",
"44.1 0 LINE"
);
},
{
closed = 1;
nodes = (
"346 575 LINE",
"430 647 LINE",
"430 736 LINE",
"283 736 LINE",
"283 703 LINE",
"267 688 LINE",
"249 688 LINE",
"200 743 LINE",
"7 743 LINE",
"-76 669 LINE",
"-76 581 LINE",
"71 581 LINE",
"71 613 LINE",
"87 629 LINE",
"104 629 LINE",
"154 575 LINE"
);
}
);
width = 351;
}
);
leftKerningGroup = i;
rightKerningGroup = i;
unicode = 0129;
},
{
glyphname = j;
lastChange = "2019-09-09 11:34:22 +0000";
layers = (
{
layerId = "2BED5241-FEE2-452B-8B42-4A46EDD0955E";
paths = (
{
closed = 1;
nodes = (
"199 -187 LINE",
"310 -92 LINE",
"309 523 LINE",
"46 523 LINE",
"46 -67 LINE",
"-44 -67 LINE",
"-44 -187 LINE"
);
},
{
closed = 1;
nodes = (
"309.5 575 LINE",
"309.5 733 LINE",
"46.5 733 LINE",
"46.5 575 LINE"
);
}
);
width = 354;
}
);
leftKerningGroup = j;
rightKerningGroup = j;
rightMetricsKey = d;
unicode = 006A;
},
{
glyphname = jdotless;
lastChange = "2019-09-09 11:34:22 +0000";
layers = (
{
layerId = "2BED5241-FEE2-452B-8B42-4A46EDD0955E";
paths = (
{
closed = 1;
nodes = (
"199 -187 LINE",
"310 -92 LINE",
"309 523 LINE",
"46 523 LINE",
"46 -67 LINE",
"-44 -67 LINE",
"-44 -187 LINE"
);
}
);
width = 354;
}
);
rightMetricsKey = d;
unicode = 0237;
},
{
glyphname = jcircumflex;
lastChange = "2019-09-09 11:34:22 +0000";
layers = (
{
layerId = "2BED5241-FEE2-452B-8B42-4A46EDD0955E";
paths = (
{
closed = 1;
nodes = (
"199 -187 LINE",
"310 -92 LINE",
"309 523 LINE",
"46 523 LINE",
"46 -67 LINE",
"-44 -67 LINE",
"-44 -187 LINE"
);
},
{
closed = 1;
nodes = (
"102 575 LINE",
"178 651 LINE",
"254 575 LINE",
"441 575 LINE",
"318 738 LINE",
"38 738 LINE",
"-85 575 LINE"
);
}
);
width = 354;
}
);
leftKerningGroup = j;
rightKerningGroup = j;
unicode = 0135;
},
{
glyphname = k;
lastChange = "2019-09-30 12:45:03 +0000";
layers = (
{
layerId = "2BED5241-FEE2-452B-8B42-4A46EDD0955E";
paths = (
{
closed = 1;
nodes = (
"308 0 LINE",
"308 117.217 LINE",
"351.185 160.604 LINE",
"438.9 0 LINE",
"716.9 0 LINE",
"505.342 315.481 LINE",
"710.9 522 LINE",
"463.052 522 LINE",
"308 371.437 LINE",
"308 737 LINE",
"44 737 LINE",
"44 0 LINE"
);
}
);
width = 716.9;
}
);
leftKerningGroup = h;
leftMetricsKey = n;
rightKerningGroup = k;
unicode = 006B;
},
{
glyphname = kcommaaccent;
lastChange = "2019-09-30 12:47:41 +0000";
layers = (
{
layerId = "2BED5241-FEE2-452B-8B42-4A46EDD0955E";
paths = (
{
closed = 1;
nodes = (
"316.9 -234 LINE",
"449.9 -52 LINE",
"227.9 -52 LINE",
"176.9 -234 LINE"
);
},
{
closed = 1;
nodes = (
"308 0 LINE",
"308 117.217 LINE",
"351.185 160.604 LINE",
"438.9 0 LINE",
"716.9 0 LINE",
"505.342 315.481 LINE",
"710.9 522 LINE",
"463.052 522 LINE",
"308 371.437 LINE",
"308 737 LINE",
"44 737 LINE",
"44 0 LINE"
);
}
);
width = 716.9;
}
);
leftKerningGroup = h;
leftMetricsKey = n;
rightKerningGroup = k;
rightMetricsKey = k;
unicode = 0137;
},
{
glyphname = kgreenlandic;
lastChange = "2019-09-30 12:47:57 +0000";
layers = (
{
layerId = "2BED5241-FEE2-452B-8B42-4A46EDD0955E";
paths = (
{
closed = 1;
nodes = (
"308 0 LINE",
"308 117.217 LINE",
"351.185 160.604 LINE",
"438.9 0 LINE",
"716.9 0 LINE",
"505.342 315.481 LINE",
"710.9 522 LINE",
"463.052 522 LINE",
"308 371.437 LINE",
"308 523 LINE",
"44 523 LINE",
"44 0 LINE"
);
}
);
width = 716;
}
);
leftKerningGroup = h;
leftMetricsKey = n;
rightKerningGroup = k;
unicode = 0138;
},
{
glyphname = l;
lastChange = "2019-09-09 11:34:22 +0000";
layers = (
{
layerId = "2BED5241-FEE2-452B-8B42-4A46EDD0955E";
paths = (
{
closed = 1;
nodes = (
"308 0 LINE",
"308 737 LINE",
"44 737 LINE",
"44 0 LINE"
);
}
);
width = 352;
}
);
leftKerningGroup = l;
leftMetricsKey = n;
rightKerningGroup = _part.l;
rightMetricsKey = d;
unicode = 006C;
},
{
glyphname = lacute;
lastChange = "2019-09-09 11:34:22 +0000";
layers = (
{
layerId = "2BED5241-FEE2-452B-8B42-4A46EDD0955E";
paths = (
{
closed = 1;
nodes = (
"308 0 LINE",
"308 737 LINE",
"44 737 LINE",
"44 0 LINE"
);
},
{
closed = 1;
nodes = (
"258.9 789 LINE",
"420.9 952 LINE",
"195.9 952 LINE",
"86.9 789 LINE"
);
}
);
width = 352;
}
);
leftKerningGroup = l;
rightKerningGroup = _part.l;
unicode = 013A;
},
{
glyphname = lcaron;
lastChange = "2019-09-09 11:34:22 +0000";
layers = (
{
layerId = "2BED5241-FEE2-452B-8B42-4A46EDD0955E";
paths = (
{
closed = 1;
nodes = (
"308 0 LINE",
"308 737 LINE",
"44 737 LINE",
"44 0 LINE"
);
},
{
closed = 1;
nodes = (
"480.9 555 LINE",
"613.9 737 LINE",
"391.9 737 LINE",
"340.9 555 LINE"
);
}
);
width = 352;
}
);
leftKerningGroup = l;
rightKerningGroup = _part.l;
unicode = 013E;
},
{
glyphname = lcommaaccent;
lastChange = "2019-09-09 11:34:22 +0000";
layers = (
{
layerId = "2BED5241-FEE2-452B-8B42-4A46EDD0955E";
paths = (
{
closed = 1;
nodes = (
"308 0 LINE",
"308 737 LINE",
"44 737 LINE",
"44 0 LINE"
);
},
{
closed = 1;
nodes = (
"155 -234 LINE",
"288 -52 LINE",
"66 -52 LINE",
"15 -234 LINE"
);
}
);
width = 352;
}
);
leftKerningGroup = l;
rightKerningGroup = _part.l;
unicode = 013C;
},
{
glyphname = ldot;
lastChange = "2019-09-09 11:34:22 +0000";
layers = (
{
guideLines = (
{
position = "{379, 263}";
},
{
position = "{423.75, 305.875}";
}
);
layerId = "2BED5241-FEE2-452B-8B42-4A46EDD0955E";
paths = (
{
closed = 1;
nodes = (
"308 0 LINE",
"308 737 LINE",
"44 737 LINE",
"44 0 LINE"
);
},
{
closed = 1;
nodes = (
"589 305.875 LINE",
"589 492.875 LINE",
"371 492.875 LINE",
"371 305.875 LINE"
);
}
);
width = 619;
}
);
leftKerningGroup = l;
rightKerningGroup = _part.l;
unicode = 0140;
},
{
glyphname = lj;
lastChange = "2019-09-09 11:34:22 +0000";
layers = (
{
layerId = "2BED5241-FEE2-452B-8B42-4A46EDD0955E";
paths = (
{
closed = 1;
nodes = (
"550.9 -187 LINE",
"661.9 -92 LINE",
"660.9 523 LINE",
"397.9 523 LINE",
"397.9 -67 LINE",
"307.9 -67 LINE",
"307.9 -187 LINE"
);
},
{
closed = 1;
nodes = (
"308 0 LINE",
"308 737 LINE",
"44 737 LINE",
"44 0 LINE"
);
},
{
closed = 1;
nodes = (
"661.4 575 LINE",
"661.4 733 LINE",
"398.4 733 LINE",
"398.4 575 LINE"
);
}
);
width = 705.9;
}
);
leftKerningGroup = l;
leftMetricsKey = i;
rightKerningGroup = j;
rightMetricsKey = j;
unicode = 01C9;
},
{
glyphname = lslash;
lastChange = "2019-09-09 11:34:22 +0000";
layers = (
{
layerId = "2BED5241-FEE2-452B-8B42-4A46EDD0955E";
paths = (
{
closed = 1;
nodes = (
"308 0 LINE",
"308 345.54 LINE",
"375 375 LINE",
"375 532 LINE",
"308 502.877 LINE",
"308 737 LINE",
"44 737 LINE",
"44 388.123 LINE",
"-23 359 LINE",
"-23 200 LINE",
"44 229.46 LINE",
"44 0 LINE"
);
}
);
width = 352;
}
);
leftKerningGroup = l;
rightKerningGroup = _part.l;
unicode = 0142;
},
{
glyphname = m;
lastChange = "2019-09-09 11:34:22 +0000";
layers = (
{
layerId = "2BED5241-FEE2-452B-8B42-4A46EDD0955E";
paths = (
{
closed = 1;
nodes = (
"306.9 0 LINE",
"306.9 378.427 LINE",
"373.6 425.7 LINE",
"405.5 425.7 LINE",
"405.5 0 LINE",
"668.4 0 LINE",
"668.4 381.617 LINE",
"730.6 425.7 LINE",
"762.5 425.7 LINE",
"762.5 0 LINE",
"1025.4 0 LINE",
"1025.4 427.9 LINE",
"914.3 522.5 LINE",
"728.4 522.5 LINE",
"634.076 457.127 LINE",
"557.3 522.5 LINE",
"371.4 522.5 LINE",
"306.9 477.797 LINE",
"306.9 522.5 LINE",
"44 522.5 LINE",
"44 0 LINE"
);
}
);
width = 1064.4;
}
);
leftKerningGroup = n;
leftMetricsKey = n;
rightKerningGroup = n;
rightMetricsKey = n;
unicode = 006D;
},
{
glyphname = n;
lastChange = "2019-09-09 11:34:22 +0000";
layers = (
{
layerId = "2BED5241-FEE2-452B-8B42-4A46EDD0955E";
paths = (
{
closed = 1;
nodes = (
"306.9 0 LINE",
"306.9 378.427 LINE",
"373.6 425.7 LINE",
"405.5 425.7 LINE",
"405.5 0 LINE",
"668.4 0 LINE",
"668.4 427.9 LINE",
"557.3 522.5 LINE",
"371.4 522.5 LINE",
"306.9 477.797 LINE",
"306.9 522.5 LINE",
"44 522.5 LINE",
"44 0 LINE"
);
}
);
width = 707.4;
}
);
leftKerningGroup = n;
rightKerningGroup = n;
unicode = 006E;
},
{
glyphname = nacute;
lastChange = "2019-09-09 11:34:22 +0000";
layers = (
{
layerId = "2BED5241-FEE2-452B-8B42-4A46EDD0955E";
paths = (
{
closed = 1;
nodes = (
"306.9 0 LINE",
"306.9 378.427 LINE",
"373.6 425.7 LINE",
"405.5 425.7 LINE",
"405.5 0 LINE",
"668.4 0 LINE",
"668.4 427.9 LINE",
"557.3 522.5 LINE",
"371.4 522.5 LINE",
"306.9 477.797 LINE",
"306.9 522.5 LINE",
"44 522.5 LINE",
"44 0 LINE"
);
},
{
closed = 1;
nodes = (
"438.9 574 LINE",
"600.9 737 LINE",
"375.9 737 LINE",
"266.9 574 LINE"
);
}
);
width = 707.4;
}
);
leftKerningGroup = n;
rightKerningGroup = n;
unicode = 0144;
},
{
glyphname = ncaron;
lastChange = "2019-10-06 17:58:47 +0000";
layers = (
{
layerId = "2BED5241-FEE2-452B-8B42-4A46EDD0955E";
paths = (
{
closed = 1;
nodes = (
"306.9 0 LINE",
"306.9 378.427 LINE",
"373.6 425.7 LINE",
"405.5 425.7 LINE",
"405.5 0 LINE",
"668.4 0 LINE",
"668.4 427.9 LINE",
"557.3 522.5 LINE",
"371.4 522.5 LINE",
"306.9 477.797 LINE",
"306.9 522.5 LINE",
"44 522.5 LINE",
"44 0 LINE"
);
},
{
closed = 1;
nodes = (
"494.9 574 LINE",
"617.9 737 LINE",
"430.9 737 LINE",
"354.9 661 LINE",
"278.9 737 LINE",
"91.9 737 LINE",
"214.9 574 LINE"
);
}
);
width = 707.4;
}
);
leftKerningGroup = n;
rightKerningGroup = n;
unicode = 0148;
},
{
glyphname = ncommaaccent;
lastChange = "2019-09-09 11:34:22 +0000";
layers = (
{
layerId = "2BED5241-FEE2-452B-8B42-4A46EDD0955E";
paths = (
{
closed = 1;
nodes = (
"306.9 0 LINE",
"306.9 378.427 LINE",
"373.6 425.7 LINE",
"405.5 425.7 LINE",
"405.5 0 LINE",
"668.4 0 LINE",
"668.4 427.9 LINE",
"557.3 522.5 LINE",
"371.4 522.5 LINE",
"306.9 477.797 LINE",
"306.9 522.5 LINE",
"44 522.5 LINE",
"44 0 LINE"
);
},
{
closed = 1;
nodes = (
"336.9 -234 LINE",
"469.9 -52 LINE",
"247.9 -52 LINE",
"196.9 -234 LINE"
);
}
);
width = 707.4;
}
);
leftKerningGroup = n;
rightKerningGroup = n;
unicode = 0146;
},
{
glyphname = eng;
lastChange = "2019-09-09 11:34:22 +0000";
layers = (
{
layerId = "2BED5241-FEE2-452B-8B42-4A46EDD0955E";
paths = (
{
closed = 1;
nodes = (
"557.78 -187 LINE",
"668.648 -92.006 LINE",
"668.8 427.9 LINE",
"557.7 522.5 LINE",
"371.8 522.5 LINE",
"306.9 477.52 LINE",
"306.9 522.5 LINE",
"44 522.5 LINE",
"44 0 LINE",
"306.9 0 LINE",
"306.9 378.144 LINE",
"374 425.7 LINE",
"405.9 425.7 LINE",
"405.78 -57 LINE",
"395.78 -67 LINE",
"315.78 -67 LINE",
"315.78 -187 LINE"
);
}
);
width = 707.8;
}
);
leftKerningGroup = n;
leftMetricsKey = n;
rightKerningGroup = n;
rightMetricsKey = n;
unicode = 014B;
},
{
glyphname = nj;
lastChange = "2019-09-09 11:34:22 +0000";
layers = (
{
layerId = "2BED5241-FEE2-452B-8B42-4A46EDD0955E";
paths = (
{
closed = 1;
nodes = (
"306.9 0 LINE",
"306.9 378.427 LINE",
"373.6 425.7 LINE",
"405.5 425.7 LINE",
"405.5 0 LINE",
"668.4 0 LINE",
"668.4 427.9 LINE",
"557.3 522.5 LINE",
"371.4 522.5 LINE",
"306.9 477.797 LINE",
"306.9 522.5 LINE",
"44 522.5 LINE",
"44 0 LINE"
);
},
{
closed = 1;
nodes = (
"904 -187 LINE",
"1015 -92 LINE",
"1014 523 LINE",
"751 523 LINE",
"751 -67 LINE",
"661 -67 LINE",
"661 -187 LINE"
);
},
{
closed = 1;
nodes = (
"1014.5 575 LINE",
"1014.5 733 LINE",
"751.5 733 LINE",
"751.5 575 LINE"
);
}
);
width = 1059;
}
);
leftMetricsKey = n;
rightMetricsKey = j;
unicode = 01CC;
},
{
glyphname = ntilde;
lastChange = "2019-09-09 11:34:22 +0000";
layers = (
{
layerId = "2BED5241-FEE2-452B-8B42-4A46EDD0955E";
paths = (
{
closed = 1;
nodes = (
"306.9 0 LINE",
"306.9 378.427 LINE",
"373.6 425.7 LINE",
"405.5 425.7 LINE",
"405.5 0 LINE",
"668.4 0 LINE",
"668.4 427.9 LINE",
"557.3 522.5 LINE",
"371.4 522.5 LINE",
"306.9 477.797 LINE",
"306.9 522.5 LINE",
"44 522.5 LINE",
"44 0 LINE"
);
},
{
closed = 1;
nodes = (
"524.9 574 LINE",
"608.9 646 LINE",
"608.9 735 LINE",
"461.9 735 LINE",
"461.9 702 LINE",
"445.9 687 LINE",
"427.9 687 LINE",
"378.9 742 LINE",
"185.9 742 LINE",
"102.9 668 LINE",
"102.9 580 LINE",
"249.9 580 LINE",
"249.9 612 LINE",
"265.9 628 LINE",
"282.9 628 LINE",
"332.9 574 LINE"
);
}
);
width = 707.4;
}
);
leftKerningGroup = n;
rightKerningGroup = n;
unicode = 00F1;
},
{
glyphname = o;
lastChange = "2019-09-09 11:34:22 +0000";
layers = (
{
layerId = "2BED5241-FEE2-452B-8B42-4A46EDD0955E";
paths = (
{
closed = 1;
nodes = (
"547 0 LINE",
"658 95 LINE",
"658 428 LINE",
"547 523 LINE",
"150 523 LINE",
"39 428 LINE",
"39 95 LINE",
"150 0 LINE"
);
},
{
closed = 1;
nodes = (
"303 429 LINE",
"395 429 LINE",
"395 94 LINE",
"303 94 LINE"
);
}
);
width = 697;
}
);
leftKerningGroup = o;
rightKerningGroup = o;
unicode = 006F;
},
{
glyphname = oacute;
lastChange = "2019-09-09 11:34:22 +0000";
layers = (
{
layerId = "2BED5241-FEE2-452B-8B42-4A46EDD0955E";
paths = (
{
closed = 1;
nodes = (
"547 0 LINE",
"658 95 LINE",
"658 428 LINE",
"547 523 LINE",
"150 523 LINE",
"39 428 LINE",
"39 95 LINE",
"150 0 LINE"
);
},
{
closed = 1;
nodes = (
"303 429 LINE",
"395 429 LINE",
"395 94 LINE",
"303 94 LINE"
);
},
{
closed = 1;
nodes = (
"433 575 LINE",
"595 738 LINE",
"370 738 LINE",
"261 575 LINE"
);
}
);
width = 697;
}
);
leftKerningGroup = o;
rightKerningGroup = o;
unicode = 00F3;
},
{
glyphname = obreve;
lastChange = "2019-09-09 11:34:22 +0000";
layers = (
{
layerId = "2BED5241-FEE2-452B-8B42-4A46EDD0955E";
paths = (
{
closed = 1;
nodes = (
"547 0 LINE",
"658 95 LINE",
"658 428 LINE",
"547 523 LINE",
"150 523 LINE",
"39 428 LINE",
"39 95 LINE",
"150 0 LINE"
);
},
{
closed = 1;
nodes = (
"303 429 LINE",
"395 429 LINE",
"395 94 LINE",
"303 94 LINE"
);
},
{
closed = 1;
nodes = (
"488 575 LINE",
"591 663 LINE",
"591 738 LINE",
"400 738 LINE",
"400 686 LINE",
"298 686 LINE",
"298 738 LINE",
"107 738 LINE",
"107 663 LINE",
"210 575 LINE"
);
}
);
width = 697;
}
);
leftKerningGroup = o;
rightKerningGroup = o;
unicode = 014F;
},
{
glyphname = ocircumflex;
lastChange = "2019-09-09 11:34:22 +0000";
layers = (
{
layerId = "2BED5241-FEE2-452B-8B42-4A46EDD0955E";
paths = (
{
closed = 1;
nodes = (
"547 0 LINE",
"658 95 LINE",
"658 428 LINE",
"547 523 LINE",
"150 523 LINE",
"39 428 LINE",
"39 95 LINE",
"150 0 LINE"
);
},
{
closed = 1;
nodes = (
"303 429 LINE",
"395 429 LINE",
"395 94 LINE",
"303 94 LINE"
);
},
{
closed = 1;
nodes = (
"273 575 LINE",
"349 651 LINE",
"425 575 LINE",
"612 575 LINE",
"489 738 LINE",
"209 738 LINE",
"86 575 LINE"
);
}
);
width = 697;
}
);
leftKerningGroup = o;
rightKerningGroup = o;
unicode = 00F4;
},
{
glyphname = ocircumflexacute;
lastChange = "2019-09-09 11:34:22 +0000";
layers = (
{
layerId = "2BED5241-FEE2-452B-8B42-4A46EDD0955E";
paths = (
{
closed = 1;
nodes = (
"547 0 LINE",
"658 95 LINE",
"658 428 LINE",
"547 523 LINE",
"150 523 LINE",
"39 428 LINE",
"39 95 LINE",
"150 0 LINE"
);
},
{
closed = 1;
nodes = (
"303 429 LINE",
"395 429 LINE",
"395 94 LINE",
"303 94 LINE"
);
},
{
closed = 1;
nodes = (
"273 575 LINE",
"349 651 LINE",
"425 575 LINE",
"612 575 LINE",
"489 738 LINE",
"209 738 LINE",
"86 575 LINE"
);
},
{
closed = 1;
nodes = (
"766 662.53 LINE",
"928 825.53 LINE",
"703 825.53 LINE",
"594 662.53 LINE"
);
}
);
width = 697;
}
);
leftKerningGroup = o;
rightKerningGroup = o;
unicode = 1ED1;
},
{
glyphname = ocircumflexdotbelow;
lastChange = "2019-09-09 11:34:22 +0000";
layers = (
{
layerId = "2BED5241-FEE2-452B-8B42-4A46EDD0955E";
paths = (
{
closed = 1;
nodes = (
"547 0 LINE",
"658 95 LINE",
"658 428 LINE",
"547 523 LINE",
"150 523 LINE",
"39 428 LINE",
"39 95 LINE",
"150 0 LINE"
);
},
{
closed = 1;
nodes = (
"480.5 -209.013 LINE",
"480.5 -51.013 LINE",
"217.5 -51.013 LINE",
"217.5 -209.013 LINE"
);
},
{
closed = 1;
nodes = (
"303 429 LINE",
"395 429 LINE",
"395 94 LINE",
"303 94 LINE"
);
},
{
closed = 1;
nodes = (
"273 575 LINE",
"349 651 LINE",
"425 575 LINE",
"612 575 LINE",
"489 738 LINE",
"209 738 LINE",
"86 575 LINE"
);
}
);
width = 697;
}
);
leftKerningGroup = o;
rightKerningGroup = o;
unicode = 1ED9;
},
